G04 EAGLE Gerber RS-274X export*
G75*
%MOMM*%
%FSLAX34Y34*%
%LPD*%
%INTop Copper*%
%IPPOS*%
%AMOC8*
5,1,8,0,0,1.08239X$1,22.5*%
G01*
%ADD10C,1.879600*%
%ADD11P,1.814519X8X22.500000*%
%ADD12C,1.422400*%
%ADD13R,1.422400X1.422400*%
%ADD14C,0.304800*%
%ADD15C,0.914400*%


D10*
X98900Y241300D03*
X98900Y215900D03*
X98900Y190500D03*
X98900Y165100D03*
X98900Y139700D03*
X98900Y114300D03*
X98900Y88900D03*
X248900Y88900D03*
X248900Y114300D03*
X248900Y139700D03*
X248900Y165100D03*
X248900Y190500D03*
X248900Y215900D03*
X248900Y241300D03*
D11*
X88900Y342900D03*
X114300Y342900D03*
D10*
X127000Y584200D03*
X203200Y584200D03*
X127000Y508000D03*
X203200Y508000D03*
X208788Y365506D03*
X273812Y365506D03*
X208788Y320294D03*
X273812Y320294D03*
D12*
X55100Y446500D03*
X55100Y466500D03*
X55100Y486500D03*
X55100Y506500D03*
X55100Y526500D03*
X55100Y546500D03*
X55100Y566500D03*
X55100Y586500D03*
X55100Y606500D03*
D13*
X55100Y626500D03*
D12*
X275100Y446500D03*
X275100Y466500D03*
X275100Y486500D03*
X275100Y506500D03*
X275100Y526500D03*
X275100Y546500D03*
X275100Y566500D03*
X275100Y586500D03*
X275100Y606500D03*
X275100Y626500D03*
D10*
X254000Y736600D03*
X228600Y736600D03*
X203200Y736600D03*
X177800Y736600D03*
X152400Y736600D03*
X127000Y736600D03*
X101600Y736600D03*
X76200Y736600D03*
X127000Y800100D03*
X152400Y800100D03*
X177800Y800100D03*
X203200Y800100D03*
D14*
X125984Y581152D02*
X125984Y532384D01*
X69088Y475488D01*
X69088Y459232D01*
X56896Y447040D01*
X125984Y581152D02*
X127000Y584200D01*
X56896Y447040D02*
X55100Y446500D01*
X207264Y316992D02*
X207264Y241642D01*
X98900Y139700D01*
X207264Y316992D02*
X208788Y320294D01*
X56896Y629920D02*
X56896Y743712D01*
X109728Y796544D01*
X125984Y796544D01*
X56896Y629920D02*
X55100Y626500D01*
X125984Y796544D02*
X127000Y800100D01*
X178816Y796544D02*
X178816Y739648D01*
X177800Y736600D01*
X178816Y796544D02*
X177800Y800100D01*
X268224Y235712D02*
X251968Y219456D01*
X268224Y235712D02*
X268224Y300736D01*
X239776Y329184D01*
X239776Y674624D01*
X177800Y736600D01*
X251968Y219456D02*
X248900Y215900D01*
X251968Y191008D02*
X292608Y231648D01*
X292608Y723392D01*
X219456Y796544D01*
X203200Y796544D01*
X251968Y191008D02*
X248900Y190500D01*
X203200Y796544D02*
X203200Y800100D01*
X52832Y483616D02*
X48768Y483616D01*
X40640Y475488D01*
X40640Y341376D01*
X162560Y219456D01*
X52832Y483616D02*
X55100Y486500D01*
D15*
X162560Y219456D03*
D14*
X89408Y345440D02*
X89408Y394208D01*
X203200Y508000D01*
X89408Y345440D02*
X88900Y342900D01*
X127000Y508000D02*
X178816Y508000D01*
X195072Y524256D01*
X211328Y524256D01*
X231648Y503936D01*
X231648Y105664D01*
X247904Y89408D01*
X248900Y88900D01*
M02*
