G04 EAGLE Gerber RS-274X export*
G75*
%MOMM*%
%FSLAX34Y34*%
%LPD*%
%IN*%
%IPPOS*%
%AMOC8*
5,1,8,0,0,1.08239X$1,22.5*%
G01*
%ADD10C,0.254000*%


D10*
X0Y63500D02*
X339600Y63500D01*
X339600Y876200D01*
X0Y876200D01*
X0Y63500D01*
X52100Y837700D02*
X52029Y836703D01*
X51886Y835713D01*
X51674Y834736D01*
X51392Y833776D01*
X51043Y832839D01*
X50627Y831929D01*
X50148Y831052D01*
X49607Y830210D01*
X49008Y829410D01*
X48353Y828654D01*
X47646Y827947D01*
X46890Y827292D01*
X46090Y826693D01*
X45248Y826152D01*
X44371Y825673D01*
X43461Y825257D01*
X42524Y824908D01*
X41565Y824626D01*
X40587Y824414D01*
X39598Y824271D01*
X38600Y824200D01*
X37600Y824200D01*
X36603Y824271D01*
X35613Y824414D01*
X34636Y824626D01*
X33676Y824908D01*
X32739Y825257D01*
X31829Y825673D01*
X30952Y826152D01*
X30110Y826693D01*
X29310Y827292D01*
X28554Y827947D01*
X27847Y828654D01*
X27192Y829410D01*
X26593Y830210D01*
X26052Y831052D01*
X25573Y831929D01*
X25157Y832839D01*
X24808Y833776D01*
X24526Y834736D01*
X24314Y835713D01*
X24171Y836703D01*
X24100Y837700D01*
X24100Y838700D01*
X24171Y839698D01*
X24314Y840687D01*
X24526Y841665D01*
X24808Y842624D01*
X25157Y843561D01*
X25573Y844471D01*
X26052Y845348D01*
X26593Y846190D01*
X27192Y846990D01*
X27847Y847746D01*
X28554Y848453D01*
X29310Y849108D01*
X30110Y849707D01*
X30952Y850248D01*
X31829Y850727D01*
X32739Y851143D01*
X33676Y851492D01*
X34636Y851774D01*
X35613Y851986D01*
X36603Y852129D01*
X37600Y852200D01*
X38600Y852200D01*
X39598Y852129D01*
X40587Y851986D01*
X41565Y851774D01*
X42524Y851492D01*
X43461Y851143D01*
X44371Y850727D01*
X45248Y850248D01*
X46090Y849707D01*
X46890Y849108D01*
X47646Y848453D01*
X48353Y847746D01*
X49008Y846990D01*
X49607Y846190D01*
X50148Y845348D01*
X50627Y844471D01*
X51043Y843561D01*
X51392Y842624D01*
X51674Y841665D01*
X51886Y840687D01*
X52029Y839698D01*
X52100Y838700D01*
X52100Y837700D01*
X318800Y837700D02*
X318729Y836703D01*
X318586Y835713D01*
X318374Y834736D01*
X318092Y833776D01*
X317743Y832839D01*
X317327Y831929D01*
X316848Y831052D01*
X316307Y830210D01*
X315708Y829410D01*
X315053Y828654D01*
X314346Y827947D01*
X313590Y827292D01*
X312790Y826693D01*
X311948Y826152D01*
X311071Y825673D01*
X310161Y825257D01*
X309224Y824908D01*
X308265Y824626D01*
X307287Y824414D01*
X306298Y824271D01*
X305300Y824200D01*
X304300Y824200D01*
X303303Y824271D01*
X302313Y824414D01*
X301336Y824626D01*
X300376Y824908D01*
X299439Y825257D01*
X298529Y825673D01*
X297652Y826152D01*
X296810Y826693D01*
X296010Y827292D01*
X295254Y827947D01*
X294547Y828654D01*
X293892Y829410D01*
X293293Y830210D01*
X292752Y831052D01*
X292273Y831929D01*
X291857Y832839D01*
X291508Y833776D01*
X291226Y834736D01*
X291014Y835713D01*
X290871Y836703D01*
X290800Y837700D01*
X290800Y838700D01*
X290871Y839698D01*
X291014Y840687D01*
X291226Y841665D01*
X291508Y842624D01*
X291857Y843561D01*
X292273Y844471D01*
X292752Y845348D01*
X293293Y846190D01*
X293892Y846990D01*
X294547Y847746D01*
X295254Y848453D01*
X296010Y849108D01*
X296810Y849707D01*
X297652Y850248D01*
X298529Y850727D01*
X299439Y851143D01*
X300376Y851492D01*
X301336Y851774D01*
X302313Y851986D01*
X303303Y852129D01*
X304300Y852200D01*
X305300Y852200D01*
X306298Y852129D01*
X307287Y851986D01*
X308265Y851774D01*
X309224Y851492D01*
X310161Y851143D01*
X311071Y850727D01*
X311948Y850248D01*
X312790Y849707D01*
X313590Y849108D01*
X314346Y848453D01*
X315053Y847746D01*
X315708Y846990D01*
X316307Y846190D01*
X316848Y845348D01*
X317327Y844471D01*
X317743Y843561D01*
X318092Y842624D01*
X318374Y841665D01*
X318586Y840687D01*
X318729Y839698D01*
X318800Y838700D01*
X318800Y837700D01*
X52100Y101100D02*
X52029Y100103D01*
X51886Y99113D01*
X51674Y98136D01*
X51392Y97176D01*
X51043Y96239D01*
X50627Y95329D01*
X50148Y94452D01*
X49607Y93610D01*
X49008Y92810D01*
X48353Y92054D01*
X47646Y91347D01*
X46890Y90692D01*
X46090Y90093D01*
X45248Y89552D01*
X44371Y89073D01*
X43461Y88657D01*
X42524Y88308D01*
X41565Y88026D01*
X40587Y87814D01*
X39598Y87671D01*
X38600Y87600D01*
X37600Y87600D01*
X36603Y87671D01*
X35613Y87814D01*
X34636Y88026D01*
X33676Y88308D01*
X32739Y88657D01*
X31829Y89073D01*
X30952Y89552D01*
X30110Y90093D01*
X29310Y90692D01*
X28554Y91347D01*
X27847Y92054D01*
X27192Y92810D01*
X26593Y93610D01*
X26052Y94452D01*
X25573Y95329D01*
X25157Y96239D01*
X24808Y97176D01*
X24526Y98136D01*
X24314Y99113D01*
X24171Y100103D01*
X24100Y101100D01*
X24100Y102100D01*
X24171Y103098D01*
X24314Y104087D01*
X24526Y105065D01*
X24808Y106024D01*
X25157Y106961D01*
X25573Y107871D01*
X26052Y108748D01*
X26593Y109590D01*
X27192Y110390D01*
X27847Y111146D01*
X28554Y111853D01*
X29310Y112508D01*
X30110Y113107D01*
X30952Y113648D01*
X31829Y114127D01*
X32739Y114543D01*
X33676Y114892D01*
X34636Y115174D01*
X35613Y115386D01*
X36603Y115529D01*
X37600Y115600D01*
X38600Y115600D01*
X39598Y115529D01*
X40587Y115386D01*
X41565Y115174D01*
X42524Y114892D01*
X43461Y114543D01*
X44371Y114127D01*
X45248Y113648D01*
X46090Y113107D01*
X46890Y112508D01*
X47646Y111853D01*
X48353Y111146D01*
X49008Y110390D01*
X49607Y109590D01*
X50148Y108748D01*
X50627Y107871D01*
X51043Y106961D01*
X51392Y106024D01*
X51674Y105065D01*
X51886Y104087D01*
X52029Y103098D01*
X52100Y102100D01*
X52100Y101100D01*
X318800Y101100D02*
X318729Y100103D01*
X318586Y99113D01*
X318374Y98136D01*
X318092Y97176D01*
X317743Y96239D01*
X317327Y95329D01*
X316848Y94452D01*
X316307Y93610D01*
X315708Y92810D01*
X315053Y92054D01*
X314346Y91347D01*
X313590Y90692D01*
X312790Y90093D01*
X311948Y89552D01*
X311071Y89073D01*
X310161Y88657D01*
X309224Y88308D01*
X308265Y88026D01*
X307287Y87814D01*
X306298Y87671D01*
X305300Y87600D01*
X304300Y87600D01*
X303303Y87671D01*
X302313Y87814D01*
X301336Y88026D01*
X300376Y88308D01*
X299439Y88657D01*
X298529Y89073D01*
X297652Y89552D01*
X296810Y90093D01*
X296010Y90692D01*
X295254Y91347D01*
X294547Y92054D01*
X293892Y92810D01*
X293293Y93610D01*
X292752Y94452D01*
X292273Y95329D01*
X291857Y96239D01*
X291508Y97176D01*
X291226Y98136D01*
X291014Y99113D01*
X290871Y100103D01*
X290800Y101100D01*
X290800Y102100D01*
X290871Y103098D01*
X291014Y104087D01*
X291226Y105065D01*
X291508Y106024D01*
X291857Y106961D01*
X292273Y107871D01*
X292752Y108748D01*
X293293Y109590D01*
X293892Y110390D01*
X294547Y111146D01*
X295254Y111853D01*
X296010Y112508D01*
X296810Y113107D01*
X297652Y113648D01*
X298529Y114127D01*
X299439Y114543D01*
X300376Y114892D01*
X301336Y115174D01*
X302313Y115386D01*
X303303Y115529D01*
X304300Y115600D01*
X305300Y115600D01*
X306298Y115529D01*
X307287Y115386D01*
X308265Y115174D01*
X309224Y114892D01*
X310161Y114543D01*
X311071Y114127D01*
X311948Y113648D01*
X312790Y113107D01*
X313590Y112508D01*
X314346Y111853D01*
X315053Y111146D01*
X315708Y110390D01*
X316307Y109590D01*
X316848Y108748D01*
X317327Y107871D01*
X317743Y106961D01*
X318092Y106024D01*
X318374Y105065D01*
X318586Y104087D01*
X318729Y103098D01*
X318800Y102100D01*
X318800Y101100D01*
M02*
