G04 EAGLE Gerber RS-274X export*
G75*
%MOMM*%
%FSLAX34Y34*%
%LPD*%
%INSilkscreen Bottom*%
%IPPOS*%
%AMOC8*
5,1,8,0,0,1.08239X$1,22.5*%
G01*
%ADD10C,0.203200*%


D10*
X107950Y749300D02*
X95250Y749300D01*
X88900Y742950D01*
X88900Y730250D02*
X95250Y723900D01*
X133350Y749300D02*
X139700Y742950D01*
X133350Y749300D02*
X120650Y749300D01*
X114300Y742950D01*
X114300Y730250D02*
X120650Y723900D01*
X133350Y723900D01*
X139700Y730250D01*
X114300Y742950D02*
X107950Y749300D01*
X114300Y730250D02*
X107950Y723900D01*
X95250Y723900D01*
X171450Y749300D02*
X184150Y749300D01*
X171450Y749300D02*
X165100Y742950D01*
X165100Y730250D02*
X171450Y723900D01*
X165100Y742950D02*
X158750Y749300D01*
X146050Y749300D01*
X139700Y742950D01*
X139700Y730250D02*
X146050Y723900D01*
X158750Y723900D01*
X165100Y730250D01*
X209550Y749300D02*
X215900Y742950D01*
X209550Y749300D02*
X196850Y749300D01*
X190500Y742950D01*
X190500Y730250D02*
X196850Y723900D01*
X209550Y723900D01*
X215900Y730250D01*
X190500Y742950D02*
X184150Y749300D01*
X190500Y730250D02*
X184150Y723900D01*
X171450Y723900D01*
X247650Y749300D02*
X260350Y749300D01*
X247650Y749300D02*
X241300Y742950D01*
X241300Y730250D02*
X247650Y723900D01*
X241300Y742950D02*
X234950Y749300D01*
X222250Y749300D01*
X215900Y742950D01*
X215900Y730250D02*
X222250Y723900D01*
X234950Y723900D01*
X241300Y730250D01*
X266700Y730250D02*
X266700Y742950D01*
X260350Y749300D01*
X266700Y730250D02*
X260350Y723900D01*
X247650Y723900D01*
X82550Y749300D02*
X69850Y749300D01*
X63500Y742950D01*
X63500Y730250D01*
X69850Y723900D01*
X88900Y742950D02*
X82550Y749300D01*
X88900Y730250D02*
X82550Y723900D01*
X69850Y723900D01*
X265684Y751586D02*
X265684Y759714D01*
X262072Y759714D01*
X262072Y756102D02*
X265684Y756102D01*
X257688Y759714D02*
X257688Y751586D01*
X257688Y759714D02*
X255430Y759714D01*
X255337Y759712D01*
X255244Y759706D01*
X255151Y759697D01*
X255058Y759683D01*
X254967Y759666D01*
X254876Y759645D01*
X254786Y759620D01*
X254697Y759592D01*
X254609Y759560D01*
X254523Y759524D01*
X254438Y759485D01*
X254355Y759442D01*
X254274Y759396D01*
X254195Y759346D01*
X254118Y759294D01*
X254043Y759238D01*
X253971Y759179D01*
X253901Y759117D01*
X253833Y759053D01*
X253769Y758985D01*
X253707Y758915D01*
X253648Y758843D01*
X253592Y758768D01*
X253540Y758691D01*
X253490Y758612D01*
X253444Y758531D01*
X253401Y758448D01*
X253362Y758363D01*
X253326Y758277D01*
X253294Y758189D01*
X253266Y758100D01*
X253241Y758010D01*
X253220Y757919D01*
X253203Y757828D01*
X253189Y757735D01*
X253180Y757642D01*
X253174Y757549D01*
X253172Y757456D01*
X253174Y757363D01*
X253180Y757270D01*
X253189Y757177D01*
X253203Y757084D01*
X253220Y756993D01*
X253241Y756902D01*
X253266Y756812D01*
X253294Y756723D01*
X253326Y756635D01*
X253362Y756549D01*
X253401Y756464D01*
X253444Y756381D01*
X253490Y756300D01*
X253540Y756221D01*
X253592Y756144D01*
X253648Y756069D01*
X253707Y755997D01*
X253769Y755927D01*
X253833Y755859D01*
X253901Y755795D01*
X253971Y755733D01*
X254043Y755674D01*
X254118Y755618D01*
X254195Y755566D01*
X254274Y755516D01*
X254355Y755470D01*
X254438Y755427D01*
X254523Y755388D01*
X254609Y755352D01*
X254697Y755320D01*
X254786Y755292D01*
X254876Y755267D01*
X254967Y755246D01*
X255058Y755229D01*
X255151Y755215D01*
X255244Y755206D01*
X255337Y755200D01*
X255430Y755198D01*
X257688Y755198D01*
X254978Y755198D02*
X253172Y751586D01*
X249098Y751586D02*
X246389Y759714D01*
X243680Y751586D01*
X244357Y753618D02*
X248421Y753618D01*
X239040Y751586D02*
X239040Y759714D01*
X236331Y755198D01*
X233621Y759714D01*
X233621Y751586D01*
M02*
