G04 EAGLE Gerber RS-274X export*
G75*
%MOMM*%
%FSLAX34Y34*%
%LPD*%
%INSilkscreen Top*%
%IPPOS*%
%AMOC8*
5,1,8,0,0,1.08239X$1,22.5*%
G01*
%ADD10C,0.076200*%
%ADD11C,0.050800*%
%ADD12C,0.101600*%
%ADD13C,0.203200*%
%ADD14C,0.127000*%
%ADD15C,0.015238*%
%ADD16C,0.025400*%
%ADD17C,0.152400*%


D10*
X206714Y825881D02*
X206803Y825883D01*
X206891Y825889D01*
X206979Y825898D01*
X207067Y825911D01*
X207154Y825928D01*
X207240Y825948D01*
X207325Y825973D01*
X207410Y826000D01*
X207493Y826032D01*
X207574Y826066D01*
X207654Y826105D01*
X207732Y826146D01*
X207809Y826191D01*
X207883Y826239D01*
X207956Y826290D01*
X208026Y826344D01*
X208093Y826402D01*
X208159Y826462D01*
X208221Y826524D01*
X208281Y826590D01*
X208339Y826657D01*
X208393Y826727D01*
X208444Y826800D01*
X208492Y826874D01*
X208537Y826951D01*
X208578Y827029D01*
X208617Y827109D01*
X208651Y827190D01*
X208683Y827273D01*
X208710Y827358D01*
X208735Y827443D01*
X208755Y827529D01*
X208772Y827616D01*
X208785Y827704D01*
X208794Y827792D01*
X208800Y827880D01*
X208802Y827969D01*
X206714Y825881D02*
X206585Y825883D01*
X206456Y825889D01*
X206327Y825898D01*
X206199Y825911D01*
X206071Y825928D01*
X205944Y825949D01*
X205817Y825973D01*
X205691Y826001D01*
X205566Y826033D01*
X205442Y826068D01*
X205319Y826107D01*
X205197Y826150D01*
X205077Y826196D01*
X204958Y826246D01*
X204840Y826299D01*
X204724Y826355D01*
X204610Y826415D01*
X204497Y826478D01*
X204387Y826545D01*
X204278Y826614D01*
X204172Y826687D01*
X204067Y826763D01*
X203965Y826842D01*
X203866Y826924D01*
X203768Y827008D01*
X203673Y827096D01*
X203581Y827186D01*
X203842Y833191D02*
X203844Y833280D01*
X203850Y833368D01*
X203859Y833456D01*
X203872Y833544D01*
X203889Y833631D01*
X203909Y833717D01*
X203934Y833802D01*
X203961Y833887D01*
X203993Y833970D01*
X204027Y834051D01*
X204066Y834131D01*
X204107Y834209D01*
X204152Y834286D01*
X204200Y834360D01*
X204251Y834433D01*
X204305Y834503D01*
X204363Y834570D01*
X204423Y834636D01*
X204485Y834698D01*
X204551Y834758D01*
X204618Y834816D01*
X204688Y834870D01*
X204761Y834921D01*
X204835Y834969D01*
X204912Y835014D01*
X204990Y835055D01*
X205070Y835094D01*
X205151Y835128D01*
X205234Y835160D01*
X205319Y835187D01*
X205404Y835212D01*
X205490Y835232D01*
X205577Y835249D01*
X205665Y835262D01*
X205753Y835271D01*
X205841Y835277D01*
X205930Y835279D01*
X206050Y835277D01*
X206170Y835272D01*
X206290Y835262D01*
X206409Y835250D01*
X206528Y835233D01*
X206646Y835213D01*
X206764Y835189D01*
X206880Y835162D01*
X206996Y835131D01*
X207111Y835097D01*
X207225Y835059D01*
X207338Y835017D01*
X207449Y834972D01*
X207559Y834924D01*
X207667Y834873D01*
X207774Y834818D01*
X207879Y834760D01*
X207982Y834698D01*
X208083Y834634D01*
X208183Y834566D01*
X208280Y834496D01*
X204886Y831364D02*
X204808Y831412D01*
X204732Y831464D01*
X204659Y831518D01*
X204588Y831576D01*
X204519Y831637D01*
X204453Y831701D01*
X204390Y831768D01*
X204330Y831837D01*
X204273Y831909D01*
X204219Y831983D01*
X204169Y832060D01*
X204121Y832139D01*
X204078Y832219D01*
X204037Y832302D01*
X204001Y832386D01*
X203968Y832471D01*
X203939Y832558D01*
X203913Y832647D01*
X203891Y832736D01*
X203874Y832826D01*
X203860Y832916D01*
X203850Y833008D01*
X203844Y833099D01*
X203842Y833191D01*
X207758Y829796D02*
X207836Y829748D01*
X207912Y829696D01*
X207985Y829642D01*
X208056Y829584D01*
X208125Y829523D01*
X208191Y829459D01*
X208254Y829392D01*
X208314Y829323D01*
X208371Y829251D01*
X208425Y829177D01*
X208475Y829100D01*
X208523Y829021D01*
X208566Y828941D01*
X208607Y828858D01*
X208643Y828774D01*
X208676Y828689D01*
X208705Y828602D01*
X208731Y828513D01*
X208753Y828424D01*
X208770Y828334D01*
X208784Y828244D01*
X208794Y828152D01*
X208800Y828061D01*
X208802Y827969D01*
X207758Y829797D02*
X204886Y831363D01*
X212725Y835279D02*
X212725Y825881D01*
X212725Y835279D02*
X215336Y835279D01*
X215436Y835277D01*
X215536Y835271D01*
X215635Y835262D01*
X215735Y835248D01*
X215833Y835231D01*
X215931Y835210D01*
X216028Y835186D01*
X216124Y835157D01*
X216219Y835125D01*
X216312Y835090D01*
X216404Y835051D01*
X216495Y835008D01*
X216583Y834962D01*
X216670Y834912D01*
X216755Y834860D01*
X216838Y834804D01*
X216919Y834745D01*
X216997Y834682D01*
X217073Y834617D01*
X217147Y834549D01*
X217217Y834479D01*
X217285Y834405D01*
X217350Y834329D01*
X217413Y834251D01*
X217472Y834170D01*
X217528Y834087D01*
X217580Y834002D01*
X217630Y833915D01*
X217676Y833827D01*
X217719Y833736D01*
X217758Y833644D01*
X217793Y833551D01*
X217825Y833456D01*
X217854Y833360D01*
X217878Y833263D01*
X217899Y833165D01*
X217916Y833067D01*
X217930Y832967D01*
X217939Y832868D01*
X217945Y832768D01*
X217947Y832668D01*
X217946Y832668D02*
X217946Y828492D01*
X217947Y828492D02*
X217945Y828392D01*
X217939Y828292D01*
X217930Y828193D01*
X217916Y828093D01*
X217899Y827995D01*
X217878Y827897D01*
X217854Y827800D01*
X217825Y827704D01*
X217793Y827609D01*
X217758Y827516D01*
X217719Y827424D01*
X217676Y827333D01*
X217630Y827245D01*
X217580Y827158D01*
X217528Y827073D01*
X217472Y826990D01*
X217413Y826909D01*
X217350Y826831D01*
X217285Y826755D01*
X217217Y826681D01*
X217147Y826611D01*
X217073Y826543D01*
X216997Y826478D01*
X216919Y826415D01*
X216838Y826356D01*
X216755Y826300D01*
X216670Y826248D01*
X216583Y826198D01*
X216495Y826152D01*
X216404Y826109D01*
X216312Y826070D01*
X216219Y826035D01*
X216124Y826003D01*
X216028Y825974D01*
X215931Y825950D01*
X215833Y825929D01*
X215735Y825912D01*
X215635Y825898D01*
X215536Y825889D01*
X215436Y825883D01*
X215336Y825881D01*
X212725Y825881D01*
X221652Y825881D02*
X224784Y835279D01*
X227917Y825881D01*
X227134Y828231D02*
X222435Y828231D01*
X182273Y827518D02*
X182271Y827440D01*
X182266Y827362D01*
X182256Y827285D01*
X182243Y827208D01*
X182227Y827132D01*
X182207Y827057D01*
X182183Y826983D01*
X182156Y826910D01*
X182125Y826838D01*
X182091Y826768D01*
X182054Y826700D01*
X182013Y826633D01*
X181969Y826568D01*
X181923Y826506D01*
X181873Y826446D01*
X181821Y826388D01*
X181766Y826333D01*
X181708Y826281D01*
X181648Y826231D01*
X181586Y826185D01*
X181521Y826141D01*
X181455Y826100D01*
X181386Y826063D01*
X181316Y826029D01*
X181244Y825998D01*
X181171Y825971D01*
X181097Y825947D01*
X181022Y825927D01*
X180946Y825911D01*
X180869Y825898D01*
X180792Y825888D01*
X180714Y825883D01*
X180636Y825881D01*
X180522Y825883D01*
X180409Y825888D01*
X180295Y825898D01*
X180182Y825911D01*
X180070Y825928D01*
X179958Y825948D01*
X179847Y825972D01*
X179736Y826000D01*
X179627Y826031D01*
X179519Y826066D01*
X179412Y826105D01*
X179306Y826147D01*
X179202Y826192D01*
X179099Y826241D01*
X178998Y826294D01*
X178899Y826349D01*
X178801Y826408D01*
X178706Y826470D01*
X178613Y826535D01*
X178521Y826603D01*
X178433Y826674D01*
X178346Y826748D01*
X178262Y826825D01*
X178181Y826904D01*
X178385Y831610D02*
X178387Y831688D01*
X178392Y831766D01*
X178402Y831843D01*
X178415Y831920D01*
X178431Y831996D01*
X178451Y832071D01*
X178475Y832145D01*
X178502Y832218D01*
X178533Y832290D01*
X178567Y832360D01*
X178604Y832429D01*
X178645Y832495D01*
X178689Y832560D01*
X178735Y832622D01*
X178785Y832682D01*
X178837Y832740D01*
X178892Y832795D01*
X178950Y832847D01*
X179010Y832897D01*
X179072Y832943D01*
X179137Y832987D01*
X179204Y833028D01*
X179272Y833065D01*
X179342Y833099D01*
X179414Y833130D01*
X179487Y833157D01*
X179561Y833181D01*
X179636Y833201D01*
X179712Y833217D01*
X179789Y833230D01*
X179866Y833240D01*
X179944Y833245D01*
X180022Y833247D01*
X180132Y833245D01*
X180241Y833239D01*
X180351Y833229D01*
X180459Y833216D01*
X180568Y833198D01*
X180675Y833177D01*
X180782Y833151D01*
X180888Y833122D01*
X180993Y833090D01*
X181096Y833053D01*
X181198Y833013D01*
X181299Y832969D01*
X181398Y832921D01*
X181495Y832871D01*
X181590Y832816D01*
X181683Y832758D01*
X181774Y832697D01*
X181863Y832633D01*
X179204Y830177D02*
X179137Y830219D01*
X179072Y830263D01*
X179010Y830311D01*
X178950Y830361D01*
X178892Y830414D01*
X178837Y830470D01*
X178785Y830529D01*
X178735Y830589D01*
X178688Y830653D01*
X178645Y830718D01*
X178604Y830785D01*
X178567Y830854D01*
X178533Y830925D01*
X178502Y830997D01*
X178475Y831071D01*
X178451Y831145D01*
X178431Y831221D01*
X178415Y831298D01*
X178402Y831375D01*
X178392Y831453D01*
X178387Y831532D01*
X178385Y831610D01*
X181455Y828950D02*
X181521Y828908D01*
X181586Y828864D01*
X181648Y828817D01*
X181708Y828766D01*
X181766Y828713D01*
X181821Y828657D01*
X181874Y828599D01*
X181923Y828538D01*
X181970Y828475D01*
X182013Y828410D01*
X182054Y828343D01*
X182091Y828274D01*
X182125Y828203D01*
X182156Y828131D01*
X182183Y828057D01*
X182207Y827982D01*
X182227Y827907D01*
X182243Y827830D01*
X182256Y827753D01*
X182266Y827675D01*
X182271Y827596D01*
X182273Y827518D01*
X181455Y828950D02*
X179204Y830178D01*
X186866Y825881D02*
X188503Y825881D01*
X186866Y825881D02*
X186788Y825883D01*
X186710Y825888D01*
X186633Y825898D01*
X186556Y825911D01*
X186480Y825927D01*
X186405Y825947D01*
X186331Y825971D01*
X186258Y825998D01*
X186186Y826029D01*
X186116Y826063D01*
X186048Y826100D01*
X185981Y826141D01*
X185916Y826185D01*
X185854Y826231D01*
X185794Y826281D01*
X185736Y826333D01*
X185681Y826388D01*
X185629Y826446D01*
X185579Y826506D01*
X185533Y826568D01*
X185489Y826633D01*
X185448Y826700D01*
X185411Y826768D01*
X185377Y826838D01*
X185346Y826910D01*
X185319Y826983D01*
X185295Y827057D01*
X185275Y827132D01*
X185259Y827208D01*
X185246Y827285D01*
X185236Y827362D01*
X185231Y827440D01*
X185229Y827518D01*
X185229Y831610D01*
X185231Y831690D01*
X185237Y831770D01*
X185247Y831850D01*
X185260Y831929D01*
X185278Y832008D01*
X185299Y832085D01*
X185325Y832161D01*
X185354Y832236D01*
X185386Y832310D01*
X185422Y832382D01*
X185462Y832452D01*
X185505Y832519D01*
X185551Y832585D01*
X185601Y832648D01*
X185653Y832709D01*
X185708Y832768D01*
X185767Y832823D01*
X185827Y832875D01*
X185891Y832925D01*
X185957Y832971D01*
X186024Y833014D01*
X186094Y833054D01*
X186166Y833090D01*
X186240Y833122D01*
X186314Y833151D01*
X186391Y833177D01*
X186468Y833198D01*
X186547Y833216D01*
X186626Y833229D01*
X186706Y833239D01*
X186786Y833245D01*
X186866Y833247D01*
X188503Y833247D01*
X191608Y833247D02*
X191608Y825881D01*
X194882Y825881D01*
X133646Y829536D02*
X127381Y829536D01*
X130514Y826403D02*
X130514Y832668D01*
X152781Y829536D02*
X159046Y829536D01*
D11*
X162654Y82296D02*
X162654Y76454D01*
X162654Y82296D02*
X164277Y82296D01*
X164357Y82294D01*
X164436Y82288D01*
X164515Y82278D01*
X164594Y82265D01*
X164671Y82247D01*
X164748Y82226D01*
X164824Y82201D01*
X164898Y82172D01*
X164971Y82140D01*
X165042Y82104D01*
X165111Y82065D01*
X165179Y82022D01*
X165244Y81977D01*
X165307Y81928D01*
X165367Y81876D01*
X165425Y81821D01*
X165480Y81763D01*
X165532Y81703D01*
X165581Y81640D01*
X165626Y81575D01*
X165669Y81507D01*
X165708Y81438D01*
X165744Y81367D01*
X165776Y81294D01*
X165805Y81220D01*
X165830Y81144D01*
X165851Y81067D01*
X165869Y80990D01*
X165882Y80911D01*
X165892Y80832D01*
X165898Y80753D01*
X165900Y80673D01*
X165898Y80593D01*
X165892Y80514D01*
X165882Y80435D01*
X165869Y80356D01*
X165851Y80279D01*
X165830Y80202D01*
X165805Y80126D01*
X165776Y80052D01*
X165744Y79979D01*
X165708Y79908D01*
X165669Y79839D01*
X165626Y79771D01*
X165581Y79706D01*
X165532Y79643D01*
X165480Y79583D01*
X165425Y79525D01*
X165367Y79470D01*
X165307Y79418D01*
X165244Y79369D01*
X165179Y79324D01*
X165111Y79281D01*
X165042Y79242D01*
X164971Y79206D01*
X164898Y79174D01*
X164824Y79145D01*
X164748Y79120D01*
X164671Y79099D01*
X164594Y79081D01*
X164515Y79068D01*
X164436Y79058D01*
X164357Y79052D01*
X164277Y79050D01*
X162654Y79050D01*
X168094Y78077D02*
X168094Y80673D01*
X168096Y80753D01*
X168102Y80832D01*
X168112Y80911D01*
X168125Y80990D01*
X168143Y81067D01*
X168164Y81144D01*
X168189Y81220D01*
X168218Y81294D01*
X168250Y81367D01*
X168286Y81438D01*
X168325Y81507D01*
X168368Y81575D01*
X168413Y81640D01*
X168462Y81703D01*
X168514Y81763D01*
X168569Y81821D01*
X168627Y81876D01*
X168687Y81928D01*
X168750Y81977D01*
X168815Y82022D01*
X168883Y82065D01*
X168952Y82104D01*
X169023Y82140D01*
X169096Y82172D01*
X169170Y82201D01*
X169246Y82226D01*
X169323Y82247D01*
X169400Y82265D01*
X169479Y82278D01*
X169558Y82288D01*
X169637Y82294D01*
X169717Y82296D01*
X169797Y82294D01*
X169876Y82288D01*
X169955Y82278D01*
X170034Y82265D01*
X170111Y82247D01*
X170188Y82226D01*
X170264Y82201D01*
X170338Y82172D01*
X170411Y82140D01*
X170482Y82104D01*
X170551Y82065D01*
X170619Y82022D01*
X170684Y81977D01*
X170747Y81928D01*
X170807Y81876D01*
X170865Y81821D01*
X170920Y81763D01*
X170972Y81703D01*
X171021Y81640D01*
X171066Y81575D01*
X171109Y81507D01*
X171148Y81438D01*
X171184Y81367D01*
X171216Y81294D01*
X171245Y81220D01*
X171270Y81144D01*
X171291Y81067D01*
X171309Y80990D01*
X171322Y80911D01*
X171332Y80832D01*
X171338Y80753D01*
X171340Y80673D01*
X171339Y80673D02*
X171339Y78077D01*
X171340Y78077D02*
X171338Y77997D01*
X171332Y77918D01*
X171322Y77839D01*
X171309Y77760D01*
X171291Y77683D01*
X171270Y77606D01*
X171245Y77530D01*
X171216Y77456D01*
X171184Y77383D01*
X171148Y77312D01*
X171109Y77243D01*
X171066Y77175D01*
X171021Y77110D01*
X170972Y77047D01*
X170920Y76987D01*
X170865Y76929D01*
X170807Y76874D01*
X170747Y76822D01*
X170684Y76773D01*
X170619Y76728D01*
X170551Y76685D01*
X170482Y76646D01*
X170411Y76610D01*
X170338Y76578D01*
X170264Y76549D01*
X170188Y76524D01*
X170111Y76503D01*
X170034Y76485D01*
X169955Y76472D01*
X169876Y76462D01*
X169797Y76456D01*
X169717Y76454D01*
X169637Y76456D01*
X169558Y76462D01*
X169479Y76472D01*
X169400Y76485D01*
X169323Y76503D01*
X169246Y76524D01*
X169170Y76549D01*
X169096Y76578D01*
X169023Y76610D01*
X168952Y76646D01*
X168883Y76685D01*
X168815Y76728D01*
X168750Y76773D01*
X168687Y76822D01*
X168627Y76874D01*
X168569Y76929D01*
X168514Y76987D01*
X168462Y77047D01*
X168413Y77110D01*
X168368Y77175D01*
X168325Y77243D01*
X168286Y77312D01*
X168250Y77383D01*
X168218Y77456D01*
X168189Y77530D01*
X168164Y77606D01*
X168143Y77683D01*
X168125Y77760D01*
X168112Y77839D01*
X168102Y77918D01*
X168096Y77997D01*
X168094Y78077D01*
X173597Y82296D02*
X174895Y76454D01*
X176194Y80349D01*
X177492Y76454D01*
X178790Y82296D01*
X181250Y76454D02*
X183846Y76454D01*
X181250Y76454D02*
X181250Y82296D01*
X183846Y82296D01*
X183197Y79700D02*
X181250Y79700D01*
X186228Y82296D02*
X186228Y76454D01*
X186228Y82296D02*
X187851Y82296D01*
X187931Y82294D01*
X188010Y82288D01*
X188089Y82278D01*
X188168Y82265D01*
X188245Y82247D01*
X188322Y82226D01*
X188398Y82201D01*
X188472Y82172D01*
X188545Y82140D01*
X188616Y82104D01*
X188685Y82065D01*
X188753Y82022D01*
X188818Y81977D01*
X188881Y81928D01*
X188941Y81876D01*
X188999Y81821D01*
X189054Y81763D01*
X189106Y81703D01*
X189155Y81640D01*
X189200Y81575D01*
X189243Y81507D01*
X189282Y81438D01*
X189318Y81367D01*
X189350Y81294D01*
X189379Y81220D01*
X189404Y81144D01*
X189425Y81067D01*
X189443Y80990D01*
X189456Y80911D01*
X189466Y80832D01*
X189472Y80753D01*
X189474Y80673D01*
X189472Y80593D01*
X189466Y80514D01*
X189456Y80435D01*
X189443Y80356D01*
X189425Y80279D01*
X189404Y80202D01*
X189379Y80126D01*
X189350Y80052D01*
X189318Y79979D01*
X189282Y79908D01*
X189243Y79839D01*
X189200Y79771D01*
X189155Y79706D01*
X189106Y79643D01*
X189054Y79583D01*
X188999Y79525D01*
X188941Y79470D01*
X188881Y79418D01*
X188818Y79369D01*
X188753Y79324D01*
X188685Y79281D01*
X188616Y79242D01*
X188545Y79206D01*
X188472Y79174D01*
X188398Y79145D01*
X188322Y79120D01*
X188245Y79099D01*
X188168Y79081D01*
X188089Y79068D01*
X188010Y79058D01*
X187931Y79052D01*
X187851Y79050D01*
X186228Y79050D01*
X188175Y79050D02*
X189474Y76454D01*
D10*
X193581Y375036D02*
X199846Y375036D01*
X196714Y378168D02*
X196714Y371903D01*
X190881Y337279D02*
X190881Y327881D01*
X190881Y337279D02*
X193492Y337279D01*
X193593Y337277D01*
X193694Y337271D01*
X193795Y337261D01*
X193895Y337248D01*
X193995Y337230D01*
X194094Y337209D01*
X194192Y337183D01*
X194289Y337154D01*
X194385Y337122D01*
X194479Y337085D01*
X194572Y337045D01*
X194664Y337001D01*
X194753Y336954D01*
X194841Y336903D01*
X194927Y336849D01*
X195010Y336792D01*
X195092Y336732D01*
X195170Y336668D01*
X195247Y336602D01*
X195320Y336532D01*
X195391Y336460D01*
X195459Y336385D01*
X195524Y336307D01*
X195586Y336227D01*
X195645Y336145D01*
X195701Y336060D01*
X195753Y335973D01*
X195802Y335885D01*
X195848Y335794D01*
X195889Y335702D01*
X195928Y335608D01*
X195962Y335513D01*
X195993Y335417D01*
X196020Y335319D01*
X196044Y335221D01*
X196063Y335121D01*
X196079Y335021D01*
X196091Y334921D01*
X196099Y334820D01*
X196103Y334719D01*
X196103Y334617D01*
X196099Y334516D01*
X196091Y334415D01*
X196079Y334315D01*
X196063Y334215D01*
X196044Y334115D01*
X196020Y334017D01*
X195993Y333919D01*
X195962Y333823D01*
X195928Y333728D01*
X195889Y333634D01*
X195848Y333542D01*
X195802Y333451D01*
X195753Y333363D01*
X195701Y333276D01*
X195645Y333191D01*
X195586Y333109D01*
X195524Y333029D01*
X195459Y332951D01*
X195391Y332876D01*
X195320Y332804D01*
X195247Y332734D01*
X195170Y332668D01*
X195092Y332604D01*
X195010Y332544D01*
X194927Y332487D01*
X194841Y332433D01*
X194753Y332382D01*
X194664Y332335D01*
X194572Y332291D01*
X194479Y332251D01*
X194385Y332214D01*
X194289Y332182D01*
X194192Y332153D01*
X194094Y332127D01*
X193995Y332106D01*
X193895Y332088D01*
X193795Y332075D01*
X193694Y332065D01*
X193593Y332059D01*
X193492Y332057D01*
X193492Y332058D02*
X190881Y332058D01*
D12*
X149013Y335844D02*
X140208Y335844D01*
D10*
X53881Y343281D02*
X53881Y352679D01*
X56492Y352679D01*
X56593Y352677D01*
X56694Y352671D01*
X56795Y352661D01*
X56895Y352648D01*
X56995Y352630D01*
X57094Y352609D01*
X57192Y352583D01*
X57289Y352554D01*
X57385Y352522D01*
X57479Y352485D01*
X57572Y352445D01*
X57664Y352401D01*
X57753Y352354D01*
X57841Y352303D01*
X57927Y352249D01*
X58010Y352192D01*
X58092Y352132D01*
X58170Y352068D01*
X58247Y352002D01*
X58320Y351932D01*
X58391Y351860D01*
X58459Y351785D01*
X58524Y351707D01*
X58586Y351627D01*
X58645Y351545D01*
X58701Y351460D01*
X58753Y351373D01*
X58802Y351285D01*
X58848Y351194D01*
X58889Y351102D01*
X58928Y351008D01*
X58962Y350913D01*
X58993Y350817D01*
X59020Y350719D01*
X59044Y350621D01*
X59063Y350521D01*
X59079Y350421D01*
X59091Y350321D01*
X59099Y350220D01*
X59103Y350119D01*
X59103Y350017D01*
X59099Y349916D01*
X59091Y349815D01*
X59079Y349715D01*
X59063Y349615D01*
X59044Y349515D01*
X59020Y349417D01*
X58993Y349319D01*
X58962Y349223D01*
X58928Y349128D01*
X58889Y349034D01*
X58848Y348942D01*
X58802Y348851D01*
X58753Y348763D01*
X58701Y348676D01*
X58645Y348591D01*
X58586Y348509D01*
X58524Y348429D01*
X58459Y348351D01*
X58391Y348276D01*
X58320Y348204D01*
X58247Y348134D01*
X58170Y348068D01*
X58092Y348004D01*
X58010Y347944D01*
X57927Y347887D01*
X57841Y347833D01*
X57753Y347782D01*
X57664Y347735D01*
X57572Y347691D01*
X57479Y347651D01*
X57385Y347614D01*
X57289Y347582D01*
X57192Y347553D01*
X57094Y347527D01*
X56995Y347506D01*
X56895Y347488D01*
X56795Y347475D01*
X56694Y347465D01*
X56593Y347459D01*
X56492Y347457D01*
X56492Y347458D02*
X53881Y347458D01*
X62589Y350591D02*
X65199Y352679D01*
X65199Y343281D01*
X62589Y343281D02*
X67810Y343281D01*
D12*
X211609Y91881D02*
X211498Y91647D01*
X211392Y91409D01*
X211292Y91169D01*
X211198Y90927D01*
X211110Y90682D01*
X211028Y90436D01*
X210952Y90188D01*
X210881Y89938D01*
X210817Y89686D01*
X210758Y89433D01*
X210706Y89178D01*
X210660Y88922D01*
X210619Y88666D01*
X210585Y88408D01*
X210558Y88150D01*
X210536Y87891D01*
X210520Y87631D01*
X210511Y87372D01*
X210508Y87112D01*
X211609Y91882D02*
X211644Y91977D01*
X211682Y92072D01*
X211724Y92165D01*
X211770Y92256D01*
X211819Y92346D01*
X211871Y92434D01*
X211926Y92519D01*
X211985Y92603D01*
X212047Y92684D01*
X212111Y92763D01*
X212179Y92839D01*
X212250Y92913D01*
X212323Y92984D01*
X212399Y93052D01*
X212477Y93118D01*
X212558Y93180D01*
X212641Y93240D01*
X212726Y93296D01*
X212813Y93349D01*
X212902Y93398D01*
X212993Y93444D01*
X213086Y93487D01*
X213180Y93526D01*
X213276Y93562D01*
X213373Y93594D01*
X213471Y93623D01*
X213570Y93647D01*
X213670Y93668D01*
X213770Y93685D01*
X213871Y93699D01*
X213973Y93708D01*
X214075Y93714D01*
X214177Y93716D01*
X214279Y93714D01*
X214381Y93708D01*
X214483Y93699D01*
X214584Y93685D01*
X214684Y93668D01*
X214784Y93647D01*
X214883Y93623D01*
X214981Y93594D01*
X215078Y93562D01*
X215174Y93526D01*
X215268Y93487D01*
X215361Y93444D01*
X215452Y93398D01*
X215541Y93349D01*
X215628Y93296D01*
X215713Y93240D01*
X215796Y93180D01*
X215877Y93118D01*
X215955Y93052D01*
X216031Y92984D01*
X216104Y92913D01*
X216175Y92839D01*
X216243Y92763D01*
X216307Y92684D01*
X216369Y92603D01*
X216428Y92519D01*
X216483Y92434D01*
X216535Y92346D01*
X216584Y92256D01*
X216630Y92165D01*
X216672Y92072D01*
X216710Y91977D01*
X216745Y91882D01*
X216744Y91881D02*
X216855Y91646D01*
X216961Y91409D01*
X217061Y91169D01*
X217155Y90927D01*
X217243Y90682D01*
X217325Y90436D01*
X217401Y90188D01*
X217472Y89937D01*
X217536Y89686D01*
X217595Y89433D01*
X217647Y89178D01*
X217693Y88922D01*
X217734Y88666D01*
X217768Y88408D01*
X217795Y88150D01*
X217817Y87891D01*
X217833Y87631D01*
X217842Y87372D01*
X217845Y87112D01*
X210508Y87112D02*
X210511Y86852D01*
X210520Y86593D01*
X210536Y86333D01*
X210558Y86074D01*
X210585Y85816D01*
X210619Y85558D01*
X210660Y85302D01*
X210706Y85046D01*
X210758Y84791D01*
X210817Y84538D01*
X210881Y84287D01*
X210952Y84036D01*
X211028Y83788D01*
X211110Y83542D01*
X211198Y83297D01*
X211292Y83055D01*
X211392Y82815D01*
X211498Y82578D01*
X211609Y82343D01*
X211609Y82342D02*
X211644Y82247D01*
X211682Y82152D01*
X211724Y82059D01*
X211770Y81968D01*
X211819Y81878D01*
X211871Y81790D01*
X211926Y81705D01*
X211985Y81621D01*
X212047Y81540D01*
X212111Y81461D01*
X212179Y81385D01*
X212250Y81311D01*
X212323Y81240D01*
X212399Y81172D01*
X212477Y81106D01*
X212558Y81044D01*
X212641Y80984D01*
X212726Y80928D01*
X212813Y80875D01*
X212902Y80826D01*
X212993Y80780D01*
X213086Y80737D01*
X213180Y80698D01*
X213276Y80662D01*
X213373Y80630D01*
X213471Y80601D01*
X213570Y80577D01*
X213670Y80556D01*
X213770Y80539D01*
X213871Y80525D01*
X213973Y80516D01*
X214075Y80510D01*
X214177Y80508D01*
X216745Y82342D02*
X216856Y82577D01*
X216962Y82815D01*
X217062Y83055D01*
X217156Y83297D01*
X217244Y83541D01*
X217326Y83788D01*
X217402Y84036D01*
X217473Y84286D01*
X217537Y84538D01*
X217596Y84791D01*
X217648Y85046D01*
X217694Y85301D01*
X217735Y85558D01*
X217769Y85816D01*
X217796Y86074D01*
X217818Y86333D01*
X217834Y86592D01*
X217843Y86852D01*
X217846Y87112D01*
X216745Y82342D02*
X216710Y82247D01*
X216672Y82152D01*
X216630Y82059D01*
X216584Y81968D01*
X216535Y81878D01*
X216483Y81790D01*
X216428Y81705D01*
X216369Y81621D01*
X216307Y81540D01*
X216243Y81461D01*
X216175Y81385D01*
X216104Y81311D01*
X216031Y81240D01*
X215955Y81172D01*
X215877Y81106D01*
X215796Y81044D01*
X215713Y80984D01*
X215628Y80928D01*
X215541Y80875D01*
X215452Y80826D01*
X215361Y80780D01*
X215268Y80737D01*
X215174Y80698D01*
X215078Y80662D01*
X214981Y80630D01*
X214883Y80601D01*
X214784Y80577D01*
X214684Y80556D01*
X214584Y80539D01*
X214483Y80525D01*
X214381Y80516D01*
X214279Y80510D01*
X214177Y80508D01*
X211242Y83443D02*
X217112Y90781D01*
X210508Y120781D02*
X214177Y123716D01*
X214177Y110508D01*
X210508Y110508D02*
X217846Y110508D01*
X217846Y150414D02*
X217844Y150527D01*
X217838Y150639D01*
X217829Y150752D01*
X217815Y150864D01*
X217798Y150975D01*
X217777Y151086D01*
X217752Y151196D01*
X217724Y151305D01*
X217691Y151413D01*
X217655Y151520D01*
X217616Y151625D01*
X217573Y151730D01*
X217526Y151832D01*
X217476Y151933D01*
X217422Y152032D01*
X217365Y152130D01*
X217305Y152225D01*
X217242Y152318D01*
X217175Y152409D01*
X217105Y152498D01*
X217033Y152584D01*
X216957Y152668D01*
X216879Y152749D01*
X216798Y152827D01*
X216714Y152903D01*
X216628Y152975D01*
X216539Y153045D01*
X216448Y153112D01*
X216355Y153175D01*
X216260Y153235D01*
X216162Y153292D01*
X216063Y153346D01*
X215962Y153396D01*
X215860Y153443D01*
X215755Y153486D01*
X215650Y153525D01*
X215543Y153561D01*
X215435Y153594D01*
X215326Y153622D01*
X215216Y153647D01*
X215105Y153668D01*
X214994Y153685D01*
X214882Y153699D01*
X214769Y153708D01*
X214657Y153714D01*
X214544Y153716D01*
X214417Y153714D01*
X214290Y153708D01*
X214163Y153699D01*
X214037Y153686D01*
X213911Y153669D01*
X213786Y153648D01*
X213661Y153623D01*
X213538Y153595D01*
X213415Y153563D01*
X213293Y153527D01*
X213172Y153488D01*
X213052Y153445D01*
X212934Y153399D01*
X212817Y153349D01*
X212702Y153295D01*
X212589Y153238D01*
X212477Y153178D01*
X212367Y153115D01*
X212259Y153048D01*
X212153Y152978D01*
X212049Y152905D01*
X211947Y152828D01*
X211848Y152749D01*
X211751Y152667D01*
X211657Y152582D01*
X211565Y152494D01*
X211476Y152404D01*
X211390Y152310D01*
X211306Y152215D01*
X211226Y152117D01*
X211148Y152016D01*
X211073Y151913D01*
X211002Y151808D01*
X210934Y151701D01*
X210869Y151592D01*
X210807Y151481D01*
X210748Y151368D01*
X210693Y151254D01*
X210642Y151138D01*
X210594Y151020D01*
X210549Y150901D01*
X210508Y150781D01*
X216745Y147846D02*
X216827Y147926D01*
X216906Y148009D01*
X216983Y148095D01*
X217057Y148183D01*
X217127Y148274D01*
X217195Y148366D01*
X217260Y148461D01*
X217322Y148558D01*
X217380Y148657D01*
X217436Y148758D01*
X217488Y148860D01*
X217536Y148964D01*
X217581Y149070D01*
X217623Y149177D01*
X217662Y149285D01*
X217696Y149395D01*
X217728Y149505D01*
X217755Y149617D01*
X217779Y149729D01*
X217800Y149842D01*
X217816Y149956D01*
X217829Y150070D01*
X217839Y150184D01*
X217844Y150299D01*
X217846Y150414D01*
X216745Y147846D02*
X210508Y140508D01*
X217846Y140508D01*
X134177Y130508D02*
X130508Y130508D01*
X134177Y130508D02*
X134297Y130510D01*
X134417Y130516D01*
X134537Y130526D01*
X134656Y130539D01*
X134775Y130557D01*
X134893Y130578D01*
X135010Y130604D01*
X135127Y130633D01*
X135242Y130666D01*
X135356Y130703D01*
X135469Y130743D01*
X135581Y130787D01*
X135691Y130835D01*
X135800Y130886D01*
X135907Y130941D01*
X136012Y131000D01*
X136114Y131061D01*
X136215Y131126D01*
X136314Y131195D01*
X136411Y131266D01*
X136505Y131341D01*
X136596Y131418D01*
X136685Y131499D01*
X136771Y131583D01*
X136855Y131669D01*
X136936Y131758D01*
X137013Y131849D01*
X137088Y131943D01*
X137159Y132040D01*
X137228Y132139D01*
X137293Y132240D01*
X137354Y132343D01*
X137413Y132447D01*
X137468Y132554D01*
X137519Y132663D01*
X137567Y132773D01*
X137611Y132885D01*
X137651Y132998D01*
X137688Y133112D01*
X137721Y133227D01*
X137750Y133344D01*
X137776Y133461D01*
X137797Y133579D01*
X137815Y133698D01*
X137828Y133817D01*
X137838Y133937D01*
X137844Y134057D01*
X137846Y134177D01*
X137844Y134297D01*
X137838Y134417D01*
X137828Y134537D01*
X137815Y134656D01*
X137797Y134775D01*
X137776Y134893D01*
X137750Y135010D01*
X137721Y135127D01*
X137688Y135242D01*
X137651Y135356D01*
X137611Y135469D01*
X137567Y135581D01*
X137519Y135691D01*
X137468Y135800D01*
X137413Y135907D01*
X137354Y136012D01*
X137293Y136114D01*
X137228Y136215D01*
X137159Y136314D01*
X137088Y136411D01*
X137013Y136505D01*
X136936Y136596D01*
X136855Y136685D01*
X136771Y136771D01*
X136685Y136855D01*
X136596Y136936D01*
X136505Y137013D01*
X136411Y137088D01*
X136314Y137159D01*
X136215Y137228D01*
X136114Y137293D01*
X136011Y137354D01*
X135907Y137413D01*
X135800Y137468D01*
X135691Y137519D01*
X135581Y137567D01*
X135469Y137611D01*
X135356Y137651D01*
X135242Y137688D01*
X135127Y137721D01*
X135010Y137750D01*
X134893Y137776D01*
X134775Y137797D01*
X134656Y137815D01*
X134537Y137828D01*
X134417Y137838D01*
X134297Y137844D01*
X134177Y137846D01*
X134911Y143716D02*
X130508Y143716D01*
X134911Y143716D02*
X135018Y143714D01*
X135125Y143708D01*
X135232Y143698D01*
X135338Y143685D01*
X135444Y143667D01*
X135549Y143646D01*
X135653Y143621D01*
X135757Y143592D01*
X135859Y143559D01*
X135959Y143522D01*
X136059Y143482D01*
X136157Y143438D01*
X136253Y143391D01*
X136347Y143340D01*
X136440Y143286D01*
X136530Y143229D01*
X136619Y143168D01*
X136705Y143104D01*
X136788Y143037D01*
X136870Y142967D01*
X136948Y142894D01*
X137024Y142818D01*
X137097Y142740D01*
X137167Y142658D01*
X137234Y142575D01*
X137298Y142489D01*
X137359Y142400D01*
X137416Y142310D01*
X137470Y142217D01*
X137521Y142123D01*
X137568Y142027D01*
X137612Y141929D01*
X137652Y141829D01*
X137689Y141729D01*
X137722Y141627D01*
X137751Y141523D01*
X137776Y141419D01*
X137797Y141314D01*
X137815Y141208D01*
X137828Y141102D01*
X137838Y140995D01*
X137844Y140888D01*
X137846Y140781D01*
X137844Y140674D01*
X137838Y140567D01*
X137828Y140460D01*
X137815Y140354D01*
X137797Y140248D01*
X137776Y140143D01*
X137751Y140039D01*
X137722Y139935D01*
X137689Y139833D01*
X137652Y139733D01*
X137612Y139633D01*
X137568Y139535D01*
X137521Y139439D01*
X137470Y139345D01*
X137416Y139252D01*
X137359Y139162D01*
X137298Y139073D01*
X137234Y138987D01*
X137167Y138904D01*
X137097Y138822D01*
X137024Y138744D01*
X136948Y138668D01*
X136870Y138595D01*
X136788Y138525D01*
X136705Y138458D01*
X136619Y138394D01*
X136530Y138333D01*
X136440Y138276D01*
X136347Y138222D01*
X136253Y138171D01*
X136157Y138124D01*
X136059Y138080D01*
X135959Y138040D01*
X135859Y138003D01*
X135757Y137970D01*
X135653Y137941D01*
X135549Y137916D01*
X135444Y137895D01*
X135338Y137877D01*
X135232Y137864D01*
X135125Y137854D01*
X135018Y137848D01*
X134911Y137846D01*
X131976Y137846D01*
X142771Y131242D02*
X142771Y130508D01*
X142771Y131242D02*
X143505Y131242D01*
X143505Y130508D01*
X142771Y130508D01*
X148430Y130508D02*
X152099Y130508D01*
X152219Y130510D01*
X152339Y130516D01*
X152459Y130526D01*
X152578Y130539D01*
X152697Y130557D01*
X152815Y130578D01*
X152932Y130604D01*
X153049Y130633D01*
X153164Y130666D01*
X153278Y130703D01*
X153391Y130743D01*
X153503Y130787D01*
X153613Y130835D01*
X153722Y130886D01*
X153829Y130941D01*
X153934Y131000D01*
X154036Y131061D01*
X154137Y131126D01*
X154236Y131195D01*
X154333Y131266D01*
X154427Y131341D01*
X154518Y131418D01*
X154607Y131499D01*
X154693Y131583D01*
X154777Y131669D01*
X154858Y131758D01*
X154935Y131849D01*
X155010Y131943D01*
X155081Y132040D01*
X155150Y132139D01*
X155215Y132240D01*
X155276Y132343D01*
X155335Y132447D01*
X155390Y132554D01*
X155441Y132663D01*
X155489Y132773D01*
X155533Y132885D01*
X155573Y132998D01*
X155610Y133112D01*
X155643Y133227D01*
X155672Y133344D01*
X155698Y133461D01*
X155719Y133579D01*
X155737Y133698D01*
X155750Y133817D01*
X155760Y133937D01*
X155766Y134057D01*
X155768Y134177D01*
X155766Y134297D01*
X155760Y134417D01*
X155750Y134537D01*
X155737Y134656D01*
X155719Y134775D01*
X155698Y134893D01*
X155672Y135010D01*
X155643Y135127D01*
X155610Y135242D01*
X155573Y135356D01*
X155533Y135469D01*
X155489Y135581D01*
X155441Y135691D01*
X155390Y135800D01*
X155335Y135907D01*
X155276Y136012D01*
X155215Y136114D01*
X155150Y136215D01*
X155081Y136314D01*
X155010Y136411D01*
X154935Y136505D01*
X154858Y136596D01*
X154777Y136685D01*
X154693Y136771D01*
X154607Y136855D01*
X154518Y136936D01*
X154427Y137013D01*
X154333Y137088D01*
X154236Y137159D01*
X154137Y137228D01*
X154036Y137293D01*
X153933Y137354D01*
X153829Y137413D01*
X153722Y137468D01*
X153613Y137519D01*
X153503Y137567D01*
X153391Y137611D01*
X153278Y137651D01*
X153164Y137688D01*
X153049Y137721D01*
X152932Y137750D01*
X152815Y137776D01*
X152697Y137797D01*
X152578Y137815D01*
X152459Y137828D01*
X152339Y137838D01*
X152219Y137844D01*
X152099Y137846D01*
X152833Y143716D02*
X148430Y143716D01*
X152833Y143716D02*
X152940Y143714D01*
X153047Y143708D01*
X153154Y143698D01*
X153260Y143685D01*
X153366Y143667D01*
X153471Y143646D01*
X153575Y143621D01*
X153679Y143592D01*
X153781Y143559D01*
X153881Y143522D01*
X153981Y143482D01*
X154079Y143438D01*
X154175Y143391D01*
X154269Y143340D01*
X154362Y143286D01*
X154452Y143229D01*
X154541Y143168D01*
X154627Y143104D01*
X154710Y143037D01*
X154792Y142967D01*
X154870Y142894D01*
X154946Y142818D01*
X155019Y142740D01*
X155089Y142658D01*
X155156Y142575D01*
X155220Y142489D01*
X155281Y142400D01*
X155338Y142310D01*
X155392Y142217D01*
X155443Y142123D01*
X155490Y142027D01*
X155534Y141929D01*
X155574Y141829D01*
X155611Y141729D01*
X155644Y141627D01*
X155673Y141523D01*
X155698Y141419D01*
X155719Y141314D01*
X155737Y141208D01*
X155750Y141102D01*
X155760Y140995D01*
X155766Y140888D01*
X155768Y140781D01*
X155766Y140674D01*
X155760Y140567D01*
X155750Y140460D01*
X155737Y140354D01*
X155719Y140248D01*
X155698Y140143D01*
X155673Y140039D01*
X155644Y139935D01*
X155611Y139833D01*
X155574Y139733D01*
X155534Y139633D01*
X155490Y139535D01*
X155443Y139439D01*
X155392Y139345D01*
X155338Y139252D01*
X155281Y139162D01*
X155220Y139073D01*
X155156Y138987D01*
X155089Y138904D01*
X155019Y138822D01*
X154946Y138744D01*
X154870Y138668D01*
X154792Y138595D01*
X154710Y138525D01*
X154627Y138458D01*
X154541Y138394D01*
X154452Y138333D01*
X154362Y138276D01*
X154269Y138222D01*
X154175Y138171D01*
X154079Y138124D01*
X153981Y138080D01*
X153881Y138040D01*
X153781Y138003D01*
X153679Y137970D01*
X153575Y137941D01*
X153471Y137916D01*
X153366Y137895D01*
X153260Y137877D01*
X153154Y137864D01*
X153047Y137854D01*
X152940Y137848D01*
X152833Y137846D01*
X149898Y137846D01*
X160498Y143716D02*
X164901Y130508D01*
X169303Y143716D01*
X137846Y117846D02*
X135644Y117846D01*
X137846Y117846D02*
X137846Y110508D01*
X133443Y110508D01*
X133336Y110510D01*
X133229Y110516D01*
X133122Y110526D01*
X133016Y110539D01*
X132910Y110557D01*
X132805Y110578D01*
X132701Y110603D01*
X132597Y110632D01*
X132495Y110665D01*
X132395Y110702D01*
X132295Y110742D01*
X132197Y110786D01*
X132101Y110833D01*
X132007Y110884D01*
X131914Y110938D01*
X131824Y110995D01*
X131735Y111056D01*
X131649Y111120D01*
X131566Y111187D01*
X131484Y111257D01*
X131406Y111330D01*
X131330Y111406D01*
X131257Y111484D01*
X131187Y111566D01*
X131120Y111649D01*
X131056Y111735D01*
X130995Y111824D01*
X130938Y111914D01*
X130884Y112007D01*
X130833Y112101D01*
X130786Y112197D01*
X130742Y112295D01*
X130702Y112395D01*
X130665Y112495D01*
X130632Y112597D01*
X130603Y112701D01*
X130578Y112805D01*
X130557Y112910D01*
X130539Y113016D01*
X130526Y113122D01*
X130516Y113229D01*
X130510Y113336D01*
X130508Y113443D01*
X130508Y120781D01*
X130510Y120888D01*
X130516Y120995D01*
X130526Y121102D01*
X130539Y121208D01*
X130557Y121314D01*
X130578Y121419D01*
X130603Y121523D01*
X130632Y121627D01*
X130665Y121729D01*
X130702Y121829D01*
X130742Y121929D01*
X130786Y122027D01*
X130833Y122123D01*
X130884Y122217D01*
X130938Y122310D01*
X130995Y122400D01*
X131056Y122489D01*
X131120Y122575D01*
X131187Y122658D01*
X131257Y122740D01*
X131330Y122818D01*
X131406Y122894D01*
X131484Y122967D01*
X131566Y123037D01*
X131649Y123104D01*
X131735Y123168D01*
X131824Y123229D01*
X131914Y123286D01*
X132007Y123340D01*
X132101Y123391D01*
X132197Y123438D01*
X132295Y123482D01*
X132395Y123522D01*
X132495Y123559D01*
X132597Y123592D01*
X132701Y123621D01*
X132805Y123646D01*
X132910Y123667D01*
X133016Y123685D01*
X133122Y123698D01*
X133229Y123708D01*
X133336Y123714D01*
X133443Y123716D01*
X137846Y123716D01*
X144163Y123716D02*
X144163Y110508D01*
X151501Y110508D02*
X144163Y123716D01*
X151501Y123716D02*
X151501Y110508D01*
X157818Y110508D02*
X157818Y123716D01*
X161487Y123716D01*
X161607Y123714D01*
X161727Y123708D01*
X161847Y123698D01*
X161966Y123685D01*
X162085Y123667D01*
X162203Y123646D01*
X162320Y123620D01*
X162437Y123591D01*
X162552Y123558D01*
X162666Y123521D01*
X162779Y123481D01*
X162891Y123437D01*
X163001Y123389D01*
X163110Y123338D01*
X163217Y123283D01*
X163322Y123224D01*
X163424Y123163D01*
X163525Y123098D01*
X163624Y123029D01*
X163721Y122958D01*
X163815Y122883D01*
X163906Y122806D01*
X163995Y122725D01*
X164081Y122641D01*
X164165Y122555D01*
X164246Y122466D01*
X164323Y122375D01*
X164398Y122281D01*
X164469Y122184D01*
X164538Y122085D01*
X164603Y121984D01*
X164664Y121882D01*
X164723Y121777D01*
X164778Y121670D01*
X164829Y121561D01*
X164877Y121451D01*
X164921Y121339D01*
X164961Y121226D01*
X164998Y121112D01*
X165031Y120997D01*
X165060Y120880D01*
X165086Y120763D01*
X165107Y120645D01*
X165125Y120526D01*
X165138Y120407D01*
X165148Y120287D01*
X165154Y120167D01*
X165156Y120047D01*
X165156Y114177D01*
X165154Y114057D01*
X165148Y113937D01*
X165138Y113817D01*
X165125Y113698D01*
X165107Y113579D01*
X165086Y113461D01*
X165060Y113344D01*
X165031Y113227D01*
X164998Y113112D01*
X164961Y112998D01*
X164921Y112885D01*
X164877Y112773D01*
X164829Y112663D01*
X164778Y112554D01*
X164723Y112447D01*
X164664Y112343D01*
X164603Y112240D01*
X164538Y112139D01*
X164469Y112040D01*
X164398Y111943D01*
X164323Y111849D01*
X164246Y111758D01*
X164165Y111669D01*
X164081Y111583D01*
X163995Y111499D01*
X163906Y111418D01*
X163815Y111341D01*
X163721Y111266D01*
X163624Y111195D01*
X163525Y111126D01*
X163424Y111061D01*
X163322Y111000D01*
X163217Y110941D01*
X163110Y110886D01*
X163001Y110835D01*
X162891Y110787D01*
X162779Y110743D01*
X162666Y110703D01*
X162552Y110666D01*
X162437Y110633D01*
X162320Y110604D01*
X162203Y110578D01*
X162085Y110557D01*
X161966Y110539D01*
X161847Y110526D01*
X161727Y110516D01*
X161607Y110510D01*
X161487Y110508D01*
X157818Y110508D01*
X124911Y80508D02*
X120508Y80508D01*
X124911Y80508D02*
X125018Y80510D01*
X125125Y80516D01*
X125232Y80526D01*
X125338Y80539D01*
X125444Y80557D01*
X125549Y80578D01*
X125653Y80603D01*
X125757Y80632D01*
X125859Y80665D01*
X125959Y80702D01*
X126059Y80742D01*
X126157Y80786D01*
X126253Y80833D01*
X126347Y80884D01*
X126440Y80938D01*
X126530Y80995D01*
X126619Y81056D01*
X126705Y81120D01*
X126788Y81187D01*
X126870Y81257D01*
X126948Y81330D01*
X127024Y81406D01*
X127097Y81484D01*
X127167Y81566D01*
X127234Y81649D01*
X127298Y81735D01*
X127359Y81824D01*
X127416Y81914D01*
X127470Y82007D01*
X127521Y82101D01*
X127569Y82197D01*
X127612Y82295D01*
X127652Y82395D01*
X127689Y82495D01*
X127722Y82597D01*
X127751Y82701D01*
X127776Y82805D01*
X127797Y82910D01*
X127815Y83016D01*
X127828Y83122D01*
X127838Y83229D01*
X127844Y83336D01*
X127846Y83443D01*
X127846Y84911D01*
X127844Y85018D01*
X127838Y85125D01*
X127828Y85232D01*
X127815Y85338D01*
X127797Y85444D01*
X127776Y85549D01*
X127751Y85653D01*
X127722Y85757D01*
X127689Y85859D01*
X127652Y85959D01*
X127612Y86059D01*
X127568Y86157D01*
X127521Y86253D01*
X127470Y86347D01*
X127416Y86440D01*
X127359Y86530D01*
X127298Y86619D01*
X127234Y86705D01*
X127167Y86788D01*
X127097Y86870D01*
X127024Y86948D01*
X126948Y87024D01*
X126870Y87097D01*
X126788Y87167D01*
X126705Y87234D01*
X126619Y87298D01*
X126530Y87359D01*
X126440Y87416D01*
X126347Y87470D01*
X126253Y87521D01*
X126157Y87568D01*
X126059Y87612D01*
X125959Y87652D01*
X125859Y87689D01*
X125757Y87722D01*
X125653Y87751D01*
X125549Y87776D01*
X125444Y87797D01*
X125338Y87815D01*
X125232Y87828D01*
X125125Y87838D01*
X125018Y87844D01*
X124911Y87846D01*
X120508Y87846D01*
X120508Y93716D01*
X127846Y93716D01*
X132576Y93716D02*
X136978Y80508D01*
X141381Y93716D01*
D13*
X111600Y95250D02*
X111600Y82550D01*
X105250Y76200D01*
X92550Y76200D02*
X86200Y82550D01*
X111600Y120650D02*
X105250Y127000D01*
X111600Y120650D02*
X111600Y107950D01*
X105250Y101600D01*
X92550Y101600D02*
X86200Y107950D01*
X86200Y120650D01*
X92550Y127000D01*
X105250Y101600D02*
X111600Y95250D01*
X92550Y101600D02*
X86200Y95250D01*
X86200Y82550D01*
X111600Y158750D02*
X111600Y171450D01*
X111600Y158750D02*
X105250Y152400D01*
X92550Y152400D02*
X86200Y158750D01*
X105250Y152400D02*
X111600Y146050D01*
X111600Y133350D01*
X105250Y127000D01*
X92550Y127000D02*
X86200Y133350D01*
X86200Y146050D01*
X92550Y152400D01*
X111600Y196850D02*
X105250Y203200D01*
X111600Y196850D02*
X111600Y184150D01*
X105250Y177800D01*
X92550Y177800D02*
X86200Y184150D01*
X86200Y196850D01*
X92550Y203200D01*
X105250Y177800D02*
X111600Y171450D01*
X92550Y177800D02*
X86200Y171450D01*
X86200Y158750D01*
X111600Y234950D02*
X111600Y247650D01*
X111600Y234950D02*
X105250Y228600D01*
X92550Y228600D02*
X86200Y234950D01*
X105250Y228600D02*
X111600Y222250D01*
X111600Y209550D01*
X105250Y203200D01*
X92550Y203200D02*
X86200Y209550D01*
X86200Y222250D01*
X92550Y228600D01*
X92550Y254000D02*
X105250Y254000D01*
X111600Y247650D01*
X92550Y254000D02*
X86200Y247650D01*
X86200Y234950D01*
X92550Y76200D02*
X105250Y76200D01*
D14*
X118331Y207256D02*
X113505Y210474D01*
X113505Y207256D02*
X118331Y210474D01*
X118331Y213254D02*
X113505Y213254D01*
X118331Y212718D02*
X118331Y213790D01*
X113505Y213790D02*
X113505Y212718D01*
X113505Y217643D02*
X118331Y216035D01*
X118331Y219252D02*
X113505Y217643D01*
X117125Y218850D02*
X117125Y216437D01*
X116990Y221789D02*
X114846Y221789D01*
X114775Y221791D01*
X114703Y221797D01*
X114633Y221806D01*
X114563Y221819D01*
X114493Y221836D01*
X114425Y221857D01*
X114358Y221881D01*
X114292Y221909D01*
X114228Y221940D01*
X114165Y221975D01*
X114105Y222013D01*
X114046Y222054D01*
X113990Y222098D01*
X113936Y222145D01*
X113885Y222194D01*
X113837Y222247D01*
X113791Y222302D01*
X113749Y222359D01*
X113709Y222419D01*
X113673Y222480D01*
X113640Y222544D01*
X113611Y222609D01*
X113585Y222675D01*
X113562Y222743D01*
X113543Y222812D01*
X113528Y222882D01*
X113517Y222952D01*
X113509Y223023D01*
X113505Y223094D01*
X113505Y223166D01*
X113509Y223237D01*
X113517Y223308D01*
X113528Y223378D01*
X113543Y223448D01*
X113562Y223517D01*
X113585Y223585D01*
X113611Y223651D01*
X113640Y223716D01*
X113673Y223780D01*
X113709Y223841D01*
X113749Y223901D01*
X113791Y223958D01*
X113837Y224013D01*
X113885Y224066D01*
X113936Y224115D01*
X113990Y224162D01*
X114046Y224206D01*
X114105Y224247D01*
X114165Y224285D01*
X114228Y224320D01*
X114292Y224351D01*
X114358Y224379D01*
X114425Y224403D01*
X114493Y224424D01*
X114563Y224441D01*
X114633Y224454D01*
X114703Y224463D01*
X114775Y224469D01*
X114846Y224471D01*
X114846Y224470D02*
X116990Y224470D01*
X116990Y224471D02*
X117061Y224469D01*
X117133Y224463D01*
X117203Y224454D01*
X117273Y224441D01*
X117343Y224424D01*
X117411Y224403D01*
X117478Y224379D01*
X117544Y224351D01*
X117608Y224320D01*
X117671Y224285D01*
X117731Y224247D01*
X117790Y224206D01*
X117846Y224162D01*
X117900Y224115D01*
X117951Y224066D01*
X117999Y224013D01*
X118045Y223958D01*
X118087Y223901D01*
X118127Y223841D01*
X118163Y223780D01*
X118196Y223716D01*
X118225Y223651D01*
X118251Y223585D01*
X118274Y223517D01*
X118293Y223448D01*
X118308Y223378D01*
X118319Y223308D01*
X118327Y223237D01*
X118331Y223166D01*
X118331Y223094D01*
X118327Y223023D01*
X118319Y222952D01*
X118308Y222882D01*
X118293Y222812D01*
X118274Y222743D01*
X118251Y222675D01*
X118225Y222609D01*
X118196Y222544D01*
X118163Y222480D01*
X118127Y222419D01*
X118087Y222359D01*
X118045Y222302D01*
X117999Y222247D01*
X117951Y222194D01*
X117900Y222145D01*
X117846Y222098D01*
X117790Y222054D01*
X117731Y222013D01*
X117671Y221975D01*
X117608Y221940D01*
X117544Y221909D01*
X117478Y221881D01*
X117411Y221857D01*
X117343Y221836D01*
X117273Y221819D01*
X117203Y221806D01*
X117133Y221797D01*
X117061Y221791D01*
X116990Y221789D01*
X116454Y227373D02*
X116454Y230590D01*
X116990Y233493D02*
X116919Y233495D01*
X116847Y233501D01*
X116777Y233510D01*
X116707Y233523D01*
X116637Y233540D01*
X116569Y233561D01*
X116502Y233585D01*
X116436Y233613D01*
X116372Y233644D01*
X116309Y233679D01*
X116249Y233717D01*
X116190Y233758D01*
X116134Y233802D01*
X116080Y233849D01*
X116029Y233898D01*
X115981Y233951D01*
X115935Y234006D01*
X115893Y234063D01*
X115853Y234123D01*
X115817Y234184D01*
X115784Y234248D01*
X115755Y234313D01*
X115729Y234379D01*
X115706Y234447D01*
X115687Y234516D01*
X115672Y234586D01*
X115661Y234656D01*
X115653Y234727D01*
X115649Y234798D01*
X115649Y234870D01*
X115653Y234941D01*
X115661Y235012D01*
X115672Y235082D01*
X115687Y235152D01*
X115706Y235221D01*
X115729Y235289D01*
X115755Y235355D01*
X115784Y235420D01*
X115817Y235484D01*
X115853Y235545D01*
X115893Y235605D01*
X115935Y235662D01*
X115981Y235717D01*
X116029Y235770D01*
X116080Y235819D01*
X116134Y235866D01*
X116190Y235910D01*
X116249Y235951D01*
X116309Y235989D01*
X116372Y236024D01*
X116436Y236055D01*
X116502Y236083D01*
X116569Y236107D01*
X116637Y236128D01*
X116707Y236145D01*
X116777Y236158D01*
X116847Y236167D01*
X116919Y236173D01*
X116990Y236175D01*
X117061Y236173D01*
X117133Y236167D01*
X117203Y236158D01*
X117273Y236145D01*
X117343Y236128D01*
X117411Y236107D01*
X117478Y236083D01*
X117544Y236055D01*
X117608Y236024D01*
X117671Y235989D01*
X117731Y235951D01*
X117790Y235910D01*
X117846Y235866D01*
X117900Y235819D01*
X117951Y235770D01*
X117999Y235717D01*
X118045Y235662D01*
X118087Y235605D01*
X118127Y235545D01*
X118163Y235484D01*
X118196Y235420D01*
X118225Y235355D01*
X118251Y235289D01*
X118274Y235221D01*
X118293Y235152D01*
X118308Y235082D01*
X118319Y235012D01*
X118327Y234941D01*
X118331Y234870D01*
X118331Y234798D01*
X118327Y234727D01*
X118319Y234656D01*
X118308Y234586D01*
X118293Y234516D01*
X118274Y234447D01*
X118251Y234379D01*
X118225Y234313D01*
X118196Y234248D01*
X118163Y234184D01*
X118127Y234123D01*
X118087Y234063D01*
X118045Y234006D01*
X117999Y233951D01*
X117951Y233898D01*
X117900Y233849D01*
X117846Y233802D01*
X117790Y233758D01*
X117731Y233717D01*
X117671Y233679D01*
X117608Y233644D01*
X117544Y233613D01*
X117478Y233585D01*
X117411Y233561D01*
X117343Y233540D01*
X117273Y233523D01*
X117203Y233510D01*
X117133Y233501D01*
X117061Y233495D01*
X116990Y233493D01*
X114577Y233762D02*
X114512Y233764D01*
X114448Y233770D01*
X114384Y233780D01*
X114320Y233793D01*
X114258Y233811D01*
X114197Y233832D01*
X114137Y233856D01*
X114079Y233885D01*
X114022Y233917D01*
X113968Y233952D01*
X113916Y233990D01*
X113866Y234032D01*
X113819Y234076D01*
X113775Y234123D01*
X113733Y234173D01*
X113695Y234225D01*
X113660Y234279D01*
X113628Y234336D01*
X113599Y234394D01*
X113575Y234454D01*
X113554Y234515D01*
X113536Y234577D01*
X113523Y234641D01*
X113513Y234705D01*
X113507Y234769D01*
X113505Y234834D01*
X113507Y234899D01*
X113513Y234963D01*
X113523Y235027D01*
X113536Y235091D01*
X113554Y235153D01*
X113575Y235214D01*
X113599Y235274D01*
X113628Y235332D01*
X113660Y235389D01*
X113695Y235443D01*
X113733Y235495D01*
X113775Y235545D01*
X113819Y235592D01*
X113866Y235636D01*
X113916Y235678D01*
X113968Y235716D01*
X114022Y235751D01*
X114079Y235783D01*
X114137Y235812D01*
X114197Y235836D01*
X114258Y235857D01*
X114320Y235875D01*
X114384Y235888D01*
X114448Y235898D01*
X114512Y235904D01*
X114577Y235906D01*
X114642Y235904D01*
X114706Y235898D01*
X114770Y235888D01*
X114834Y235875D01*
X114896Y235857D01*
X114957Y235836D01*
X115017Y235812D01*
X115075Y235783D01*
X115132Y235751D01*
X115186Y235716D01*
X115238Y235678D01*
X115288Y235636D01*
X115335Y235592D01*
X115379Y235545D01*
X115421Y235495D01*
X115459Y235443D01*
X115494Y235389D01*
X115526Y235332D01*
X115555Y235274D01*
X115579Y235214D01*
X115600Y235153D01*
X115618Y235091D01*
X115631Y235027D01*
X115641Y234963D01*
X115647Y234899D01*
X115649Y234834D01*
X115647Y234769D01*
X115641Y234705D01*
X115631Y234641D01*
X115618Y234577D01*
X115600Y234515D01*
X115579Y234454D01*
X115555Y234394D01*
X115526Y234336D01*
X115494Y234279D01*
X115459Y234225D01*
X115421Y234173D01*
X115379Y234123D01*
X115335Y234076D01*
X115288Y234032D01*
X115238Y233990D01*
X115186Y233952D01*
X115132Y233917D01*
X115075Y233885D01*
X115017Y233856D01*
X114957Y233832D01*
X114896Y233811D01*
X114834Y233793D01*
X114770Y233780D01*
X114706Y233770D01*
X114642Y233764D01*
X114577Y233762D01*
X116454Y239077D02*
X116454Y242295D01*
X114577Y245198D02*
X113505Y246538D01*
X118331Y246538D01*
X118331Y245198D02*
X118331Y247879D01*
X117259Y250684D02*
X113505Y251756D01*
X117259Y250684D02*
X117259Y253365D01*
X116186Y252561D02*
X118331Y252561D01*
D13*
X236200Y247650D02*
X236200Y234950D01*
X236200Y247650D02*
X242550Y254000D01*
X255250Y254000D02*
X261600Y247650D01*
X236200Y209550D02*
X242550Y203200D01*
X236200Y209550D02*
X236200Y222250D01*
X242550Y228600D01*
X255250Y228600D02*
X261600Y222250D01*
X261600Y209550D01*
X255250Y203200D01*
X242550Y228600D02*
X236200Y234950D01*
X255250Y228600D02*
X261600Y234950D01*
X261600Y247650D01*
X236200Y171450D02*
X236200Y158750D01*
X236200Y171450D02*
X242550Y177800D01*
X255250Y177800D02*
X261600Y171450D01*
X242550Y177800D02*
X236200Y184150D01*
X236200Y196850D01*
X242550Y203200D01*
X255250Y203200D02*
X261600Y196850D01*
X261600Y184150D01*
X255250Y177800D01*
X236200Y133350D02*
X242550Y127000D01*
X236200Y133350D02*
X236200Y146050D01*
X242550Y152400D01*
X255250Y152400D02*
X261600Y146050D01*
X261600Y133350D01*
X255250Y127000D01*
X242550Y152400D02*
X236200Y158750D01*
X255250Y152400D02*
X261600Y158750D01*
X261600Y171450D01*
X236200Y95250D02*
X236200Y82550D01*
X236200Y95250D02*
X242550Y101600D01*
X255250Y101600D02*
X261600Y95250D01*
X242550Y101600D02*
X236200Y107950D01*
X236200Y120650D01*
X242550Y127000D01*
X255250Y127000D02*
X261600Y120650D01*
X261600Y107950D01*
X255250Y101600D01*
X255250Y76200D02*
X242550Y76200D01*
X236200Y82550D01*
X255250Y76200D02*
X261600Y82550D01*
X261600Y95250D01*
X255250Y254000D02*
X242550Y254000D01*
D14*
X229469Y80052D02*
X234295Y76835D01*
X234295Y80052D02*
X229469Y76835D01*
X229469Y82833D02*
X234295Y82833D01*
X234295Y82297D02*
X234295Y83369D01*
X229469Y83369D02*
X229469Y82297D01*
X229469Y87222D02*
X234295Y85613D01*
X234295Y88831D02*
X229469Y87222D01*
X233089Y88428D02*
X233089Y86015D01*
X232954Y91368D02*
X230810Y91368D01*
X230810Y91367D02*
X230739Y91369D01*
X230667Y91375D01*
X230597Y91384D01*
X230527Y91397D01*
X230457Y91414D01*
X230389Y91435D01*
X230322Y91459D01*
X230256Y91487D01*
X230192Y91518D01*
X230129Y91553D01*
X230069Y91591D01*
X230010Y91632D01*
X229954Y91676D01*
X229900Y91723D01*
X229849Y91772D01*
X229801Y91825D01*
X229755Y91880D01*
X229713Y91937D01*
X229673Y91997D01*
X229637Y92058D01*
X229604Y92122D01*
X229575Y92187D01*
X229549Y92253D01*
X229526Y92321D01*
X229507Y92390D01*
X229492Y92460D01*
X229481Y92530D01*
X229473Y92601D01*
X229469Y92672D01*
X229469Y92744D01*
X229473Y92815D01*
X229481Y92886D01*
X229492Y92956D01*
X229507Y93026D01*
X229526Y93095D01*
X229549Y93163D01*
X229575Y93229D01*
X229604Y93294D01*
X229637Y93358D01*
X229673Y93419D01*
X229713Y93479D01*
X229755Y93536D01*
X229801Y93591D01*
X229849Y93644D01*
X229900Y93693D01*
X229954Y93740D01*
X230010Y93784D01*
X230069Y93825D01*
X230129Y93863D01*
X230192Y93898D01*
X230256Y93929D01*
X230322Y93957D01*
X230389Y93981D01*
X230457Y94002D01*
X230527Y94019D01*
X230597Y94032D01*
X230667Y94041D01*
X230739Y94047D01*
X230810Y94049D01*
X232954Y94049D01*
X233025Y94047D01*
X233097Y94041D01*
X233167Y94032D01*
X233237Y94019D01*
X233307Y94002D01*
X233375Y93981D01*
X233442Y93957D01*
X233508Y93929D01*
X233572Y93898D01*
X233635Y93863D01*
X233695Y93825D01*
X233754Y93784D01*
X233810Y93740D01*
X233864Y93693D01*
X233915Y93644D01*
X233963Y93591D01*
X234009Y93536D01*
X234051Y93479D01*
X234091Y93419D01*
X234127Y93358D01*
X234160Y93294D01*
X234189Y93229D01*
X234215Y93163D01*
X234238Y93095D01*
X234257Y93026D01*
X234272Y92956D01*
X234283Y92886D01*
X234291Y92815D01*
X234295Y92744D01*
X234295Y92672D01*
X234291Y92601D01*
X234283Y92530D01*
X234272Y92460D01*
X234257Y92390D01*
X234238Y92321D01*
X234215Y92253D01*
X234189Y92187D01*
X234160Y92122D01*
X234127Y92058D01*
X234091Y91997D01*
X234051Y91937D01*
X234009Y91880D01*
X233963Y91825D01*
X233915Y91772D01*
X233864Y91723D01*
X233810Y91676D01*
X233754Y91632D01*
X233695Y91591D01*
X233635Y91553D01*
X233572Y91518D01*
X233508Y91487D01*
X233442Y91459D01*
X233375Y91435D01*
X233307Y91414D01*
X233237Y91397D01*
X233167Y91384D01*
X233097Y91375D01*
X233025Y91369D01*
X232954Y91367D01*
X232418Y96952D02*
X232418Y100169D01*
X230541Y103072D02*
X229469Y104412D01*
X234295Y104412D01*
X234295Y103072D02*
X234295Y105753D01*
X232418Y108656D02*
X232418Y111873D01*
X230005Y114776D02*
X229469Y114776D01*
X229469Y117457D01*
X234295Y116117D01*
D15*
X114515Y352218D02*
X113398Y351421D01*
X113399Y351421D02*
X113190Y351703D01*
X112974Y351980D01*
X112752Y352251D01*
X112524Y352517D01*
X112289Y352778D01*
X112048Y353033D01*
X111800Y353281D01*
X111547Y353524D01*
X111288Y353761D01*
X111024Y353991D01*
X110753Y354215D01*
X110478Y354432D01*
X110198Y354643D01*
X109912Y354847D01*
X109622Y355044D01*
X109327Y355234D01*
X109027Y355416D01*
X108723Y355592D01*
X108415Y355760D01*
X108103Y355920D01*
X107788Y356073D01*
X107468Y356218D01*
X107146Y356356D01*
X106820Y356486D01*
X106491Y356608D01*
X106159Y356722D01*
X105824Y356827D01*
X105488Y356925D01*
X105148Y357015D01*
X104807Y357096D01*
X104464Y357169D01*
X104119Y357234D01*
X103773Y357291D01*
X103426Y357339D01*
X103077Y357379D01*
X102728Y357410D01*
X102378Y357433D01*
X102027Y357448D01*
X101676Y357454D01*
X101676Y358825D01*
X101676Y358826D01*
X102061Y358819D01*
X102444Y358804D01*
X102828Y358779D01*
X103211Y358744D01*
X103592Y358701D01*
X103973Y358648D01*
X104352Y358586D01*
X104730Y358515D01*
X105106Y358435D01*
X105480Y358346D01*
X105851Y358248D01*
X106220Y358141D01*
X106586Y358025D01*
X106950Y357901D01*
X107310Y357767D01*
X107667Y357625D01*
X108021Y357474D01*
X108370Y357315D01*
X108716Y357148D01*
X109058Y356972D01*
X109395Y356788D01*
X109728Y356596D01*
X110056Y356396D01*
X110379Y356188D01*
X110697Y355972D01*
X111010Y355749D01*
X111317Y355518D01*
X111619Y355280D01*
X111915Y355035D01*
X112204Y354782D01*
X112488Y354523D01*
X112765Y354257D01*
X113036Y353984D01*
X113300Y353705D01*
X113557Y353420D01*
X113808Y353128D01*
X114051Y352831D01*
X114287Y352527D01*
X114515Y352218D01*
X114399Y352135D01*
X114172Y352441D01*
X113939Y352742D01*
X113698Y353037D01*
X113449Y353326D01*
X113195Y353608D01*
X112933Y353885D01*
X112665Y354155D01*
X112390Y354419D01*
X112109Y354676D01*
X111822Y354926D01*
X111529Y355169D01*
X111230Y355405D01*
X110925Y355634D01*
X110615Y355855D01*
X110300Y356068D01*
X109980Y356275D01*
X109655Y356473D01*
X109325Y356663D01*
X108991Y356845D01*
X108652Y357020D01*
X108310Y357186D01*
X107963Y357343D01*
X107613Y357493D01*
X107259Y357634D01*
X106902Y357766D01*
X106542Y357889D01*
X106179Y358004D01*
X105813Y358110D01*
X105445Y358207D01*
X105075Y358296D01*
X104702Y358375D01*
X104328Y358445D01*
X103952Y358507D01*
X103575Y358559D01*
X103197Y358602D01*
X102817Y358636D01*
X102438Y358661D01*
X102057Y358676D01*
X101676Y358683D01*
X101676Y358540D01*
X102054Y358533D01*
X102431Y358518D01*
X102807Y358493D01*
X103183Y358460D01*
X103558Y358417D01*
X103931Y358365D01*
X104304Y358305D01*
X104675Y358235D01*
X105044Y358156D01*
X105411Y358069D01*
X105775Y357972D01*
X106138Y357867D01*
X106497Y357753D01*
X106854Y357631D01*
X107208Y357500D01*
X107559Y357360D01*
X107906Y357213D01*
X108249Y357056D01*
X108589Y356892D01*
X108924Y356719D01*
X109255Y356538D01*
X109582Y356350D01*
X109904Y356153D01*
X110221Y355949D01*
X110534Y355737D01*
X110841Y355518D01*
X111142Y355292D01*
X111438Y355058D01*
X111729Y354817D01*
X112013Y354569D01*
X112292Y354315D01*
X112564Y354054D01*
X112830Y353786D01*
X113089Y353512D01*
X113342Y353232D01*
X113588Y352945D01*
X113826Y352653D01*
X114058Y352355D01*
X114283Y352052D01*
X114166Y351969D01*
X113944Y352270D01*
X113714Y352565D01*
X113478Y352854D01*
X113234Y353137D01*
X112984Y353415D01*
X112727Y353687D01*
X112463Y353952D01*
X112194Y354211D01*
X111918Y354463D01*
X111636Y354708D01*
X111348Y354947D01*
X111055Y355179D01*
X110756Y355403D01*
X110452Y355620D01*
X110142Y355830D01*
X109828Y356032D01*
X109509Y356227D01*
X109185Y356414D01*
X108857Y356593D01*
X108525Y356764D01*
X108188Y356927D01*
X107848Y357082D01*
X107504Y357228D01*
X107157Y357366D01*
X106806Y357496D01*
X106453Y357618D01*
X106096Y357730D01*
X105737Y357834D01*
X105376Y357930D01*
X105012Y358017D01*
X104647Y358095D01*
X104279Y358164D01*
X103911Y358224D01*
X103540Y358275D01*
X103169Y358317D01*
X102797Y358351D01*
X102424Y358375D01*
X102050Y358390D01*
X101676Y358397D01*
X101676Y358254D01*
X102047Y358248D01*
X102417Y358232D01*
X102786Y358208D01*
X103155Y358175D01*
X103523Y358133D01*
X103890Y358082D01*
X104255Y358023D01*
X104619Y357954D01*
X104981Y357877D01*
X105341Y357791D01*
X105700Y357697D01*
X106055Y357593D01*
X106408Y357482D01*
X106758Y357362D01*
X107106Y357233D01*
X107450Y357096D01*
X107790Y356951D01*
X108128Y356797D01*
X108461Y356636D01*
X108790Y356466D01*
X109115Y356289D01*
X109436Y356104D01*
X109752Y355911D01*
X110063Y355711D01*
X110370Y355503D01*
X110671Y355288D01*
X110967Y355065D01*
X111258Y354836D01*
X111543Y354600D01*
X111822Y354356D01*
X112096Y354107D01*
X112363Y353850D01*
X112624Y353587D01*
X112878Y353318D01*
X113126Y353043D01*
X113368Y352763D01*
X113602Y352476D01*
X113829Y352184D01*
X114050Y351886D01*
X113933Y351803D01*
X113715Y352098D01*
X113490Y352387D01*
X113258Y352671D01*
X113019Y352949D01*
X112773Y353222D01*
X112521Y353488D01*
X112262Y353749D01*
X111998Y354002D01*
X111727Y354250D01*
X111450Y354491D01*
X111168Y354725D01*
X110880Y354952D01*
X110587Y355173D01*
X110288Y355386D01*
X109984Y355592D01*
X109676Y355790D01*
X109363Y355981D01*
X109045Y356164D01*
X108723Y356340D01*
X108397Y356508D01*
X108067Y356668D01*
X107733Y356820D01*
X107395Y356964D01*
X107055Y357099D01*
X106711Y357227D01*
X106364Y357346D01*
X106014Y357457D01*
X105662Y357559D01*
X105307Y357652D01*
X104950Y357737D01*
X104591Y357814D01*
X104231Y357882D01*
X103869Y357941D01*
X103505Y357991D01*
X103141Y358033D01*
X102776Y358065D01*
X102410Y358089D01*
X102043Y358105D01*
X101676Y358111D01*
X101676Y357968D01*
X102040Y357962D01*
X102403Y357947D01*
X102765Y357923D01*
X103127Y357890D01*
X103488Y357849D01*
X103848Y357799D01*
X104207Y357741D01*
X104564Y357674D01*
X104919Y357598D01*
X105272Y357514D01*
X105624Y357421D01*
X105973Y357320D01*
X106319Y357210D01*
X106663Y357092D01*
X107003Y356966D01*
X107341Y356831D01*
X107675Y356689D01*
X108006Y356538D01*
X108333Y356380D01*
X108656Y356214D01*
X108975Y356040D01*
X109290Y355858D01*
X109600Y355669D01*
X109905Y355472D01*
X110206Y355268D01*
X110502Y355057D01*
X110792Y354839D01*
X111078Y354614D01*
X111357Y354382D01*
X111631Y354144D01*
X111900Y353898D01*
X112162Y353647D01*
X112418Y353389D01*
X112668Y353125D01*
X112911Y352855D01*
X113148Y352580D01*
X113378Y352298D01*
X113601Y352012D01*
X113817Y351720D01*
X113701Y351637D01*
X113487Y351926D01*
X113265Y352210D01*
X113038Y352488D01*
X112803Y352761D01*
X112562Y353029D01*
X112315Y353290D01*
X112061Y353545D01*
X111801Y353794D01*
X111536Y354037D01*
X111264Y354273D01*
X110987Y354503D01*
X110705Y354726D01*
X110417Y354942D01*
X110124Y355151D01*
X109827Y355353D01*
X109524Y355548D01*
X109217Y355735D01*
X108905Y355915D01*
X108589Y356087D01*
X108269Y356252D01*
X107945Y356409D01*
X107618Y356558D01*
X107287Y356699D01*
X106952Y356832D01*
X106615Y356957D01*
X106275Y357074D01*
X105931Y357183D01*
X105586Y357283D01*
X105238Y357375D01*
X104888Y357458D01*
X104536Y357533D01*
X104182Y357600D01*
X103827Y357658D01*
X103471Y357707D01*
X103113Y357748D01*
X102755Y357780D01*
X102396Y357804D01*
X102036Y357819D01*
X101676Y357825D01*
X101676Y357682D01*
X102033Y357676D01*
X102389Y357661D01*
X102744Y357638D01*
X103099Y357606D01*
X103453Y357565D01*
X103806Y357516D01*
X104158Y357459D01*
X104508Y357393D01*
X104857Y357319D01*
X105203Y357236D01*
X105548Y357145D01*
X105890Y357046D01*
X106230Y356938D01*
X106567Y356822D01*
X106901Y356699D01*
X107232Y356567D01*
X107560Y356427D01*
X107885Y356280D01*
X108205Y356124D01*
X108522Y355961D01*
X108835Y355790D01*
X109144Y355612D01*
X109448Y355427D01*
X109748Y355234D01*
X110043Y355034D01*
X110333Y354827D01*
X110618Y354613D01*
X110897Y354392D01*
X111172Y354165D01*
X111440Y353931D01*
X111703Y353690D01*
X111961Y353444D01*
X112212Y353191D01*
X112457Y352932D01*
X112695Y352667D01*
X112928Y352397D01*
X113153Y352121D01*
X113372Y351840D01*
X113584Y351554D01*
X113468Y351470D01*
X113258Y351754D01*
X113041Y352032D01*
X112818Y352306D01*
X112588Y352573D01*
X112351Y352835D01*
X112109Y353091D01*
X111860Y353342D01*
X111605Y353586D01*
X111345Y353824D01*
X111079Y354056D01*
X110807Y354281D01*
X110530Y354500D01*
X110248Y354712D01*
X109961Y354917D01*
X109669Y355115D01*
X109372Y355306D01*
X109071Y355489D01*
X108765Y355666D01*
X108455Y355835D01*
X108141Y355996D01*
X107824Y356150D01*
X107503Y356296D01*
X107178Y356435D01*
X106850Y356565D01*
X106519Y356688D01*
X106185Y356802D01*
X105849Y356909D01*
X105510Y357007D01*
X105169Y357097D01*
X104826Y357179D01*
X104481Y357253D01*
X104134Y357318D01*
X103785Y357375D01*
X103436Y357423D01*
X103085Y357463D01*
X102734Y357495D01*
X102382Y357518D01*
X102029Y357533D01*
X101676Y357539D01*
X101525Y358825D02*
X101525Y357453D01*
X101524Y357454D02*
X101173Y357448D01*
X100822Y357433D01*
X100472Y357410D01*
X100122Y357379D01*
X99773Y357339D01*
X99425Y357291D01*
X99079Y357234D01*
X98734Y357169D01*
X98390Y357096D01*
X98049Y357014D01*
X97709Y356924D01*
X97372Y356826D01*
X97037Y356720D01*
X96705Y356606D01*
X96376Y356484D01*
X96050Y356354D01*
X95727Y356216D01*
X95407Y356071D01*
X95091Y355917D01*
X94779Y355757D01*
X94471Y355588D01*
X94167Y355413D01*
X93867Y355230D01*
X93572Y355040D01*
X93281Y354842D01*
X92996Y354638D01*
X92715Y354427D01*
X92440Y354209D01*
X92169Y353985D01*
X91905Y353754D01*
X91646Y353517D01*
X91392Y353274D01*
X91145Y353025D01*
X90904Y352770D01*
X90669Y352509D01*
X90440Y352242D01*
X90218Y351970D01*
X90003Y351693D01*
X88905Y352516D01*
X89141Y352820D01*
X89384Y353118D01*
X89634Y353410D01*
X89892Y353696D01*
X90156Y353976D01*
X90427Y354249D01*
X90704Y354515D01*
X90988Y354775D01*
X91277Y355028D01*
X91573Y355274D01*
X91875Y355512D01*
X92182Y355743D01*
X92495Y355967D01*
X92814Y356183D01*
X93137Y356391D01*
X93465Y356592D01*
X93798Y356784D01*
X94136Y356968D01*
X94478Y357145D01*
X94824Y357312D01*
X95174Y357472D01*
X95528Y357623D01*
X95885Y357765D01*
X96246Y357899D01*
X96609Y358024D01*
X96976Y358140D01*
X97345Y358247D01*
X97717Y358345D01*
X98091Y358435D01*
X98467Y358515D01*
X98845Y358586D01*
X99225Y358648D01*
X99606Y358701D01*
X99988Y358744D01*
X100371Y358779D01*
X100755Y358804D01*
X101139Y358819D01*
X101524Y358826D01*
X101524Y358683D01*
X101143Y358676D01*
X100762Y358661D01*
X100382Y358636D01*
X100002Y358602D01*
X99623Y358559D01*
X99246Y358506D01*
X98870Y358445D01*
X98495Y358375D01*
X98122Y358295D01*
X97752Y358207D01*
X97383Y358109D01*
X97017Y358003D01*
X96654Y357888D01*
X96293Y357764D01*
X95936Y357632D01*
X95582Y357491D01*
X95231Y357341D01*
X94885Y357183D01*
X94542Y357017D01*
X94203Y356842D01*
X93868Y356660D01*
X93538Y356469D01*
X93213Y356270D01*
X92893Y356064D01*
X92577Y355850D01*
X92267Y355628D01*
X91963Y355399D01*
X91664Y355163D01*
X91370Y354919D01*
X91083Y354669D01*
X90802Y354411D01*
X90527Y354147D01*
X90259Y353876D01*
X89997Y353599D01*
X89742Y353316D01*
X89494Y353027D01*
X89253Y352731D01*
X89019Y352430D01*
X89134Y352345D01*
X89365Y352643D01*
X89604Y352935D01*
X89850Y353222D01*
X90103Y353503D01*
X90362Y353777D01*
X90628Y354046D01*
X90900Y354307D01*
X91179Y354562D01*
X91463Y354810D01*
X91754Y355052D01*
X92050Y355286D01*
X92352Y355513D01*
X92659Y355732D01*
X92972Y355945D01*
X93289Y356149D01*
X93611Y356346D01*
X93938Y356535D01*
X94270Y356716D01*
X94606Y356889D01*
X94945Y357054D01*
X95289Y357210D01*
X95636Y357358D01*
X95987Y357498D01*
X96341Y357629D01*
X96698Y357752D01*
X97059Y357866D01*
X97421Y357971D01*
X97786Y358068D01*
X98154Y358156D01*
X98523Y358234D01*
X98894Y358304D01*
X99267Y358365D01*
X99641Y358417D01*
X100016Y358460D01*
X100392Y358493D01*
X100769Y358518D01*
X101146Y358533D01*
X101524Y358540D01*
X101524Y358397D01*
X101150Y358390D01*
X100776Y358375D01*
X100403Y358351D01*
X100030Y358317D01*
X99658Y358275D01*
X99288Y358224D01*
X98918Y358163D01*
X98551Y358094D01*
X98185Y358016D01*
X97821Y357929D01*
X97459Y357834D01*
X97100Y357729D01*
X96743Y357616D01*
X96389Y357495D01*
X96038Y357365D01*
X95691Y357226D01*
X95347Y357079D01*
X95006Y356924D01*
X94670Y356761D01*
X94337Y356590D01*
X94009Y356410D01*
X93685Y356223D01*
X93365Y356028D01*
X93051Y355825D01*
X92741Y355615D01*
X92437Y355398D01*
X92138Y355173D01*
X91844Y354941D01*
X91556Y354702D01*
X91274Y354456D01*
X90998Y354203D01*
X90729Y353944D01*
X90465Y353678D01*
X90208Y353406D01*
X89958Y353128D01*
X89714Y352844D01*
X89478Y352554D01*
X89248Y352259D01*
X89363Y352173D01*
X89590Y352466D01*
X89824Y352753D01*
X90066Y353034D01*
X90314Y353310D01*
X90568Y353579D01*
X90829Y353842D01*
X91097Y354099D01*
X91370Y354349D01*
X91649Y354593D01*
X91934Y354830D01*
X92225Y355060D01*
X92522Y355283D01*
X92823Y355498D01*
X93130Y355706D01*
X93441Y355907D01*
X93758Y356100D01*
X94079Y356286D01*
X94404Y356463D01*
X94733Y356633D01*
X95067Y356795D01*
X95404Y356948D01*
X95745Y357094D01*
X96090Y357231D01*
X96437Y357360D01*
X96788Y357480D01*
X97141Y357592D01*
X97497Y357696D01*
X97855Y357790D01*
X98216Y357876D01*
X98578Y357954D01*
X98943Y358022D01*
X99309Y358082D01*
X99676Y358133D01*
X100044Y358175D01*
X100413Y358208D01*
X100783Y358232D01*
X101153Y358248D01*
X101524Y358254D01*
X101524Y358111D01*
X101157Y358105D01*
X100790Y358089D01*
X100424Y358065D01*
X100058Y358033D01*
X99693Y357991D01*
X99329Y357941D01*
X98967Y357881D01*
X98606Y357813D01*
X98247Y357737D01*
X97890Y357652D01*
X97535Y357558D01*
X97182Y357455D01*
X96832Y357345D01*
X96485Y357225D01*
X96141Y357098D01*
X95800Y356962D01*
X95462Y356818D01*
X95128Y356665D01*
X94797Y356505D01*
X94471Y356337D01*
X94149Y356161D01*
X93831Y355977D01*
X93517Y355786D01*
X93209Y355587D01*
X92905Y355381D01*
X92606Y355167D01*
X92313Y354947D01*
X92025Y354719D01*
X91742Y354484D01*
X91466Y354243D01*
X91195Y353995D01*
X90930Y353741D01*
X90671Y353480D01*
X90419Y353213D01*
X90173Y352940D01*
X89934Y352662D01*
X89702Y352377D01*
X89477Y352087D01*
X89591Y352001D01*
X89815Y352289D01*
X90045Y352570D01*
X90281Y352846D01*
X90525Y353117D01*
X90774Y353381D01*
X91031Y353639D01*
X91293Y353891D01*
X91561Y354137D01*
X91835Y354376D01*
X92115Y354608D01*
X92400Y354834D01*
X92691Y355052D01*
X92987Y355264D01*
X93288Y355468D01*
X93594Y355665D01*
X93904Y355854D01*
X94219Y356036D01*
X94538Y356211D01*
X94861Y356377D01*
X95189Y356536D01*
X95520Y356687D01*
X95854Y356829D01*
X96192Y356964D01*
X96533Y357090D01*
X96877Y357209D01*
X97224Y357318D01*
X97573Y357420D01*
X97924Y357513D01*
X98278Y357597D01*
X98634Y357673D01*
X98991Y357740D01*
X99350Y357799D01*
X99711Y357849D01*
X100072Y357890D01*
X100434Y357923D01*
X100797Y357947D01*
X101160Y357962D01*
X101524Y357968D01*
X101524Y357825D01*
X101164Y357819D01*
X100804Y357804D01*
X100445Y357780D01*
X100086Y357748D01*
X99728Y357707D01*
X99371Y357658D01*
X99016Y357600D01*
X98662Y357533D01*
X98309Y357458D01*
X97959Y357374D01*
X97611Y357282D01*
X97265Y357182D01*
X96922Y357073D01*
X96581Y356956D01*
X96243Y356831D01*
X95909Y356697D01*
X95577Y356556D01*
X95249Y356407D01*
X94925Y356249D01*
X94605Y356084D01*
X94289Y355912D01*
X93977Y355732D01*
X93670Y355544D01*
X93367Y355349D01*
X93069Y355146D01*
X92776Y354937D01*
X92488Y354721D01*
X92205Y354497D01*
X91928Y354267D01*
X91657Y354030D01*
X91391Y353787D01*
X91131Y353538D01*
X90878Y353282D01*
X90630Y353020D01*
X90389Y352752D01*
X90155Y352479D01*
X89927Y352200D01*
X89706Y351916D01*
X89820Y351830D01*
X90039Y352112D01*
X90265Y352388D01*
X90497Y352659D01*
X90736Y352924D01*
X90981Y353183D01*
X91232Y353436D01*
X91489Y353683D01*
X91752Y353924D01*
X92021Y354158D01*
X92296Y354386D01*
X92575Y354607D01*
X92861Y354822D01*
X93151Y355029D01*
X93446Y355230D01*
X93746Y355423D01*
X94050Y355609D01*
X94359Y355787D01*
X94672Y355958D01*
X94989Y356121D01*
X95310Y356277D01*
X95635Y356425D01*
X95963Y356565D01*
X96294Y356697D01*
X96629Y356821D01*
X96966Y356937D01*
X97306Y357045D01*
X97649Y357144D01*
X97994Y357235D01*
X98341Y357318D01*
X98689Y357393D01*
X99040Y357459D01*
X99392Y357516D01*
X99745Y357565D01*
X100100Y357606D01*
X100455Y357638D01*
X100811Y357661D01*
X101167Y357676D01*
X101524Y357682D01*
X101524Y357539D01*
X101171Y357533D01*
X100818Y357518D01*
X100465Y357495D01*
X100114Y357463D01*
X99763Y357423D01*
X99413Y357375D01*
X99064Y357318D01*
X98717Y357252D01*
X98372Y357179D01*
X98028Y357097D01*
X97687Y357006D01*
X97347Y356908D01*
X97011Y356801D01*
X96677Y356686D01*
X96345Y356563D01*
X96017Y356433D01*
X95692Y356294D01*
X95371Y356148D01*
X95053Y355994D01*
X94739Y355832D01*
X94429Y355662D01*
X94123Y355486D01*
X93822Y355302D01*
X93525Y355110D01*
X93233Y354912D01*
X92945Y354707D01*
X92663Y354494D01*
X92386Y354275D01*
X92114Y354050D01*
X91848Y353818D01*
X91587Y353579D01*
X91333Y353335D01*
X91084Y353084D01*
X90841Y352827D01*
X90605Y352565D01*
X90375Y352297D01*
X90151Y352023D01*
X89935Y351744D01*
X101676Y326975D02*
X101676Y328347D01*
X101676Y328346D02*
X102030Y328352D01*
X102383Y328367D01*
X102736Y328390D01*
X103088Y328422D01*
X103440Y328463D01*
X103790Y328512D01*
X104139Y328569D01*
X104487Y328635D01*
X104833Y328710D01*
X105177Y328792D01*
X105518Y328883D01*
X105858Y328983D01*
X106195Y329090D01*
X106529Y329206D01*
X106861Y329330D01*
X107189Y329462D01*
X107514Y329602D01*
X107835Y329749D01*
X108153Y329905D01*
X108467Y330068D01*
X108777Y330239D01*
X109082Y330417D01*
X109384Y330602D01*
X109680Y330795D01*
X109972Y330995D01*
X110259Y331202D01*
X110541Y331416D01*
X110817Y331637D01*
X111088Y331864D01*
X111353Y332098D01*
X111613Y332338D01*
X111867Y332584D01*
X112115Y332837D01*
X112356Y333096D01*
X112591Y333360D01*
X112820Y333630D01*
X113042Y333905D01*
X114124Y333063D01*
X114125Y333063D01*
X113882Y332761D01*
X113631Y332465D01*
X113374Y332176D01*
X113110Y331892D01*
X112838Y331616D01*
X112561Y331346D01*
X112276Y331082D01*
X111986Y330826D01*
X111689Y330577D01*
X111386Y330335D01*
X111077Y330101D01*
X110763Y329874D01*
X110444Y329655D01*
X110119Y329444D01*
X109789Y329241D01*
X109454Y329045D01*
X109115Y328858D01*
X108771Y328680D01*
X108423Y328510D01*
X108071Y328348D01*
X107715Y328195D01*
X107355Y328050D01*
X106992Y327915D01*
X106626Y327788D01*
X106257Y327670D01*
X105885Y327561D01*
X105511Y327462D01*
X105134Y327371D01*
X104755Y327290D01*
X104374Y327218D01*
X103992Y327155D01*
X103608Y327101D01*
X103223Y327057D01*
X102837Y327022D01*
X102451Y326997D01*
X102064Y326981D01*
X101676Y326974D01*
X101676Y327117D01*
X102060Y327124D01*
X102444Y327140D01*
X102827Y327165D01*
X103209Y327199D01*
X103591Y327243D01*
X103971Y327296D01*
X104350Y327358D01*
X104727Y327430D01*
X105102Y327511D01*
X105476Y327600D01*
X105847Y327699D01*
X106215Y327807D01*
X106581Y327924D01*
X106944Y328049D01*
X107304Y328184D01*
X107660Y328327D01*
X108013Y328478D01*
X108362Y328639D01*
X108707Y328807D01*
X109047Y328984D01*
X109384Y329170D01*
X109715Y329363D01*
X110042Y329565D01*
X110364Y329774D01*
X110681Y329991D01*
X110992Y330216D01*
X111298Y330448D01*
X111598Y330688D01*
X111892Y330934D01*
X112180Y331188D01*
X112462Y331449D01*
X112737Y331717D01*
X113006Y331991D01*
X113268Y332272D01*
X113523Y332559D01*
X113771Y332852D01*
X114012Y333151D01*
X113899Y333239D01*
X113660Y332942D01*
X113415Y332652D01*
X113162Y332368D01*
X112902Y332089D01*
X112636Y331818D01*
X112363Y331553D01*
X112084Y331294D01*
X111799Y331043D01*
X111507Y330798D01*
X111210Y330561D01*
X110907Y330330D01*
X110598Y330108D01*
X110284Y329893D01*
X109966Y329685D01*
X109642Y329486D01*
X109313Y329294D01*
X108980Y329111D01*
X108642Y328935D01*
X108300Y328768D01*
X107955Y328609D01*
X107605Y328459D01*
X107252Y328317D01*
X106896Y328184D01*
X106536Y328059D01*
X106174Y327944D01*
X105809Y327837D01*
X105441Y327739D01*
X105071Y327650D01*
X104699Y327570D01*
X104325Y327499D01*
X103950Y327438D01*
X103573Y327385D01*
X103195Y327342D01*
X102816Y327307D01*
X102437Y327282D01*
X102056Y327267D01*
X101676Y327260D01*
X101676Y327403D01*
X102053Y327410D01*
X102430Y327425D01*
X102806Y327450D01*
X103181Y327484D01*
X103556Y327527D01*
X103929Y327579D01*
X104301Y327640D01*
X104671Y327710D01*
X105040Y327790D01*
X105406Y327878D01*
X105770Y327975D01*
X106132Y328081D01*
X106491Y328195D01*
X106847Y328318D01*
X107201Y328450D01*
X107550Y328591D01*
X107897Y328740D01*
X108239Y328897D01*
X108578Y329063D01*
X108912Y329237D01*
X109242Y329418D01*
X109568Y329608D01*
X109889Y329806D01*
X110205Y330012D01*
X110516Y330225D01*
X110821Y330445D01*
X111122Y330673D01*
X111416Y330908D01*
X111705Y331151D01*
X111988Y331400D01*
X112264Y331656D01*
X112535Y331919D01*
X112799Y332188D01*
X113056Y332463D01*
X113306Y332745D01*
X113550Y333033D01*
X113786Y333326D01*
X113673Y333414D01*
X113439Y333123D01*
X113198Y332838D01*
X112950Y332559D01*
X112695Y332286D01*
X112433Y332020D01*
X112166Y331759D01*
X111892Y331506D01*
X111611Y331259D01*
X111325Y331019D01*
X111034Y330786D01*
X110736Y330560D01*
X110433Y330341D01*
X110125Y330130D01*
X109812Y329927D01*
X109494Y329731D01*
X109172Y329543D01*
X108845Y329363D01*
X108513Y329190D01*
X108178Y329026D01*
X107839Y328871D01*
X107496Y328723D01*
X107149Y328584D01*
X106799Y328453D01*
X106446Y328331D01*
X106091Y328217D01*
X105732Y328113D01*
X105371Y328016D01*
X105008Y327929D01*
X104643Y327851D01*
X104276Y327781D01*
X103908Y327720D01*
X103538Y327669D01*
X103167Y327626D01*
X102795Y327593D01*
X102423Y327568D01*
X102049Y327553D01*
X101676Y327546D01*
X101676Y327689D01*
X102046Y327696D01*
X102416Y327711D01*
X102785Y327735D01*
X103153Y327768D01*
X103521Y327811D01*
X103887Y327862D01*
X104252Y327922D01*
X104615Y327991D01*
X104977Y328069D01*
X105337Y328155D01*
X105694Y328250D01*
X106049Y328354D01*
X106401Y328467D01*
X106751Y328588D01*
X107097Y328717D01*
X107441Y328855D01*
X107780Y329001D01*
X108117Y329156D01*
X108449Y329318D01*
X108777Y329489D01*
X109101Y329667D01*
X109421Y329854D01*
X109736Y330048D01*
X110046Y330249D01*
X110351Y330458D01*
X110651Y330675D01*
X110945Y330898D01*
X111234Y331129D01*
X111518Y331367D01*
X111795Y331612D01*
X112067Y331863D01*
X112332Y332121D01*
X112591Y332385D01*
X112844Y332655D01*
X113089Y332932D01*
X113328Y333214D01*
X113560Y333502D01*
X113448Y333590D01*
X113218Y333304D01*
X112981Y333025D01*
X112737Y332751D01*
X112487Y332483D01*
X112231Y332222D01*
X111968Y331966D01*
X111699Y331717D01*
X111424Y331475D01*
X111144Y331240D01*
X110857Y331011D01*
X110566Y330789D01*
X110268Y330575D01*
X109966Y330368D01*
X109659Y330168D01*
X109347Y329976D01*
X109031Y329792D01*
X108710Y329615D01*
X108385Y329446D01*
X108055Y329285D01*
X107722Y329132D01*
X107386Y328987D01*
X107046Y328851D01*
X106703Y328722D01*
X106356Y328602D01*
X106007Y328491D01*
X105656Y328388D01*
X105302Y328294D01*
X104946Y328208D01*
X104587Y328131D01*
X104227Y328063D01*
X103866Y328003D01*
X103503Y327953D01*
X103139Y327911D01*
X102774Y327878D01*
X102408Y327854D01*
X102042Y327838D01*
X101676Y327832D01*
X101676Y327975D01*
X102039Y327981D01*
X102401Y327997D01*
X102764Y328020D01*
X103125Y328053D01*
X103485Y328095D01*
X103845Y328145D01*
X104203Y328204D01*
X104559Y328271D01*
X104914Y328348D01*
X105267Y328432D01*
X105618Y328526D01*
X105966Y328628D01*
X106312Y328738D01*
X106654Y328857D01*
X106994Y328984D01*
X107331Y329119D01*
X107664Y329263D01*
X107994Y329414D01*
X108320Y329573D01*
X108642Y329741D01*
X108960Y329916D01*
X109273Y330099D01*
X109582Y330289D01*
X109887Y330487D01*
X110186Y330692D01*
X110480Y330904D01*
X110769Y331124D01*
X111053Y331350D01*
X111331Y331583D01*
X111603Y331823D01*
X111869Y332070D01*
X112130Y332323D01*
X112384Y332582D01*
X112631Y332847D01*
X112872Y333118D01*
X113107Y333395D01*
X113335Y333678D01*
X113222Y333765D01*
X112996Y333485D01*
X112764Y333211D01*
X112525Y332943D01*
X112280Y332680D01*
X112028Y332424D01*
X111771Y332173D01*
X111507Y331929D01*
X111237Y331691D01*
X110962Y331461D01*
X110681Y331236D01*
X110395Y331019D01*
X110103Y330809D01*
X109807Y330606D01*
X109506Y330410D01*
X109200Y330221D01*
X108889Y330040D01*
X108575Y329867D01*
X108256Y329701D01*
X107933Y329543D01*
X107606Y329393D01*
X107276Y329251D01*
X106943Y329117D01*
X106606Y328992D01*
X106267Y328874D01*
X105924Y328765D01*
X105579Y328664D01*
X105232Y328571D01*
X104883Y328487D01*
X104531Y328412D01*
X104178Y328345D01*
X103824Y328286D01*
X103468Y328236D01*
X103111Y328195D01*
X102753Y328163D01*
X102394Y328139D01*
X102035Y328124D01*
X101676Y328118D01*
X101676Y328261D01*
X102032Y328267D01*
X102387Y328282D01*
X102742Y328306D01*
X103097Y328338D01*
X103450Y328378D01*
X103803Y328428D01*
X104154Y328485D01*
X104503Y328552D01*
X104851Y328627D01*
X105197Y328710D01*
X105541Y328802D01*
X105883Y328901D01*
X106222Y329010D01*
X106558Y329126D01*
X106891Y329251D01*
X107221Y329383D01*
X107548Y329524D01*
X107872Y329673D01*
X108191Y329829D01*
X108507Y329993D01*
X108819Y330165D01*
X109126Y330344D01*
X109429Y330530D01*
X109727Y330724D01*
X110021Y330926D01*
X110310Y331134D01*
X110593Y331349D01*
X110871Y331571D01*
X111144Y331800D01*
X111411Y332035D01*
X111672Y332277D01*
X111927Y332524D01*
X112176Y332779D01*
X112419Y333039D01*
X112656Y333304D01*
X112886Y333576D01*
X113109Y333853D01*
X89076Y333063D02*
X90159Y333906D01*
X90158Y333905D02*
X90380Y333630D01*
X90609Y333360D01*
X90844Y333096D01*
X91085Y332837D01*
X91333Y332584D01*
X91587Y332338D01*
X91847Y332098D01*
X92112Y331864D01*
X92383Y331637D01*
X92659Y331416D01*
X92941Y331202D01*
X93228Y330995D01*
X93520Y330795D01*
X93816Y330602D01*
X94118Y330417D01*
X94423Y330239D01*
X94733Y330068D01*
X95047Y329905D01*
X95365Y329749D01*
X95686Y329602D01*
X96011Y329462D01*
X96339Y329330D01*
X96671Y329206D01*
X97005Y329090D01*
X97342Y328983D01*
X97682Y328883D01*
X98023Y328792D01*
X98367Y328710D01*
X98713Y328635D01*
X99061Y328569D01*
X99410Y328512D01*
X99760Y328463D01*
X100112Y328422D01*
X100464Y328390D01*
X100817Y328367D01*
X101170Y328352D01*
X101524Y328346D01*
X101524Y326975D01*
X101524Y326974D01*
X101136Y326981D01*
X100749Y326997D01*
X100363Y327022D01*
X99977Y327057D01*
X99592Y327101D01*
X99208Y327155D01*
X98826Y327218D01*
X98445Y327290D01*
X98066Y327371D01*
X97689Y327462D01*
X97315Y327561D01*
X96943Y327670D01*
X96574Y327788D01*
X96208Y327915D01*
X95845Y328050D01*
X95485Y328195D01*
X95129Y328348D01*
X94777Y328510D01*
X94429Y328680D01*
X94085Y328858D01*
X93746Y329045D01*
X93411Y329241D01*
X93081Y329444D01*
X92756Y329655D01*
X92437Y329874D01*
X92123Y330101D01*
X91814Y330335D01*
X91511Y330577D01*
X91214Y330826D01*
X90924Y331082D01*
X90639Y331346D01*
X90362Y331616D01*
X90090Y331892D01*
X89826Y332176D01*
X89569Y332465D01*
X89318Y332761D01*
X89075Y333063D01*
X89188Y333151D01*
X89429Y332852D01*
X89677Y332559D01*
X89932Y332272D01*
X90194Y331991D01*
X90463Y331717D01*
X90738Y331449D01*
X91020Y331188D01*
X91308Y330934D01*
X91602Y330688D01*
X91902Y330448D01*
X92208Y330216D01*
X92519Y329991D01*
X92836Y329774D01*
X93158Y329565D01*
X93485Y329363D01*
X93816Y329170D01*
X94153Y328984D01*
X94493Y328807D01*
X94838Y328639D01*
X95187Y328478D01*
X95540Y328327D01*
X95896Y328184D01*
X96256Y328049D01*
X96619Y327924D01*
X96985Y327807D01*
X97353Y327699D01*
X97724Y327600D01*
X98098Y327511D01*
X98473Y327430D01*
X98850Y327358D01*
X99229Y327296D01*
X99609Y327243D01*
X99991Y327199D01*
X100373Y327165D01*
X100756Y327140D01*
X101140Y327124D01*
X101524Y327117D01*
X101524Y327260D01*
X101144Y327267D01*
X100763Y327282D01*
X100384Y327307D01*
X100005Y327342D01*
X99627Y327385D01*
X99250Y327438D01*
X98875Y327499D01*
X98501Y327570D01*
X98129Y327650D01*
X97759Y327739D01*
X97391Y327837D01*
X97026Y327944D01*
X96664Y328059D01*
X96304Y328184D01*
X95948Y328317D01*
X95595Y328459D01*
X95245Y328609D01*
X94900Y328768D01*
X94558Y328935D01*
X94220Y329111D01*
X93887Y329294D01*
X93558Y329486D01*
X93234Y329685D01*
X92916Y329893D01*
X92602Y330108D01*
X92293Y330330D01*
X91990Y330561D01*
X91693Y330798D01*
X91401Y331043D01*
X91116Y331294D01*
X90837Y331553D01*
X90564Y331818D01*
X90298Y332089D01*
X90038Y332368D01*
X89785Y332652D01*
X89540Y332942D01*
X89301Y333239D01*
X89414Y333326D01*
X89650Y333033D01*
X89894Y332745D01*
X90144Y332463D01*
X90401Y332188D01*
X90665Y331919D01*
X90936Y331656D01*
X91212Y331400D01*
X91495Y331151D01*
X91784Y330908D01*
X92078Y330673D01*
X92379Y330445D01*
X92684Y330225D01*
X92995Y330012D01*
X93311Y329806D01*
X93632Y329608D01*
X93958Y329418D01*
X94288Y329237D01*
X94622Y329063D01*
X94961Y328897D01*
X95303Y328740D01*
X95650Y328591D01*
X95999Y328450D01*
X96353Y328318D01*
X96709Y328195D01*
X97068Y328081D01*
X97430Y327975D01*
X97794Y327878D01*
X98160Y327790D01*
X98529Y327710D01*
X98899Y327640D01*
X99271Y327579D01*
X99644Y327527D01*
X100019Y327484D01*
X100394Y327450D01*
X100770Y327425D01*
X101147Y327410D01*
X101524Y327403D01*
X101524Y327546D01*
X101151Y327553D01*
X100777Y327568D01*
X100405Y327593D01*
X100033Y327626D01*
X99662Y327669D01*
X99292Y327720D01*
X98924Y327781D01*
X98557Y327851D01*
X98192Y327929D01*
X97829Y328016D01*
X97468Y328113D01*
X97109Y328217D01*
X96754Y328331D01*
X96401Y328453D01*
X96051Y328584D01*
X95704Y328723D01*
X95361Y328871D01*
X95022Y329026D01*
X94687Y329190D01*
X94355Y329363D01*
X94028Y329543D01*
X93706Y329731D01*
X93388Y329927D01*
X93075Y330130D01*
X92767Y330341D01*
X92464Y330560D01*
X92166Y330786D01*
X91875Y331019D01*
X91589Y331259D01*
X91308Y331506D01*
X91034Y331759D01*
X90767Y332020D01*
X90505Y332286D01*
X90250Y332559D01*
X90002Y332838D01*
X89761Y333123D01*
X89527Y333414D01*
X89640Y333502D01*
X89872Y333214D01*
X90111Y332932D01*
X90356Y332655D01*
X90609Y332385D01*
X90868Y332121D01*
X91133Y331863D01*
X91405Y331612D01*
X91682Y331367D01*
X91966Y331129D01*
X92255Y330898D01*
X92549Y330675D01*
X92849Y330458D01*
X93154Y330249D01*
X93464Y330048D01*
X93779Y329854D01*
X94099Y329667D01*
X94423Y329489D01*
X94751Y329318D01*
X95083Y329156D01*
X95420Y329001D01*
X95759Y328855D01*
X96103Y328717D01*
X96449Y328588D01*
X96799Y328467D01*
X97151Y328354D01*
X97506Y328250D01*
X97863Y328155D01*
X98223Y328069D01*
X98585Y327991D01*
X98948Y327922D01*
X99313Y327862D01*
X99679Y327811D01*
X100047Y327768D01*
X100415Y327735D01*
X100784Y327711D01*
X101154Y327696D01*
X101524Y327689D01*
X101524Y327832D01*
X101158Y327838D01*
X100792Y327854D01*
X100426Y327878D01*
X100061Y327911D01*
X99697Y327953D01*
X99334Y328003D01*
X98973Y328063D01*
X98613Y328131D01*
X98254Y328208D01*
X97898Y328294D01*
X97544Y328388D01*
X97193Y328491D01*
X96844Y328602D01*
X96497Y328722D01*
X96154Y328851D01*
X95814Y328987D01*
X95478Y329132D01*
X95145Y329285D01*
X94815Y329446D01*
X94490Y329615D01*
X94169Y329792D01*
X93853Y329976D01*
X93541Y330168D01*
X93234Y330368D01*
X92932Y330575D01*
X92634Y330789D01*
X92343Y331011D01*
X92056Y331240D01*
X91776Y331475D01*
X91501Y331717D01*
X91232Y331966D01*
X90969Y332222D01*
X90713Y332483D01*
X90463Y332751D01*
X90219Y333025D01*
X89982Y333304D01*
X89752Y333590D01*
X89865Y333678D01*
X90093Y333395D01*
X90328Y333118D01*
X90569Y332847D01*
X90816Y332582D01*
X91070Y332323D01*
X91331Y332070D01*
X91597Y331823D01*
X91869Y331583D01*
X92147Y331350D01*
X92431Y331124D01*
X92720Y330904D01*
X93014Y330692D01*
X93313Y330487D01*
X93618Y330289D01*
X93927Y330099D01*
X94240Y329916D01*
X94558Y329741D01*
X94880Y329573D01*
X95206Y329414D01*
X95536Y329263D01*
X95869Y329119D01*
X96206Y328984D01*
X96546Y328857D01*
X96888Y328738D01*
X97234Y328628D01*
X97582Y328526D01*
X97933Y328432D01*
X98286Y328348D01*
X98641Y328271D01*
X98997Y328204D01*
X99355Y328145D01*
X99715Y328095D01*
X100075Y328053D01*
X100436Y328020D01*
X100799Y327997D01*
X101161Y327981D01*
X101524Y327975D01*
X101524Y328118D01*
X101165Y328124D01*
X100806Y328139D01*
X100447Y328163D01*
X100089Y328195D01*
X99732Y328236D01*
X99376Y328286D01*
X99022Y328345D01*
X98669Y328412D01*
X98317Y328487D01*
X97968Y328571D01*
X97621Y328664D01*
X97276Y328765D01*
X96933Y328874D01*
X96594Y328992D01*
X96257Y329117D01*
X95924Y329251D01*
X95594Y329393D01*
X95267Y329543D01*
X94944Y329701D01*
X94625Y329867D01*
X94311Y330040D01*
X94000Y330221D01*
X93694Y330410D01*
X93393Y330606D01*
X93097Y330809D01*
X92805Y331019D01*
X92519Y331236D01*
X92238Y331461D01*
X91963Y331691D01*
X91693Y331929D01*
X91429Y332173D01*
X91172Y332424D01*
X90920Y332680D01*
X90675Y332943D01*
X90436Y333211D01*
X90204Y333485D01*
X89978Y333765D01*
X90091Y333853D01*
X90314Y333576D01*
X90544Y333304D01*
X90781Y333039D01*
X91024Y332779D01*
X91273Y332524D01*
X91528Y332277D01*
X91789Y332035D01*
X92056Y331800D01*
X92329Y331571D01*
X92607Y331349D01*
X92890Y331134D01*
X93179Y330926D01*
X93473Y330724D01*
X93771Y330530D01*
X94074Y330344D01*
X94381Y330165D01*
X94693Y329993D01*
X95009Y329829D01*
X95328Y329673D01*
X95652Y329524D01*
X95979Y329383D01*
X96309Y329251D01*
X96642Y329126D01*
X96978Y329010D01*
X97317Y328901D01*
X97659Y328802D01*
X98003Y328710D01*
X98349Y328627D01*
X98697Y328552D01*
X99046Y328485D01*
X99397Y328428D01*
X99750Y328378D01*
X100103Y328338D01*
X100458Y328306D01*
X100813Y328282D01*
X101168Y328267D01*
X101524Y328261D01*
D16*
X118006Y356738D02*
X116250Y355274D01*
X116250Y355275D02*
X115949Y355622D01*
X115640Y355962D01*
X115323Y356295D01*
X114998Y356620D01*
X114666Y356937D01*
X114326Y357246D01*
X113978Y357547D01*
X113624Y357840D01*
X113262Y358123D01*
X112894Y358398D01*
X112519Y358665D01*
X112138Y358922D01*
X111751Y359170D01*
X111359Y359408D01*
X110960Y359637D01*
X110556Y359857D01*
X110148Y360067D01*
X109734Y360267D01*
X109315Y360457D01*
X108892Y360636D01*
X108465Y360806D01*
X108034Y360965D01*
X107599Y361114D01*
X107161Y361253D01*
X106720Y361381D01*
X106275Y361498D01*
X105828Y361605D01*
X105379Y361701D01*
X104927Y361786D01*
X104474Y361860D01*
X104018Y361924D01*
X103562Y361976D01*
X103104Y362018D01*
X102646Y362048D01*
X102186Y362068D01*
X101727Y362077D01*
X101726Y364362D01*
X101727Y364363D01*
X102242Y364353D01*
X102757Y364332D01*
X103271Y364298D01*
X103784Y364252D01*
X104296Y364193D01*
X104806Y364122D01*
X105315Y364039D01*
X105821Y363944D01*
X106325Y363836D01*
X106826Y363717D01*
X107324Y363586D01*
X107819Y363442D01*
X108310Y363287D01*
X108798Y363120D01*
X109281Y362941D01*
X109760Y362751D01*
X110234Y362550D01*
X110703Y362337D01*
X111167Y362113D01*
X111626Y361878D01*
X112078Y361631D01*
X112525Y361375D01*
X112965Y361107D01*
X113399Y360829D01*
X113826Y360541D01*
X114246Y360242D01*
X114658Y359933D01*
X115064Y359615D01*
X115461Y359287D01*
X115850Y358950D01*
X116231Y358603D01*
X116604Y358247D01*
X116968Y357883D01*
X117323Y357510D01*
X117669Y357128D01*
X118006Y356738D01*
X117822Y356584D01*
X117489Y356970D01*
X117147Y357347D01*
X116795Y357716D01*
X116435Y358076D01*
X116067Y358428D01*
X115690Y358771D01*
X115305Y359104D01*
X114912Y359429D01*
X114512Y359743D01*
X114104Y360048D01*
X113689Y360344D01*
X113267Y360629D01*
X112838Y360904D01*
X112402Y361168D01*
X111961Y361422D01*
X111513Y361665D01*
X111060Y361898D01*
X110602Y362119D01*
X110138Y362330D01*
X109669Y362529D01*
X109195Y362717D01*
X108718Y362894D01*
X108236Y363059D01*
X107750Y363212D01*
X107261Y363354D01*
X106768Y363484D01*
X106273Y363602D01*
X105775Y363708D01*
X105274Y363803D01*
X104771Y363885D01*
X104267Y363955D01*
X103761Y364013D01*
X103253Y364058D01*
X102745Y364092D01*
X102236Y364113D01*
X101727Y364123D01*
X101727Y363883D01*
X102230Y363874D01*
X102733Y363852D01*
X103236Y363819D01*
X103737Y363774D01*
X104238Y363717D01*
X104736Y363647D01*
X105233Y363566D01*
X105728Y363473D01*
X106221Y363368D01*
X106710Y363251D01*
X107197Y363123D01*
X107681Y362983D01*
X108161Y362831D01*
X108637Y362668D01*
X109110Y362493D01*
X109578Y362307D01*
X110041Y362110D01*
X110500Y361902D01*
X110953Y361683D01*
X111401Y361453D01*
X111844Y361213D01*
X112280Y360962D01*
X112710Y360700D01*
X113134Y360428D01*
X113552Y360147D01*
X113962Y359855D01*
X114365Y359553D01*
X114761Y359242D01*
X115150Y358922D01*
X115530Y358592D01*
X115903Y358253D01*
X116267Y357906D01*
X116623Y357549D01*
X116970Y357185D01*
X117308Y356812D01*
X117638Y356431D01*
X117453Y356277D01*
X117128Y356654D01*
X116793Y357022D01*
X116450Y357383D01*
X116098Y357735D01*
X115738Y358078D01*
X115370Y358413D01*
X114994Y358739D01*
X114610Y359056D01*
X114219Y359363D01*
X113820Y359661D01*
X113414Y359950D01*
X113002Y360228D01*
X112583Y360497D01*
X112158Y360755D01*
X111726Y361003D01*
X111289Y361241D01*
X110846Y361468D01*
X110398Y361685D01*
X109945Y361890D01*
X109487Y362085D01*
X109024Y362269D01*
X108557Y362441D01*
X108086Y362603D01*
X107612Y362753D01*
X107134Y362891D01*
X106653Y363018D01*
X106169Y363134D01*
X105682Y363237D01*
X105193Y363330D01*
X104701Y363410D01*
X104209Y363478D01*
X103714Y363535D01*
X103218Y363580D01*
X102722Y363613D01*
X102224Y363634D01*
X101727Y363643D01*
X101727Y363403D01*
X102219Y363394D01*
X102710Y363373D01*
X103201Y363340D01*
X103691Y363296D01*
X104179Y363240D01*
X104667Y363172D01*
X105152Y363093D01*
X105635Y363002D01*
X106116Y362899D01*
X106595Y362785D01*
X107070Y362660D01*
X107543Y362523D01*
X108012Y362375D01*
X108477Y362215D01*
X108938Y362045D01*
X109396Y361863D01*
X109848Y361671D01*
X110296Y361467D01*
X110739Y361254D01*
X111177Y361029D01*
X111609Y360794D01*
X112035Y360549D01*
X112455Y360293D01*
X112870Y360028D01*
X113277Y359753D01*
X113678Y359468D01*
X114072Y359173D01*
X114459Y358869D01*
X114838Y358556D01*
X115210Y358234D01*
X115574Y357903D01*
X115930Y357564D01*
X116277Y357216D01*
X116617Y356860D01*
X116947Y356496D01*
X117269Y356123D01*
X117084Y355970D01*
X116767Y356337D01*
X116440Y356697D01*
X116105Y357049D01*
X115761Y357393D01*
X115410Y357729D01*
X115050Y358055D01*
X114683Y358374D01*
X114308Y358683D01*
X113925Y358983D01*
X113536Y359274D01*
X113140Y359556D01*
X112737Y359828D01*
X112328Y360090D01*
X111913Y360342D01*
X111491Y360585D01*
X111064Y360817D01*
X110632Y361039D01*
X110194Y361250D01*
X109752Y361451D01*
X109304Y361641D01*
X108853Y361821D01*
X108397Y361989D01*
X107937Y362147D01*
X107474Y362293D01*
X107007Y362428D01*
X106537Y362552D01*
X106064Y362665D01*
X105589Y362767D01*
X105111Y362856D01*
X104632Y362935D01*
X104150Y363002D01*
X103667Y363057D01*
X103183Y363101D01*
X102698Y363133D01*
X102213Y363154D01*
X101727Y363163D01*
X101727Y362923D01*
X102207Y362914D01*
X102687Y362893D01*
X103166Y362862D01*
X103644Y362818D01*
X104121Y362764D01*
X104597Y362697D01*
X105071Y362620D01*
X105542Y362531D01*
X106012Y362431D01*
X106479Y362319D01*
X106943Y362197D01*
X107405Y362063D01*
X107862Y361918D01*
X108317Y361763D01*
X108767Y361596D01*
X109213Y361419D01*
X109655Y361231D01*
X110093Y361033D01*
X110525Y360824D01*
X110952Y360605D01*
X111374Y360375D01*
X111790Y360136D01*
X112201Y359887D01*
X112605Y359628D01*
X113003Y359359D01*
X113394Y359081D01*
X113779Y358793D01*
X114157Y358497D01*
X114527Y358191D01*
X114890Y357877D01*
X115245Y357554D01*
X115593Y357222D01*
X115932Y356883D01*
X116263Y356535D01*
X116586Y356179D01*
X116900Y355816D01*
X116716Y355663D01*
X116405Y356021D01*
X116087Y356372D01*
X115759Y356716D01*
X115424Y357051D01*
X115081Y357379D01*
X114730Y357698D01*
X114371Y358008D01*
X114005Y358310D01*
X113632Y358603D01*
X113252Y358887D01*
X112866Y359162D01*
X112473Y359427D01*
X112073Y359683D01*
X111668Y359930D01*
X111257Y360166D01*
X110840Y360393D01*
X110418Y360609D01*
X109991Y360815D01*
X109559Y361011D01*
X109122Y361197D01*
X108681Y361372D01*
X108237Y361537D01*
X107788Y361690D01*
X107336Y361833D01*
X106880Y361965D01*
X106421Y362087D01*
X105960Y362197D01*
X105496Y362296D01*
X105030Y362383D01*
X104562Y362460D01*
X104092Y362525D01*
X103621Y362580D01*
X103148Y362622D01*
X102675Y362654D01*
X102201Y362674D01*
X101727Y362683D01*
X101727Y362443D01*
X102195Y362434D01*
X102663Y362414D01*
X103131Y362383D01*
X103597Y362341D01*
X104063Y362287D01*
X104527Y362223D01*
X104989Y362147D01*
X105450Y362060D01*
X105908Y361962D01*
X106364Y361854D01*
X106816Y361734D01*
X107266Y361603D01*
X107713Y361462D01*
X108156Y361310D01*
X108596Y361148D01*
X109031Y360975D01*
X109462Y360792D01*
X109889Y360598D01*
X110311Y360394D01*
X110728Y360180D01*
X111139Y359957D01*
X111545Y359723D01*
X111946Y359480D01*
X112340Y359227D01*
X112729Y358965D01*
X113110Y358694D01*
X113486Y358413D01*
X113854Y358124D01*
X114216Y357826D01*
X114570Y357519D01*
X114916Y357204D01*
X115256Y356881D01*
X115587Y356549D01*
X115910Y356210D01*
X116225Y355863D01*
X116531Y355509D01*
X116347Y355355D01*
X116044Y355705D01*
X115733Y356048D01*
X115414Y356383D01*
X115087Y356710D01*
X114752Y357029D01*
X114410Y357340D01*
X114060Y357643D01*
X113703Y357937D01*
X113339Y358223D01*
X112969Y358500D01*
X112591Y358768D01*
X112208Y359027D01*
X111818Y359277D01*
X111423Y359517D01*
X111022Y359747D01*
X110615Y359968D01*
X110204Y360179D01*
X109787Y360381D01*
X109366Y360572D01*
X108940Y360753D01*
X108510Y360924D01*
X108076Y361084D01*
X107638Y361234D01*
X107197Y361374D01*
X106753Y361502D01*
X106306Y361621D01*
X105856Y361728D01*
X105403Y361825D01*
X104949Y361910D01*
X104492Y361985D01*
X104034Y362049D01*
X103574Y362102D01*
X103113Y362144D01*
X102652Y362174D01*
X102189Y362194D01*
X101727Y362203D01*
X101474Y364362D02*
X101474Y362076D01*
X101473Y362077D02*
X101008Y362068D01*
X100543Y362048D01*
X100079Y362017D01*
X99616Y361974D01*
X99154Y361920D01*
X98693Y361855D01*
X98234Y361779D01*
X97777Y361692D01*
X97322Y361594D01*
X96870Y361484D01*
X96420Y361364D01*
X95974Y361233D01*
X95531Y361091D01*
X95091Y360938D01*
X94656Y360775D01*
X94224Y360601D01*
X93797Y360417D01*
X93374Y360223D01*
X92956Y360018D01*
X92543Y359803D01*
X92136Y359578D01*
X91734Y359344D01*
X91338Y359100D01*
X90948Y358846D01*
X90564Y358583D01*
X90187Y358310D01*
X89817Y358029D01*
X89453Y357739D01*
X89097Y357440D01*
X88748Y357132D01*
X88406Y356816D01*
X88072Y356492D01*
X87747Y356159D01*
X87429Y355819D01*
X87120Y355472D01*
X86819Y355117D01*
X86527Y354755D01*
X86244Y354385D01*
X85970Y354009D01*
X85705Y353627D01*
X85449Y353238D01*
X85203Y352843D01*
X84967Y352442D01*
X84740Y352036D01*
X82723Y353111D01*
X82723Y353112D01*
X82977Y353567D01*
X83241Y354017D01*
X83517Y354459D01*
X83803Y354895D01*
X84100Y355324D01*
X84406Y355746D01*
X84724Y356160D01*
X85051Y356566D01*
X85388Y356964D01*
X85734Y357353D01*
X86090Y357735D01*
X86455Y358107D01*
X86829Y358470D01*
X87211Y358825D01*
X87602Y359170D01*
X88002Y359505D01*
X88409Y359830D01*
X88824Y360146D01*
X89247Y360451D01*
X89677Y360746D01*
X90114Y361030D01*
X90558Y361304D01*
X91008Y361567D01*
X91465Y361819D01*
X91927Y362059D01*
X92396Y362289D01*
X92869Y362507D01*
X93348Y362713D01*
X93832Y362908D01*
X94320Y363090D01*
X94813Y363261D01*
X95310Y363420D01*
X95810Y363567D01*
X96314Y363702D01*
X96821Y363824D01*
X97330Y363934D01*
X97843Y364031D01*
X98357Y364116D01*
X98874Y364189D01*
X99391Y364249D01*
X99911Y364296D01*
X100431Y364331D01*
X100952Y364353D01*
X101473Y364363D01*
X101473Y364123D01*
X100958Y364113D01*
X100443Y364091D01*
X99928Y364057D01*
X99415Y364010D01*
X98903Y363951D01*
X98392Y363879D01*
X97884Y363795D01*
X97377Y363698D01*
X96873Y363590D01*
X96372Y363469D01*
X95874Y363336D01*
X95379Y363191D01*
X94888Y363033D01*
X94401Y362864D01*
X93919Y362684D01*
X93440Y362491D01*
X92967Y362287D01*
X92498Y362072D01*
X92035Y361845D01*
X91578Y361607D01*
X91127Y361358D01*
X90681Y361098D01*
X90243Y360828D01*
X89810Y360547D01*
X89385Y360255D01*
X88967Y359953D01*
X88557Y359641D01*
X88154Y359319D01*
X87759Y358988D01*
X87373Y358647D01*
X86994Y358297D01*
X86625Y357937D01*
X86264Y357569D01*
X85912Y357192D01*
X85569Y356807D01*
X85236Y356413D01*
X84913Y356012D01*
X84599Y355603D01*
X84296Y355186D01*
X84003Y354762D01*
X83720Y354331D01*
X83447Y353893D01*
X83186Y353449D01*
X82935Y352999D01*
X83146Y352886D01*
X83394Y353331D01*
X83653Y353770D01*
X83922Y354203D01*
X84202Y354629D01*
X84492Y355048D01*
X84792Y355460D01*
X85102Y355864D01*
X85422Y356261D01*
X85751Y356650D01*
X86090Y357031D01*
X86438Y357404D01*
X86794Y357768D01*
X87160Y358123D01*
X87534Y358469D01*
X87916Y358806D01*
X88306Y359134D01*
X88705Y359452D01*
X89110Y359760D01*
X89524Y360059D01*
X89944Y360347D01*
X90371Y360625D01*
X90805Y360893D01*
X91245Y361149D01*
X91691Y361396D01*
X92143Y361631D01*
X92601Y361855D01*
X93064Y362068D01*
X93532Y362270D01*
X94005Y362460D01*
X94482Y362639D01*
X94964Y362806D01*
X95449Y362961D01*
X95938Y363104D01*
X96431Y363236D01*
X96926Y363356D01*
X97424Y363463D01*
X97925Y363558D01*
X98428Y363642D01*
X98932Y363713D01*
X99439Y363771D01*
X99946Y363818D01*
X100455Y363852D01*
X100964Y363873D01*
X101473Y363883D01*
X101473Y363643D01*
X100970Y363633D01*
X100466Y363612D01*
X99964Y363578D01*
X99462Y363532D01*
X98962Y363474D01*
X98463Y363404D01*
X97966Y363322D01*
X97471Y363228D01*
X96979Y363121D01*
X96489Y363003D01*
X96002Y362873D01*
X95519Y362731D01*
X95039Y362578D01*
X94563Y362413D01*
X94091Y362236D01*
X93624Y362048D01*
X93162Y361849D01*
X92704Y361638D01*
X92251Y361416D01*
X91805Y361184D01*
X91363Y360941D01*
X90928Y360687D01*
X90500Y360422D01*
X90077Y360148D01*
X89662Y359863D01*
X89254Y359568D01*
X88852Y359263D01*
X88459Y358949D01*
X88073Y358625D01*
X87695Y358292D01*
X87325Y357949D01*
X86964Y357598D01*
X86612Y357238D01*
X86268Y356870D01*
X85933Y356494D01*
X85608Y356109D01*
X85292Y355717D01*
X84985Y355317D01*
X84689Y354910D01*
X84402Y354496D01*
X84125Y354075D01*
X83859Y353647D01*
X83603Y353213D01*
X83358Y352773D01*
X83570Y352660D01*
X83812Y353095D01*
X84065Y353524D01*
X84328Y353946D01*
X84602Y354363D01*
X84885Y354772D01*
X85178Y355174D01*
X85481Y355569D01*
X85793Y355957D01*
X86115Y356337D01*
X86446Y356709D01*
X86786Y357073D01*
X87134Y357429D01*
X87491Y357776D01*
X87856Y358114D01*
X88230Y358443D01*
X88611Y358763D01*
X89000Y359074D01*
X89397Y359375D01*
X89800Y359666D01*
X90211Y359948D01*
X90628Y360220D01*
X91052Y360481D01*
X91482Y360732D01*
X91918Y360972D01*
X92359Y361202D01*
X92807Y361421D01*
X93259Y361629D01*
X93716Y361826D01*
X94178Y362012D01*
X94644Y362187D01*
X95114Y362350D01*
X95589Y362502D01*
X96066Y362642D01*
X96547Y362770D01*
X97031Y362887D01*
X97518Y362992D01*
X98007Y363086D01*
X98498Y363167D01*
X98991Y363236D01*
X99486Y363294D01*
X99981Y363339D01*
X100478Y363372D01*
X100976Y363393D01*
X101473Y363403D01*
X101473Y363163D01*
X100982Y363154D01*
X100490Y363133D01*
X99999Y363100D01*
X99509Y363055D01*
X99021Y362998D01*
X98533Y362929D01*
X98048Y362849D01*
X97565Y362757D01*
X97084Y362653D01*
X96606Y362538D01*
X96130Y362411D01*
X95658Y362272D01*
X95190Y362122D01*
X94725Y361961D01*
X94264Y361788D01*
X93808Y361604D01*
X93356Y361410D01*
X92909Y361204D01*
X92467Y360988D01*
X92031Y360761D01*
X91600Y360523D01*
X91175Y360275D01*
X90757Y360017D01*
X90344Y359749D01*
X89939Y359470D01*
X89540Y359182D01*
X89148Y358885D01*
X88764Y358578D01*
X88387Y358261D01*
X88018Y357936D01*
X87657Y357602D01*
X87304Y357259D01*
X86959Y356908D01*
X86624Y356548D01*
X86297Y356180D01*
X85979Y355805D01*
X85670Y355422D01*
X85371Y355032D01*
X85081Y354634D01*
X84801Y354229D01*
X84531Y353818D01*
X84271Y353401D01*
X84021Y352977D01*
X83782Y352547D01*
X83994Y352434D01*
X84230Y352859D01*
X84477Y353277D01*
X84734Y353690D01*
X85001Y354096D01*
X85278Y354496D01*
X85564Y354889D01*
X85860Y355274D01*
X86165Y355653D01*
X86479Y356024D01*
X86802Y356387D01*
X87133Y356742D01*
X87474Y357089D01*
X87822Y357428D01*
X88179Y357758D01*
X88544Y358080D01*
X88916Y358392D01*
X89296Y358696D01*
X89683Y358990D01*
X90077Y359274D01*
X90478Y359549D01*
X90885Y359814D01*
X91299Y360069D01*
X91719Y360314D01*
X92144Y360549D01*
X92575Y360773D01*
X93012Y360987D01*
X93454Y361190D01*
X93900Y361383D01*
X94351Y361564D01*
X94806Y361735D01*
X95265Y361894D01*
X95728Y362042D01*
X96194Y362179D01*
X96664Y362305D01*
X97137Y362419D01*
X97612Y362522D01*
X98089Y362613D01*
X98569Y362692D01*
X99050Y362760D01*
X99533Y362816D01*
X100017Y362860D01*
X100502Y362893D01*
X100987Y362914D01*
X101473Y362923D01*
X101473Y362683D01*
X100993Y362674D01*
X100514Y362653D01*
X100035Y362621D01*
X99556Y362577D01*
X99079Y362522D01*
X98604Y362455D01*
X98130Y362376D01*
X97659Y362286D01*
X97189Y362185D01*
X96722Y362072D01*
X96259Y361948D01*
X95798Y361813D01*
X95341Y361666D01*
X94887Y361509D01*
X94437Y361340D01*
X93992Y361161D01*
X93551Y360971D01*
X93115Y360770D01*
X92683Y360559D01*
X92257Y360337D01*
X91837Y360106D01*
X91422Y359864D01*
X91014Y359611D01*
X90611Y359350D01*
X90215Y359078D01*
X89826Y358797D01*
X89443Y358506D01*
X89068Y358207D01*
X88700Y357898D01*
X88340Y357581D01*
X87988Y357254D01*
X87644Y356920D01*
X87307Y356577D01*
X86980Y356226D01*
X86661Y355867D01*
X86350Y355501D01*
X86049Y355127D01*
X85757Y354746D01*
X85474Y354358D01*
X85201Y353963D01*
X84937Y353562D01*
X84683Y353154D01*
X84439Y352741D01*
X84205Y352321D01*
X84417Y352208D01*
X84648Y352622D01*
X84889Y353031D01*
X85140Y353434D01*
X85400Y353830D01*
X85670Y354220D01*
X85950Y354603D01*
X86238Y354979D01*
X86536Y355349D01*
X86842Y355711D01*
X87158Y356065D01*
X87481Y356412D01*
X87813Y356750D01*
X88154Y357081D01*
X88502Y357403D01*
X88857Y357717D01*
X89221Y358021D01*
X89591Y358317D01*
X89969Y358604D01*
X90353Y358882D01*
X90745Y359150D01*
X91142Y359409D01*
X91546Y359658D01*
X91955Y359897D01*
X92371Y360126D01*
X92791Y360345D01*
X93217Y360553D01*
X93648Y360752D01*
X94084Y360939D01*
X94524Y361117D01*
X94968Y361283D01*
X95416Y361438D01*
X95868Y361583D01*
X96323Y361717D01*
X96781Y361839D01*
X97242Y361951D01*
X97705Y362051D01*
X98171Y362140D01*
X98639Y362217D01*
X99109Y362283D01*
X99580Y362338D01*
X100052Y362382D01*
X100525Y362413D01*
X100999Y362434D01*
X101473Y362443D01*
X101473Y362203D01*
X101005Y362194D01*
X100537Y362174D01*
X100070Y362142D01*
X99603Y362099D01*
X99138Y362045D01*
X98674Y361980D01*
X98212Y361903D01*
X97752Y361815D01*
X97294Y361716D01*
X96839Y361606D01*
X96387Y361485D01*
X95937Y361353D01*
X95491Y361211D01*
X95049Y361057D01*
X94610Y360893D01*
X94176Y360718D01*
X93746Y360532D01*
X93320Y360337D01*
X92899Y360130D01*
X92484Y359914D01*
X92074Y359688D01*
X91669Y359452D01*
X91271Y359206D01*
X90878Y358951D01*
X90492Y358686D01*
X90112Y358412D01*
X89739Y358128D01*
X89373Y357836D01*
X89014Y357535D01*
X88663Y357225D01*
X88319Y356907D01*
X87983Y356581D01*
X87655Y356246D01*
X87336Y355904D01*
X87024Y355554D01*
X86721Y355197D01*
X86428Y354832D01*
X86142Y354460D01*
X85867Y354082D01*
X85600Y353697D01*
X85343Y353305D01*
X85095Y352908D01*
X84857Y352504D01*
X84629Y352095D01*
X101726Y321438D02*
X101726Y323724D01*
X101727Y323723D02*
X102195Y323732D01*
X102663Y323753D01*
X103131Y323784D01*
X103598Y323827D01*
X104063Y323882D01*
X104527Y323948D01*
X104989Y324025D01*
X105449Y324113D01*
X105907Y324213D01*
X106363Y324324D01*
X106815Y324446D01*
X107264Y324579D01*
X107710Y324723D01*
X108153Y324877D01*
X108591Y325043D01*
X109025Y325219D01*
X109455Y325406D01*
X109880Y325603D01*
X110300Y325810D01*
X110715Y326028D01*
X111125Y326256D01*
X111529Y326493D01*
X111927Y326741D01*
X112318Y326998D01*
X112704Y327265D01*
X113083Y327541D01*
X113454Y327826D01*
X113819Y328120D01*
X114177Y328423D01*
X114527Y328735D01*
X114869Y329055D01*
X115203Y329383D01*
X115529Y329719D01*
X115847Y330064D01*
X116157Y330416D01*
X117901Y328939D01*
X117902Y328939D01*
X117555Y328544D01*
X117199Y328158D01*
X116834Y327781D01*
X116459Y327412D01*
X116076Y327053D01*
X115683Y326704D01*
X115283Y326364D01*
X114874Y326034D01*
X114457Y325714D01*
X114033Y325405D01*
X113601Y325106D01*
X113162Y324817D01*
X112716Y324540D01*
X112263Y324273D01*
X111804Y324018D01*
X111339Y323774D01*
X110868Y323541D01*
X110391Y323320D01*
X109909Y323111D01*
X109422Y322913D01*
X108931Y322728D01*
X108435Y322554D01*
X107935Y322393D01*
X107431Y322244D01*
X106924Y322108D01*
X106413Y321984D01*
X105900Y321872D01*
X105384Y321773D01*
X104866Y321687D01*
X104346Y321613D01*
X103824Y321553D01*
X103301Y321505D01*
X102777Y321469D01*
X102252Y321447D01*
X101727Y321437D01*
X101727Y321677D01*
X102246Y321687D01*
X102765Y321709D01*
X103283Y321744D01*
X103800Y321791D01*
X104316Y321852D01*
X104830Y321924D01*
X105343Y322010D01*
X105853Y322107D01*
X106360Y322218D01*
X106865Y322340D01*
X107367Y322475D01*
X107865Y322623D01*
X108359Y322782D01*
X108849Y322953D01*
X109335Y323137D01*
X109816Y323332D01*
X110293Y323539D01*
X110764Y323757D01*
X111230Y323987D01*
X111690Y324229D01*
X112143Y324481D01*
X112591Y324745D01*
X113032Y325019D01*
X113466Y325304D01*
X113893Y325600D01*
X114313Y325906D01*
X114725Y326222D01*
X115129Y326548D01*
X115525Y326884D01*
X115913Y327230D01*
X116292Y327585D01*
X116662Y327949D01*
X117024Y328322D01*
X117376Y328704D01*
X117719Y329094D01*
X117535Y329249D01*
X117197Y328863D01*
X116849Y328486D01*
X116491Y328117D01*
X116125Y327757D01*
X115750Y327406D01*
X115367Y327065D01*
X114975Y326733D01*
X114576Y326410D01*
X114169Y326098D01*
X113754Y325795D01*
X113332Y325503D01*
X112902Y325221D01*
X112466Y324950D01*
X112024Y324689D01*
X111575Y324440D01*
X111121Y324201D01*
X110660Y323974D01*
X110195Y323758D01*
X109724Y323553D01*
X109248Y323360D01*
X108767Y323179D01*
X108283Y323010D01*
X107794Y322852D01*
X107302Y322707D01*
X106806Y322573D01*
X106307Y322452D01*
X105805Y322343D01*
X105301Y322246D01*
X104795Y322162D01*
X104286Y322090D01*
X103776Y322030D01*
X103265Y321983D01*
X102753Y321949D01*
X102240Y321927D01*
X101727Y321917D01*
X101727Y322157D01*
X102234Y322167D01*
X102741Y322188D01*
X103247Y322223D01*
X103753Y322269D01*
X104257Y322328D01*
X104759Y322399D01*
X105260Y322482D01*
X105758Y322578D01*
X106254Y322686D01*
X106747Y322806D01*
X107237Y322938D01*
X107724Y323082D01*
X108207Y323237D01*
X108686Y323405D01*
X109161Y323584D01*
X109631Y323775D01*
X110096Y323977D01*
X110557Y324190D01*
X111012Y324415D01*
X111461Y324651D01*
X111905Y324898D01*
X112342Y325155D01*
X112773Y325423D01*
X113197Y325702D01*
X113614Y325990D01*
X114024Y326289D01*
X114427Y326598D01*
X114822Y326917D01*
X115209Y327245D01*
X115588Y327583D01*
X115958Y327930D01*
X116320Y328285D01*
X116673Y328650D01*
X117017Y329023D01*
X117352Y329404D01*
X117169Y329559D01*
X116838Y329182D01*
X116498Y328814D01*
X116149Y328454D01*
X115791Y328102D01*
X115425Y327759D01*
X115051Y327426D01*
X114668Y327101D01*
X114278Y326786D01*
X113880Y326481D01*
X113475Y326186D01*
X113062Y325900D01*
X112643Y325625D01*
X112217Y325360D01*
X111785Y325106D01*
X111347Y324862D01*
X110903Y324629D01*
X110453Y324407D01*
X109998Y324196D01*
X109538Y323996D01*
X109073Y323808D01*
X108604Y323630D01*
X108131Y323465D01*
X107653Y323311D01*
X107172Y323169D01*
X106688Y323038D01*
X106201Y322920D01*
X105711Y322813D01*
X105218Y322719D01*
X104724Y322636D01*
X104227Y322566D01*
X103729Y322508D01*
X103229Y322462D01*
X102729Y322428D01*
X102228Y322407D01*
X101727Y322397D01*
X101727Y322637D01*
X102222Y322647D01*
X102717Y322668D01*
X103212Y322701D01*
X103705Y322747D01*
X104197Y322804D01*
X104688Y322874D01*
X105177Y322955D01*
X105663Y323049D01*
X106148Y323154D01*
X106629Y323271D01*
X107108Y323400D01*
X107583Y323540D01*
X108055Y323693D01*
X108522Y323856D01*
X108986Y324031D01*
X109445Y324217D01*
X109900Y324415D01*
X110349Y324623D01*
X110794Y324843D01*
X111232Y325073D01*
X111666Y325314D01*
X112093Y325565D01*
X112513Y325827D01*
X112928Y326099D01*
X113335Y326381D01*
X113736Y326673D01*
X114129Y326975D01*
X114514Y327286D01*
X114892Y327606D01*
X115262Y327936D01*
X115624Y328274D01*
X115978Y328622D01*
X116323Y328978D01*
X116659Y329342D01*
X116986Y329714D01*
X116803Y329869D01*
X116479Y329501D01*
X116147Y329142D01*
X115807Y328790D01*
X115457Y328447D01*
X115100Y328112D01*
X114734Y327787D01*
X114361Y327470D01*
X113980Y327163D01*
X113591Y326865D01*
X113196Y326576D01*
X112793Y326298D01*
X112384Y326029D01*
X111968Y325770D01*
X111546Y325522D01*
X111118Y325284D01*
X110685Y325057D01*
X110246Y324840D01*
X109801Y324634D01*
X109352Y324439D01*
X108899Y324255D01*
X108441Y324082D01*
X107979Y323920D01*
X107513Y323770D01*
X107043Y323631D01*
X106570Y323504D01*
X106095Y323388D01*
X105616Y323284D01*
X105135Y323192D01*
X104652Y323111D01*
X104168Y323042D01*
X103681Y322985D01*
X103194Y322941D01*
X102705Y322908D01*
X102216Y322886D01*
X101727Y322877D01*
X101727Y323117D01*
X102210Y323126D01*
X102693Y323147D01*
X103176Y323180D01*
X103658Y323224D01*
X104138Y323280D01*
X104617Y323348D01*
X105094Y323428D01*
X105569Y323519D01*
X106041Y323622D01*
X106511Y323736D01*
X106978Y323862D01*
X107442Y323999D01*
X107902Y324148D01*
X108359Y324307D01*
X108811Y324478D01*
X109260Y324660D01*
X109703Y324853D01*
X110142Y325056D01*
X110576Y325270D01*
X111004Y325495D01*
X111427Y325730D01*
X111843Y325975D01*
X112254Y326231D01*
X112658Y326496D01*
X113056Y326772D01*
X113447Y327056D01*
X113831Y327351D01*
X114207Y327654D01*
X114576Y327967D01*
X114937Y328289D01*
X115290Y328619D01*
X115635Y328958D01*
X115972Y329305D01*
X116300Y329661D01*
X116619Y330024D01*
X116436Y330179D01*
X116121Y329820D01*
X115797Y329469D01*
X115464Y329126D01*
X115123Y328792D01*
X114775Y328465D01*
X114418Y328148D01*
X114053Y327839D01*
X113682Y327539D01*
X113303Y327248D01*
X112917Y326967D01*
X112524Y326695D01*
X112124Y326433D01*
X111719Y326181D01*
X111307Y325938D01*
X110890Y325706D01*
X110467Y325484D01*
X110038Y325273D01*
X109605Y325072D01*
X109167Y324881D01*
X108724Y324702D01*
X108277Y324533D01*
X107826Y324375D01*
X107372Y324229D01*
X106914Y324093D01*
X106452Y323969D01*
X105988Y323856D01*
X105521Y323754D01*
X105052Y323664D01*
X104581Y323586D01*
X104108Y323519D01*
X103634Y323463D01*
X103158Y323419D01*
X102681Y323387D01*
X102204Y323366D01*
X101727Y323357D01*
X101727Y323597D01*
X102198Y323606D01*
X102670Y323627D01*
X103140Y323659D01*
X103610Y323702D01*
X104079Y323757D01*
X104546Y323823D01*
X105011Y323901D01*
X105474Y323990D01*
X105935Y324090D01*
X106393Y324202D01*
X106849Y324324D01*
X107301Y324458D01*
X107750Y324603D01*
X108196Y324759D01*
X108637Y324925D01*
X109074Y325103D01*
X109507Y325291D01*
X109935Y325489D01*
X110358Y325698D01*
X110775Y325917D01*
X111188Y326146D01*
X111594Y326386D01*
X111995Y326635D01*
X112389Y326894D01*
X112777Y327162D01*
X113158Y327440D01*
X113533Y327727D01*
X113900Y328023D01*
X114260Y328328D01*
X114612Y328642D01*
X114957Y328964D01*
X115293Y329295D01*
X115621Y329633D01*
X115941Y329980D01*
X116253Y330334D01*
X83028Y332141D02*
X85013Y333276D01*
X85012Y333275D02*
X85250Y332877D01*
X85496Y332485D01*
X85753Y332100D01*
X86018Y331720D01*
X86292Y331347D01*
X86576Y330981D01*
X86868Y330622D01*
X87169Y330270D01*
X87478Y329925D01*
X87795Y329588D01*
X88121Y329258D01*
X88454Y328937D01*
X88795Y328623D01*
X89144Y328318D01*
X89499Y328022D01*
X89862Y327734D01*
X90232Y327455D01*
X90608Y327185D01*
X90991Y326924D01*
X91380Y326673D01*
X91774Y326431D01*
X92175Y326198D01*
X92581Y325976D01*
X92992Y325763D01*
X93409Y325560D01*
X93830Y325367D01*
X94255Y325185D01*
X94685Y325013D01*
X95119Y324851D01*
X95557Y324700D01*
X95998Y324559D01*
X96443Y324429D01*
X96890Y324310D01*
X97340Y324202D01*
X97793Y324104D01*
X98248Y324018D01*
X98705Y323943D01*
X99164Y323878D01*
X99624Y323825D01*
X100085Y323783D01*
X100547Y323752D01*
X101010Y323732D01*
X101473Y323723D01*
X101473Y321438D01*
X101473Y321437D01*
X100954Y321447D01*
X100435Y321469D01*
X99917Y321503D01*
X99400Y321550D01*
X98885Y321609D01*
X98371Y321681D01*
X97859Y321765D01*
X97349Y321862D01*
X96841Y321971D01*
X96337Y322092D01*
X95835Y322225D01*
X95337Y322371D01*
X94842Y322528D01*
X94352Y322698D01*
X93865Y322879D01*
X93383Y323072D01*
X92906Y323276D01*
X92435Y323492D01*
X91968Y323719D01*
X91507Y323958D01*
X91052Y324207D01*
X90603Y324468D01*
X90161Y324739D01*
X89725Y325021D01*
X89296Y325313D01*
X88874Y325616D01*
X88460Y325929D01*
X88054Y326251D01*
X87655Y326584D01*
X87264Y326926D01*
X86882Y327277D01*
X86509Y327637D01*
X86144Y328007D01*
X85789Y328385D01*
X85442Y328771D01*
X85105Y329166D01*
X84778Y329569D01*
X84461Y329979D01*
X84153Y330398D01*
X83856Y330823D01*
X83569Y331256D01*
X83293Y331695D01*
X83028Y332141D01*
X83236Y332260D01*
X83498Y331819D01*
X83772Y331385D01*
X84055Y330957D01*
X84349Y330536D01*
X84653Y330123D01*
X84967Y329717D01*
X85291Y329319D01*
X85624Y328928D01*
X85966Y328546D01*
X86318Y328173D01*
X86678Y327807D01*
X87047Y327451D01*
X87425Y327104D01*
X87811Y326766D01*
X88205Y326437D01*
X88607Y326118D01*
X89017Y325809D01*
X89434Y325510D01*
X89858Y325221D01*
X90289Y324942D01*
X90726Y324674D01*
X91170Y324416D01*
X91620Y324170D01*
X92075Y323934D01*
X92537Y323709D01*
X93003Y323496D01*
X93475Y323293D01*
X93951Y323103D01*
X94432Y322924D01*
X94917Y322756D01*
X95406Y322601D01*
X95899Y322457D01*
X96395Y322325D01*
X96894Y322205D01*
X97395Y322097D01*
X97900Y322002D01*
X98406Y321919D01*
X98914Y321848D01*
X99424Y321789D01*
X99935Y321742D01*
X100447Y321708D01*
X100960Y321687D01*
X101473Y321677D01*
X101473Y321917D01*
X100965Y321927D01*
X100459Y321948D01*
X99952Y321982D01*
X99447Y322028D01*
X98943Y322086D01*
X98441Y322156D01*
X97940Y322238D01*
X97442Y322333D01*
X96946Y322439D01*
X96453Y322558D01*
X95963Y322688D01*
X95476Y322830D01*
X94992Y322984D01*
X94513Y323150D01*
X94037Y323327D01*
X93567Y323515D01*
X93100Y323715D01*
X92639Y323926D01*
X92183Y324148D01*
X91732Y324381D01*
X91288Y324625D01*
X90849Y324880D01*
X90416Y325145D01*
X89991Y325421D01*
X89571Y325706D01*
X89159Y326002D01*
X88754Y326308D01*
X88357Y326623D01*
X87968Y326948D01*
X87586Y327282D01*
X87212Y327625D01*
X86847Y327978D01*
X86491Y328339D01*
X86143Y328708D01*
X85805Y329086D01*
X85476Y329472D01*
X85156Y329865D01*
X84845Y330267D01*
X84545Y330675D01*
X84254Y331091D01*
X83974Y331514D01*
X83704Y331943D01*
X83444Y332379D01*
X83653Y332498D01*
X83909Y332067D01*
X84176Y331643D01*
X84453Y331225D01*
X84741Y330814D01*
X85038Y330410D01*
X85344Y330014D01*
X85661Y329624D01*
X85986Y329243D01*
X86321Y328870D01*
X86664Y328505D01*
X87017Y328148D01*
X87377Y327800D01*
X87747Y327460D01*
X88124Y327130D01*
X88509Y326809D01*
X88902Y326497D01*
X89302Y326195D01*
X89709Y325903D01*
X90123Y325620D01*
X90544Y325348D01*
X90972Y325086D01*
X91406Y324834D01*
X91845Y324593D01*
X92291Y324363D01*
X92741Y324143D01*
X93197Y323935D01*
X93658Y323737D01*
X94124Y323551D01*
X94593Y323376D01*
X95067Y323212D01*
X95545Y323060D01*
X96026Y322920D01*
X96511Y322791D01*
X96999Y322674D01*
X97489Y322568D01*
X97981Y322475D01*
X98476Y322393D01*
X98973Y322324D01*
X99471Y322266D01*
X99970Y322221D01*
X100470Y322188D01*
X100971Y322167D01*
X101473Y322157D01*
X101473Y322397D01*
X100977Y322406D01*
X100482Y322427D01*
X99988Y322460D01*
X99494Y322505D01*
X99002Y322562D01*
X98511Y322631D01*
X98022Y322711D01*
X97535Y322804D01*
X97051Y322908D01*
X96569Y323024D01*
X96090Y323151D01*
X95615Y323290D01*
X95142Y323440D01*
X94674Y323602D01*
X94210Y323775D01*
X93750Y323959D01*
X93294Y324154D01*
X92844Y324360D01*
X92398Y324577D01*
X91958Y324805D01*
X91524Y325043D01*
X91095Y325292D01*
X90672Y325551D01*
X90256Y325820D01*
X89847Y326099D01*
X89444Y326388D01*
X89049Y326687D01*
X88661Y326995D01*
X88280Y327312D01*
X87907Y327639D01*
X87543Y327974D01*
X87186Y328318D01*
X86838Y328671D01*
X86498Y329031D01*
X86167Y329400D01*
X85846Y329777D01*
X85533Y330162D01*
X85230Y330554D01*
X84936Y330953D01*
X84653Y331359D01*
X84379Y331772D01*
X84115Y332191D01*
X83861Y332617D01*
X84069Y332736D01*
X84320Y332316D01*
X84581Y331901D01*
X84852Y331493D01*
X85132Y331092D01*
X85422Y330697D01*
X85722Y330310D01*
X86031Y329930D01*
X86349Y329558D01*
X86675Y329193D01*
X87011Y328837D01*
X87355Y328488D01*
X87708Y328148D01*
X88068Y327817D01*
X88436Y327494D01*
X88813Y327181D01*
X89196Y326876D01*
X89587Y326581D01*
X89985Y326296D01*
X90389Y326020D01*
X90800Y325754D01*
X91218Y325498D01*
X91641Y325252D01*
X92071Y325017D01*
X92506Y324792D01*
X92946Y324578D01*
X93391Y324374D01*
X93841Y324181D01*
X94296Y323999D01*
X94755Y323828D01*
X95217Y323668D01*
X95684Y323520D01*
X96154Y323382D01*
X96627Y323256D01*
X97103Y323142D01*
X97582Y323039D01*
X98063Y322948D01*
X98546Y322868D01*
X99031Y322800D01*
X99518Y322744D01*
X100005Y322700D01*
X100494Y322667D01*
X100983Y322646D01*
X101473Y322637D01*
X101473Y322877D01*
X100989Y322886D01*
X100506Y322907D01*
X100023Y322939D01*
X99541Y322983D01*
X99060Y323039D01*
X98581Y323106D01*
X98104Y323184D01*
X97629Y323275D01*
X97156Y323376D01*
X96685Y323489D01*
X96218Y323614D01*
X95753Y323749D01*
X95292Y323896D01*
X94835Y324054D01*
X94382Y324223D01*
X93933Y324403D01*
X93488Y324593D01*
X93048Y324795D01*
X92613Y325007D01*
X92184Y325229D01*
X91759Y325461D01*
X91341Y325704D01*
X90928Y325957D01*
X90522Y326220D01*
X90122Y326492D01*
X89729Y326774D01*
X89343Y327066D01*
X88964Y327367D01*
X88593Y327676D01*
X88229Y327995D01*
X87873Y328322D01*
X87524Y328658D01*
X87184Y329003D01*
X86853Y329355D01*
X86530Y329715D01*
X86216Y330083D01*
X85911Y330458D01*
X85615Y330841D01*
X85328Y331231D01*
X85051Y331627D01*
X84783Y332030D01*
X84526Y332440D01*
X84278Y332855D01*
X84486Y332974D01*
X84731Y332564D01*
X84986Y332159D01*
X85250Y331761D01*
X85524Y331370D01*
X85807Y330985D01*
X86099Y330607D01*
X86401Y330236D01*
X86711Y329872D01*
X87030Y329517D01*
X87358Y329169D01*
X87694Y328829D01*
X88038Y328497D01*
X88389Y328173D01*
X88749Y327859D01*
X89116Y327553D01*
X89491Y327255D01*
X89872Y326968D01*
X90260Y326689D01*
X90655Y326420D01*
X91056Y326160D01*
X91464Y325910D01*
X91877Y325671D01*
X92296Y325441D01*
X92721Y325221D01*
X93150Y325012D01*
X93585Y324813D01*
X94024Y324625D01*
X94468Y324447D01*
X94916Y324280D01*
X95367Y324124D01*
X95823Y323979D01*
X96282Y323845D01*
X96743Y323722D01*
X97208Y323610D01*
X97675Y323510D01*
X98145Y323421D01*
X98616Y323343D01*
X99090Y323277D01*
X99564Y323222D01*
X100040Y323178D01*
X100517Y323147D01*
X100995Y323126D01*
X101473Y323117D01*
X101473Y323357D01*
X101001Y323366D01*
X100529Y323386D01*
X100058Y323418D01*
X99588Y323461D01*
X99119Y323515D01*
X98651Y323581D01*
X98186Y323657D01*
X97722Y323745D01*
X97260Y323845D01*
X96802Y323955D01*
X96345Y324076D01*
X95892Y324209D01*
X95442Y324352D01*
X94996Y324506D01*
X94554Y324671D01*
X94116Y324846D01*
X93682Y325032D01*
X93253Y325229D01*
X92828Y325436D01*
X92409Y325653D01*
X91995Y325880D01*
X91587Y326116D01*
X91184Y326363D01*
X90788Y326620D01*
X90398Y326885D01*
X90014Y327161D01*
X89638Y327445D01*
X89268Y327738D01*
X88905Y328041D01*
X88550Y328352D01*
X88203Y328671D01*
X87863Y328999D01*
X87531Y329335D01*
X87208Y329678D01*
X86892Y330030D01*
X86586Y330389D01*
X86288Y330755D01*
X85999Y331128D01*
X85719Y331508D01*
X85449Y331895D01*
X85188Y332289D01*
X84936Y332688D01*
X84695Y333093D01*
X84903Y333213D01*
X85142Y332812D01*
X85390Y332418D01*
X85648Y332029D01*
X85915Y331647D01*
X86191Y331272D01*
X86477Y330903D01*
X86771Y330541D01*
X87074Y330187D01*
X87385Y329840D01*
X87704Y329501D01*
X88032Y329169D01*
X88368Y328845D01*
X88711Y328530D01*
X89062Y328223D01*
X89420Y327924D01*
X89785Y327635D01*
X90157Y327354D01*
X90536Y327082D01*
X90921Y326819D01*
X91312Y326566D01*
X91710Y326323D01*
X92113Y326089D01*
X92522Y325864D01*
X92936Y325650D01*
X93355Y325446D01*
X93779Y325252D01*
X94207Y325068D01*
X94640Y324895D01*
X95077Y324732D01*
X95517Y324580D01*
X95962Y324439D01*
X96409Y324308D01*
X96860Y324188D01*
X97313Y324079D01*
X97769Y323981D01*
X98227Y323894D01*
X98687Y323818D01*
X99148Y323753D01*
X99611Y323700D01*
X100076Y323657D01*
X100541Y323626D01*
X101006Y323606D01*
X101473Y323597D01*
D14*
X83058Y360172D02*
X75692Y360172D01*
X79248Y363982D02*
X79248Y356108D01*
X121285Y358775D02*
X121285Y347345D01*
X126365Y347345D01*
X131191Y347345D02*
X136271Y347345D01*
X131191Y347345D02*
X131191Y358775D01*
X136271Y358775D01*
X135001Y353695D02*
X131191Y353695D01*
X141072Y358775D02*
X141072Y347345D01*
X141072Y358775D02*
X144247Y358775D01*
X144358Y358773D01*
X144468Y358767D01*
X144579Y358758D01*
X144689Y358744D01*
X144798Y358727D01*
X144907Y358706D01*
X145015Y358681D01*
X145122Y358652D01*
X145228Y358620D01*
X145333Y358584D01*
X145436Y358544D01*
X145538Y358501D01*
X145639Y358454D01*
X145738Y358403D01*
X145835Y358350D01*
X145929Y358293D01*
X146022Y358232D01*
X146113Y358169D01*
X146202Y358102D01*
X146288Y358032D01*
X146371Y357959D01*
X146453Y357884D01*
X146531Y357806D01*
X146606Y357724D01*
X146679Y357641D01*
X146749Y357555D01*
X146816Y357466D01*
X146879Y357375D01*
X146940Y357282D01*
X146997Y357188D01*
X147050Y357091D01*
X147101Y356992D01*
X147148Y356891D01*
X147191Y356789D01*
X147231Y356686D01*
X147267Y356581D01*
X147299Y356475D01*
X147328Y356368D01*
X147353Y356260D01*
X147374Y356151D01*
X147391Y356042D01*
X147405Y355932D01*
X147414Y355821D01*
X147420Y355711D01*
X147422Y355600D01*
X147422Y350520D01*
X147420Y350409D01*
X147414Y350299D01*
X147405Y350188D01*
X147391Y350078D01*
X147374Y349969D01*
X147353Y349860D01*
X147328Y349752D01*
X147299Y349645D01*
X147267Y349539D01*
X147231Y349434D01*
X147191Y349331D01*
X147148Y349229D01*
X147101Y349128D01*
X147050Y349029D01*
X146997Y348932D01*
X146940Y348838D01*
X146879Y348745D01*
X146816Y348654D01*
X146749Y348565D01*
X146679Y348479D01*
X146606Y348396D01*
X146531Y348314D01*
X146453Y348236D01*
X146371Y348161D01*
X146288Y348088D01*
X146202Y348018D01*
X146113Y347951D01*
X146022Y347888D01*
X145929Y347827D01*
X145834Y347770D01*
X145738Y347717D01*
X145639Y347666D01*
X145538Y347619D01*
X145436Y347576D01*
X145333Y347536D01*
X145228Y347500D01*
X145122Y347468D01*
X145015Y347439D01*
X144907Y347414D01*
X144798Y347393D01*
X144689Y347376D01*
X144579Y347362D01*
X144468Y347353D01*
X144358Y347347D01*
X144247Y347345D01*
X141072Y347345D01*
X152883Y356235D02*
X156058Y358775D01*
X156058Y347345D01*
X152883Y347345D02*
X159233Y347345D01*
D13*
X139700Y591820D02*
X190500Y591820D01*
X190500Y584200D01*
X190500Y576580D01*
X139700Y576580D01*
X139700Y584200D01*
X139700Y591820D01*
X190500Y584200D02*
X193040Y584200D01*
X139700Y584200D02*
X137160Y584200D01*
D14*
X161048Y594995D02*
X161048Y599821D01*
X162389Y599821D01*
X162460Y599819D01*
X162532Y599813D01*
X162602Y599804D01*
X162672Y599791D01*
X162742Y599774D01*
X162810Y599753D01*
X162877Y599729D01*
X162943Y599701D01*
X163007Y599670D01*
X163070Y599635D01*
X163130Y599597D01*
X163189Y599556D01*
X163245Y599512D01*
X163299Y599465D01*
X163350Y599416D01*
X163398Y599363D01*
X163444Y599308D01*
X163486Y599251D01*
X163526Y599191D01*
X163562Y599130D01*
X163595Y599066D01*
X163624Y599001D01*
X163650Y598935D01*
X163673Y598867D01*
X163692Y598798D01*
X163707Y598728D01*
X163718Y598658D01*
X163726Y598587D01*
X163730Y598516D01*
X163730Y598444D01*
X163726Y598373D01*
X163718Y598302D01*
X163707Y598232D01*
X163692Y598162D01*
X163673Y598093D01*
X163650Y598025D01*
X163624Y597959D01*
X163595Y597894D01*
X163562Y597830D01*
X163526Y597769D01*
X163486Y597709D01*
X163444Y597652D01*
X163398Y597597D01*
X163350Y597544D01*
X163299Y597495D01*
X163245Y597448D01*
X163189Y597404D01*
X163130Y597363D01*
X163070Y597325D01*
X163007Y597290D01*
X162943Y597259D01*
X162877Y597231D01*
X162810Y597207D01*
X162742Y597186D01*
X162672Y597169D01*
X162602Y597156D01*
X162532Y597147D01*
X162460Y597141D01*
X162389Y597139D01*
X162389Y597140D02*
X161048Y597140D01*
X162657Y597140D02*
X163729Y594995D01*
X166471Y598749D02*
X167811Y599821D01*
X167811Y594995D01*
X166471Y594995D02*
X169152Y594995D01*
D13*
X190500Y515620D02*
X139700Y515620D01*
X190500Y515620D02*
X190500Y508000D01*
X190500Y500380D01*
X139700Y500380D01*
X139700Y508000D01*
X139700Y515620D01*
X190500Y508000D02*
X193040Y508000D01*
X139700Y508000D02*
X137160Y508000D01*
D14*
X161048Y518795D02*
X161048Y523621D01*
X162389Y523621D01*
X162460Y523619D01*
X162532Y523613D01*
X162602Y523604D01*
X162672Y523591D01*
X162742Y523574D01*
X162810Y523553D01*
X162877Y523529D01*
X162943Y523501D01*
X163007Y523470D01*
X163070Y523435D01*
X163130Y523397D01*
X163189Y523356D01*
X163245Y523312D01*
X163299Y523265D01*
X163350Y523216D01*
X163398Y523163D01*
X163444Y523108D01*
X163486Y523051D01*
X163526Y522991D01*
X163562Y522930D01*
X163595Y522866D01*
X163624Y522801D01*
X163650Y522735D01*
X163673Y522667D01*
X163692Y522598D01*
X163707Y522528D01*
X163718Y522458D01*
X163726Y522387D01*
X163730Y522316D01*
X163730Y522244D01*
X163726Y522173D01*
X163718Y522102D01*
X163707Y522032D01*
X163692Y521962D01*
X163673Y521893D01*
X163650Y521825D01*
X163624Y521759D01*
X163595Y521694D01*
X163562Y521630D01*
X163526Y521569D01*
X163486Y521509D01*
X163444Y521452D01*
X163398Y521397D01*
X163350Y521344D01*
X163299Y521295D01*
X163245Y521248D01*
X163189Y521204D01*
X163130Y521163D01*
X163070Y521125D01*
X163007Y521090D01*
X162943Y521059D01*
X162877Y521031D01*
X162810Y521007D01*
X162742Y520986D01*
X162672Y520969D01*
X162602Y520956D01*
X162532Y520947D01*
X162460Y520941D01*
X162389Y520939D01*
X162389Y520940D02*
X161048Y520940D01*
X162657Y520940D02*
X163729Y518795D01*
X166471Y519867D02*
X167543Y523621D01*
X166471Y519867D02*
X169152Y519867D01*
X168348Y520940D02*
X168348Y518795D01*
D13*
X219710Y373380D02*
X262890Y373380D01*
X262890Y312420D02*
X219710Y312420D01*
X271780Y332740D02*
X271780Y352880D01*
X210820Y353180D02*
X210820Y332740D01*
X223520Y342900D02*
X223525Y343336D01*
X223541Y343772D01*
X223568Y344208D01*
X223606Y344643D01*
X223654Y345076D01*
X223712Y345509D01*
X223782Y345940D01*
X223862Y346369D01*
X223952Y346796D01*
X224053Y347220D01*
X224164Y347642D01*
X224286Y348061D01*
X224417Y348477D01*
X224559Y348890D01*
X224711Y349299D01*
X224873Y349704D01*
X225045Y350105D01*
X225227Y350502D01*
X225418Y350894D01*
X225619Y351281D01*
X225830Y351664D01*
X226050Y352041D01*
X226279Y352412D01*
X226516Y352778D01*
X226763Y353138D01*
X227019Y353492D01*
X227283Y353839D01*
X227556Y354180D01*
X227837Y354513D01*
X228126Y354840D01*
X228423Y355160D01*
X228728Y355472D01*
X229040Y355777D01*
X229360Y356074D01*
X229687Y356363D01*
X230020Y356644D01*
X230361Y356917D01*
X230708Y357181D01*
X231062Y357437D01*
X231422Y357684D01*
X231788Y357921D01*
X232159Y358150D01*
X232536Y358370D01*
X232919Y358581D01*
X233306Y358782D01*
X233698Y358973D01*
X234095Y359155D01*
X234496Y359327D01*
X234901Y359489D01*
X235310Y359641D01*
X235723Y359783D01*
X236139Y359914D01*
X236558Y360036D01*
X236980Y360147D01*
X237404Y360248D01*
X237831Y360338D01*
X238260Y360418D01*
X238691Y360488D01*
X239124Y360546D01*
X239557Y360594D01*
X239992Y360632D01*
X240428Y360659D01*
X240864Y360675D01*
X241300Y360680D01*
X241736Y360675D01*
X242172Y360659D01*
X242608Y360632D01*
X243043Y360594D01*
X243476Y360546D01*
X243909Y360488D01*
X244340Y360418D01*
X244769Y360338D01*
X245196Y360248D01*
X245620Y360147D01*
X246042Y360036D01*
X246461Y359914D01*
X246877Y359783D01*
X247290Y359641D01*
X247699Y359489D01*
X248104Y359327D01*
X248505Y359155D01*
X248902Y358973D01*
X249294Y358782D01*
X249681Y358581D01*
X250064Y358370D01*
X250441Y358150D01*
X250812Y357921D01*
X251178Y357684D01*
X251538Y357437D01*
X251892Y357181D01*
X252239Y356917D01*
X252580Y356644D01*
X252913Y356363D01*
X253240Y356074D01*
X253560Y355777D01*
X253872Y355472D01*
X254177Y355160D01*
X254474Y354840D01*
X254763Y354513D01*
X255044Y354180D01*
X255317Y353839D01*
X255581Y353492D01*
X255837Y353138D01*
X256084Y352778D01*
X256321Y352412D01*
X256550Y352041D01*
X256770Y351664D01*
X256981Y351281D01*
X257182Y350894D01*
X257373Y350502D01*
X257555Y350105D01*
X257727Y349704D01*
X257889Y349299D01*
X258041Y348890D01*
X258183Y348477D01*
X258314Y348061D01*
X258436Y347642D01*
X258547Y347220D01*
X258648Y346796D01*
X258738Y346369D01*
X258818Y345940D01*
X258888Y345509D01*
X258946Y345076D01*
X258994Y344643D01*
X259032Y344208D01*
X259059Y343772D01*
X259075Y343336D01*
X259080Y342900D01*
X259075Y342464D01*
X259059Y342028D01*
X259032Y341592D01*
X258994Y341157D01*
X258946Y340724D01*
X258888Y340291D01*
X258818Y339860D01*
X258738Y339431D01*
X258648Y339004D01*
X258547Y338580D01*
X258436Y338158D01*
X258314Y337739D01*
X258183Y337323D01*
X258041Y336910D01*
X257889Y336501D01*
X257727Y336096D01*
X257555Y335695D01*
X257373Y335298D01*
X257182Y334906D01*
X256981Y334519D01*
X256770Y334136D01*
X256550Y333759D01*
X256321Y333388D01*
X256084Y333022D01*
X255837Y332662D01*
X255581Y332308D01*
X255317Y331961D01*
X255044Y331620D01*
X254763Y331287D01*
X254474Y330960D01*
X254177Y330640D01*
X253872Y330328D01*
X253560Y330023D01*
X253240Y329726D01*
X252913Y329437D01*
X252580Y329156D01*
X252239Y328883D01*
X251892Y328619D01*
X251538Y328363D01*
X251178Y328116D01*
X250812Y327879D01*
X250441Y327650D01*
X250064Y327430D01*
X249681Y327219D01*
X249294Y327018D01*
X248902Y326827D01*
X248505Y326645D01*
X248104Y326473D01*
X247699Y326311D01*
X247290Y326159D01*
X246877Y326017D01*
X246461Y325886D01*
X246042Y325764D01*
X245620Y325653D01*
X245196Y325552D01*
X244769Y325462D01*
X244340Y325382D01*
X243909Y325312D01*
X243476Y325254D01*
X243043Y325206D01*
X242608Y325168D01*
X242172Y325141D01*
X241736Y325125D01*
X241300Y325120D01*
X240864Y325125D01*
X240428Y325141D01*
X239992Y325168D01*
X239557Y325206D01*
X239124Y325254D01*
X238691Y325312D01*
X238260Y325382D01*
X237831Y325462D01*
X237404Y325552D01*
X236980Y325653D01*
X236558Y325764D01*
X236139Y325886D01*
X235723Y326017D01*
X235310Y326159D01*
X234901Y326311D01*
X234496Y326473D01*
X234095Y326645D01*
X233698Y326827D01*
X233306Y327018D01*
X232919Y327219D01*
X232536Y327430D01*
X232159Y327650D01*
X231788Y327879D01*
X231422Y328116D01*
X231062Y328363D01*
X230708Y328619D01*
X230361Y328883D01*
X230020Y329156D01*
X229687Y329437D01*
X229360Y329726D01*
X229040Y330023D01*
X228728Y330328D01*
X228423Y330640D01*
X228126Y330960D01*
X227837Y331287D01*
X227556Y331620D01*
X227283Y331961D01*
X227019Y332308D01*
X226763Y332662D01*
X226516Y333022D01*
X226279Y333388D01*
X226050Y333759D01*
X225830Y334136D01*
X225619Y334519D01*
X225418Y334906D01*
X225227Y335298D01*
X225045Y335695D01*
X224873Y336096D01*
X224711Y336501D01*
X224559Y336910D01*
X224417Y337323D01*
X224286Y337739D01*
X224164Y338158D01*
X224053Y338580D01*
X223952Y339004D01*
X223862Y339431D01*
X223782Y339860D01*
X223712Y340291D01*
X223654Y340724D01*
X223606Y341157D01*
X223568Y341592D01*
X223541Y342028D01*
X223525Y342464D01*
X223520Y342900D01*
D14*
X238916Y376555D02*
X238981Y376557D01*
X239045Y376563D01*
X239109Y376573D01*
X239173Y376586D01*
X239235Y376604D01*
X239296Y376625D01*
X239356Y376649D01*
X239414Y376678D01*
X239471Y376710D01*
X239525Y376745D01*
X239577Y376783D01*
X239627Y376825D01*
X239674Y376869D01*
X239718Y376916D01*
X239760Y376966D01*
X239798Y377018D01*
X239833Y377072D01*
X239865Y377129D01*
X239894Y377187D01*
X239918Y377247D01*
X239939Y377308D01*
X239957Y377370D01*
X239970Y377434D01*
X239980Y377498D01*
X239986Y377562D01*
X239988Y377627D01*
X238916Y376555D02*
X238822Y376557D01*
X238728Y376563D01*
X238634Y376573D01*
X238541Y376586D01*
X238449Y376604D01*
X238357Y376625D01*
X238266Y376650D01*
X238176Y376679D01*
X238088Y376712D01*
X238001Y376748D01*
X237916Y376788D01*
X237832Y376831D01*
X237751Y376878D01*
X237671Y376928D01*
X237593Y376981D01*
X237518Y377038D01*
X237445Y377097D01*
X237375Y377160D01*
X237307Y377225D01*
X237442Y380309D02*
X237444Y380374D01*
X237450Y380438D01*
X237460Y380502D01*
X237473Y380566D01*
X237491Y380628D01*
X237512Y380689D01*
X237536Y380749D01*
X237565Y380807D01*
X237597Y380864D01*
X237632Y380918D01*
X237670Y380970D01*
X237712Y381020D01*
X237756Y381067D01*
X237803Y381111D01*
X237853Y381153D01*
X237905Y381191D01*
X237959Y381226D01*
X238016Y381258D01*
X238074Y381287D01*
X238134Y381311D01*
X238195Y381332D01*
X238257Y381350D01*
X238321Y381363D01*
X238385Y381373D01*
X238449Y381379D01*
X238514Y381381D01*
X238600Y381379D01*
X238686Y381374D01*
X238772Y381364D01*
X238857Y381351D01*
X238942Y381335D01*
X239026Y381315D01*
X239109Y381291D01*
X239191Y381264D01*
X239271Y381233D01*
X239351Y381199D01*
X239428Y381161D01*
X239504Y381120D01*
X239578Y381076D01*
X239650Y381029D01*
X239721Y380979D01*
X237978Y379371D02*
X237925Y379404D01*
X237874Y379441D01*
X237825Y379480D01*
X237778Y379522D01*
X237734Y379567D01*
X237693Y379614D01*
X237654Y379663D01*
X237618Y379715D01*
X237585Y379769D01*
X237556Y379824D01*
X237530Y379881D01*
X237507Y379940D01*
X237487Y379999D01*
X237471Y380060D01*
X237458Y380121D01*
X237449Y380184D01*
X237444Y380246D01*
X237442Y380309D01*
X239453Y378565D02*
X239506Y378532D01*
X239557Y378495D01*
X239606Y378456D01*
X239653Y378414D01*
X239697Y378369D01*
X239738Y378322D01*
X239777Y378273D01*
X239813Y378221D01*
X239846Y378167D01*
X239875Y378112D01*
X239901Y378055D01*
X239924Y377996D01*
X239944Y377937D01*
X239960Y377876D01*
X239973Y377815D01*
X239982Y377752D01*
X239987Y377690D01*
X239989Y377627D01*
X239453Y378566D02*
X237978Y379370D01*
X242611Y380309D02*
X243952Y381381D01*
X243952Y376555D01*
X245292Y376555D02*
X242611Y376555D01*
X290100Y431500D02*
X40100Y431500D01*
X290100Y431500D02*
X290100Y641500D01*
X210100Y706500D01*
X115100Y706500D01*
X40100Y641500D01*
X40100Y431500D01*
D12*
X125608Y642008D02*
X133397Y653692D01*
X125608Y653692D02*
X133397Y642008D01*
X138237Y648499D02*
X141483Y648499D01*
X141483Y648500D02*
X141596Y648498D01*
X141709Y648492D01*
X141822Y648482D01*
X141935Y648468D01*
X142047Y648451D01*
X142158Y648429D01*
X142268Y648404D01*
X142378Y648374D01*
X142486Y648341D01*
X142593Y648304D01*
X142699Y648264D01*
X142803Y648219D01*
X142906Y648171D01*
X143007Y648120D01*
X143106Y648065D01*
X143203Y648007D01*
X143298Y647945D01*
X143391Y647880D01*
X143481Y647812D01*
X143569Y647741D01*
X143655Y647666D01*
X143738Y647589D01*
X143818Y647509D01*
X143895Y647426D01*
X143970Y647340D01*
X144041Y647252D01*
X144109Y647162D01*
X144174Y647069D01*
X144236Y646974D01*
X144294Y646877D01*
X144349Y646778D01*
X144400Y646677D01*
X144448Y646574D01*
X144493Y646470D01*
X144533Y646364D01*
X144570Y646257D01*
X144603Y646149D01*
X144633Y646039D01*
X144658Y645929D01*
X144680Y645818D01*
X144697Y645706D01*
X144711Y645593D01*
X144721Y645480D01*
X144727Y645367D01*
X144729Y645254D01*
X144727Y645141D01*
X144721Y645028D01*
X144711Y644915D01*
X144697Y644802D01*
X144680Y644690D01*
X144658Y644579D01*
X144633Y644469D01*
X144603Y644359D01*
X144570Y644251D01*
X144533Y644144D01*
X144493Y644038D01*
X144448Y643934D01*
X144400Y643831D01*
X144349Y643730D01*
X144294Y643631D01*
X144236Y643534D01*
X144174Y643439D01*
X144109Y643346D01*
X144041Y643256D01*
X143970Y643168D01*
X143895Y643082D01*
X143818Y642999D01*
X143738Y642919D01*
X143655Y642842D01*
X143569Y642767D01*
X143481Y642696D01*
X143391Y642628D01*
X143298Y642563D01*
X143203Y642501D01*
X143106Y642443D01*
X143007Y642388D01*
X142906Y642337D01*
X142803Y642289D01*
X142699Y642244D01*
X142593Y642204D01*
X142486Y642167D01*
X142378Y642134D01*
X142268Y642104D01*
X142158Y642079D01*
X142047Y642057D01*
X141935Y642040D01*
X141822Y642026D01*
X141709Y642016D01*
X141596Y642010D01*
X141483Y642008D01*
X138237Y642008D01*
X138237Y653692D01*
X141483Y653692D01*
X141584Y653690D01*
X141684Y653684D01*
X141784Y653674D01*
X141884Y653661D01*
X141983Y653643D01*
X142082Y653622D01*
X142179Y653597D01*
X142276Y653568D01*
X142371Y653535D01*
X142465Y653499D01*
X142557Y653459D01*
X142648Y653416D01*
X142737Y653369D01*
X142824Y653319D01*
X142910Y653265D01*
X142993Y653208D01*
X143073Y653148D01*
X143152Y653085D01*
X143228Y653018D01*
X143301Y652949D01*
X143371Y652877D01*
X143439Y652803D01*
X143504Y652726D01*
X143565Y652646D01*
X143624Y652564D01*
X143679Y652480D01*
X143731Y652394D01*
X143780Y652306D01*
X143825Y652216D01*
X143867Y652124D01*
X143905Y652031D01*
X143939Y651936D01*
X143970Y651841D01*
X143997Y651744D01*
X144020Y651646D01*
X144040Y651547D01*
X144055Y651447D01*
X144067Y651347D01*
X144075Y651247D01*
X144079Y651146D01*
X144079Y651046D01*
X144075Y650945D01*
X144067Y650845D01*
X144055Y650745D01*
X144040Y650645D01*
X144020Y650546D01*
X143997Y650448D01*
X143970Y650351D01*
X143939Y650256D01*
X143905Y650161D01*
X143867Y650068D01*
X143825Y649976D01*
X143780Y649886D01*
X143731Y649798D01*
X143679Y649712D01*
X143624Y649628D01*
X143565Y649546D01*
X143504Y649466D01*
X143439Y649389D01*
X143371Y649315D01*
X143301Y649243D01*
X143228Y649174D01*
X143152Y649107D01*
X143073Y649044D01*
X142993Y648984D01*
X142910Y648927D01*
X142824Y648873D01*
X142737Y648823D01*
X142648Y648776D01*
X142557Y648733D01*
X142465Y648693D01*
X142371Y648657D01*
X142276Y648624D01*
X142179Y648595D01*
X142082Y648570D01*
X141983Y648549D01*
X141884Y648531D01*
X141784Y648518D01*
X141684Y648508D01*
X141584Y648502D01*
X141483Y648500D01*
X149521Y642008D02*
X154714Y642008D01*
X149521Y642008D02*
X149521Y653692D01*
X154714Y653692D01*
X153415Y648499D02*
X149521Y648499D01*
X159427Y642008D02*
X164620Y642008D01*
X159427Y642008D02*
X159427Y653692D01*
X164620Y653692D01*
X163321Y648499D02*
X159427Y648499D01*
X172443Y642008D02*
X172542Y642010D01*
X172642Y642016D01*
X172741Y642025D01*
X172839Y642038D01*
X172937Y642055D01*
X173035Y642076D01*
X173131Y642101D01*
X173226Y642129D01*
X173320Y642161D01*
X173413Y642196D01*
X173505Y642235D01*
X173595Y642278D01*
X173683Y642323D01*
X173770Y642373D01*
X173854Y642425D01*
X173937Y642481D01*
X174017Y642539D01*
X174095Y642601D01*
X174170Y642666D01*
X174243Y642734D01*
X174313Y642804D01*
X174381Y642877D01*
X174446Y642952D01*
X174508Y643030D01*
X174566Y643110D01*
X174622Y643193D01*
X174674Y643277D01*
X174724Y643364D01*
X174769Y643452D01*
X174812Y643542D01*
X174851Y643634D01*
X174886Y643727D01*
X174918Y643821D01*
X174946Y643916D01*
X174971Y644012D01*
X174992Y644110D01*
X175009Y644208D01*
X175022Y644306D01*
X175031Y644405D01*
X175037Y644505D01*
X175039Y644604D01*
X172443Y642008D02*
X172299Y642010D01*
X172154Y642016D01*
X172010Y642025D01*
X171867Y642038D01*
X171723Y642055D01*
X171580Y642076D01*
X171438Y642101D01*
X171297Y642129D01*
X171156Y642161D01*
X171016Y642197D01*
X170877Y642236D01*
X170739Y642279D01*
X170603Y642326D01*
X170467Y642376D01*
X170333Y642430D01*
X170201Y642487D01*
X170070Y642548D01*
X169941Y642612D01*
X169813Y642680D01*
X169687Y642750D01*
X169563Y642825D01*
X169442Y642902D01*
X169322Y642983D01*
X169204Y643066D01*
X169089Y643153D01*
X168976Y643243D01*
X168865Y643336D01*
X168757Y643431D01*
X168651Y643530D01*
X168548Y643631D01*
X168873Y651096D02*
X168875Y651195D01*
X168881Y651295D01*
X168890Y651394D01*
X168903Y651492D01*
X168920Y651590D01*
X168941Y651688D01*
X168966Y651784D01*
X168994Y651879D01*
X169026Y651973D01*
X169061Y652066D01*
X169100Y652158D01*
X169143Y652248D01*
X169188Y652336D01*
X169238Y652423D01*
X169290Y652507D01*
X169346Y652590D01*
X169404Y652670D01*
X169466Y652748D01*
X169531Y652823D01*
X169599Y652896D01*
X169669Y652966D01*
X169742Y653034D01*
X169817Y653099D01*
X169895Y653161D01*
X169975Y653219D01*
X170058Y653275D01*
X170142Y653327D01*
X170229Y653377D01*
X170317Y653422D01*
X170407Y653465D01*
X170499Y653504D01*
X170592Y653539D01*
X170686Y653571D01*
X170781Y653599D01*
X170878Y653624D01*
X170975Y653645D01*
X171073Y653662D01*
X171171Y653675D01*
X171270Y653684D01*
X171370Y653690D01*
X171469Y653692D01*
X171605Y653690D01*
X171741Y653684D01*
X171877Y653675D01*
X172013Y653662D01*
X172148Y653644D01*
X172282Y653624D01*
X172416Y653599D01*
X172550Y653571D01*
X172682Y653538D01*
X172813Y653503D01*
X172944Y653463D01*
X173073Y653420D01*
X173201Y653374D01*
X173327Y653323D01*
X173453Y653270D01*
X173576Y653212D01*
X173698Y653152D01*
X173818Y653088D01*
X173937Y653020D01*
X174053Y652950D01*
X174167Y652876D01*
X174280Y652799D01*
X174390Y652718D01*
X170171Y648824D02*
X170085Y648877D01*
X170001Y648934D01*
X169919Y648993D01*
X169839Y649056D01*
X169762Y649122D01*
X169687Y649190D01*
X169615Y649262D01*
X169546Y649336D01*
X169480Y649413D01*
X169417Y649492D01*
X169357Y649574D01*
X169300Y649658D01*
X169246Y649744D01*
X169196Y649832D01*
X169149Y649922D01*
X169105Y650013D01*
X169066Y650107D01*
X169029Y650201D01*
X168997Y650297D01*
X168968Y650395D01*
X168943Y650493D01*
X168922Y650592D01*
X168904Y650692D01*
X168891Y650792D01*
X168881Y650893D01*
X168875Y650995D01*
X168873Y651096D01*
X173741Y646876D02*
X173827Y646823D01*
X173911Y646766D01*
X173993Y646707D01*
X174073Y646644D01*
X174150Y646578D01*
X174225Y646510D01*
X174297Y646438D01*
X174366Y646364D01*
X174432Y646287D01*
X174495Y646208D01*
X174555Y646126D01*
X174612Y646042D01*
X174666Y645956D01*
X174716Y645868D01*
X174763Y645778D01*
X174807Y645687D01*
X174846Y645593D01*
X174883Y645499D01*
X174915Y645403D01*
X174944Y645305D01*
X174969Y645207D01*
X174990Y645108D01*
X175008Y645008D01*
X175021Y644908D01*
X175031Y644807D01*
X175037Y644705D01*
X175039Y644604D01*
X173741Y646876D02*
X170171Y648824D01*
X183167Y653692D02*
X183274Y653690D01*
X183380Y653684D01*
X183486Y653674D01*
X183592Y653661D01*
X183698Y653643D01*
X183802Y653622D01*
X183906Y653597D01*
X184009Y653568D01*
X184110Y653536D01*
X184210Y653499D01*
X184309Y653459D01*
X184407Y653416D01*
X184503Y653369D01*
X184597Y653318D01*
X184689Y653264D01*
X184779Y653207D01*
X184867Y653147D01*
X184952Y653083D01*
X185035Y653016D01*
X185116Y652946D01*
X185194Y652874D01*
X185270Y652798D01*
X185342Y652720D01*
X185412Y652639D01*
X185479Y652556D01*
X185543Y652471D01*
X185603Y652383D01*
X185660Y652293D01*
X185714Y652201D01*
X185765Y652107D01*
X185812Y652011D01*
X185855Y651913D01*
X185895Y651814D01*
X185932Y651714D01*
X185964Y651613D01*
X185993Y651510D01*
X186018Y651406D01*
X186039Y651302D01*
X186057Y651196D01*
X186070Y651090D01*
X186080Y650984D01*
X186086Y650878D01*
X186088Y650771D01*
X183167Y653692D02*
X183046Y653690D01*
X182925Y653684D01*
X182805Y653674D01*
X182684Y653661D01*
X182565Y653643D01*
X182445Y653622D01*
X182327Y653597D01*
X182210Y653568D01*
X182093Y653535D01*
X181978Y653499D01*
X181864Y653458D01*
X181751Y653415D01*
X181639Y653367D01*
X181530Y653316D01*
X181422Y653261D01*
X181315Y653203D01*
X181211Y653142D01*
X181109Y653077D01*
X181009Y653009D01*
X180911Y652938D01*
X180815Y652864D01*
X180722Y652787D01*
X180632Y652706D01*
X180544Y652623D01*
X180459Y652537D01*
X180376Y652448D01*
X180297Y652357D01*
X180220Y652263D01*
X180147Y652167D01*
X180077Y652069D01*
X180010Y651968D01*
X179946Y651865D01*
X179886Y651760D01*
X179829Y651653D01*
X179775Y651545D01*
X179725Y651435D01*
X179679Y651323D01*
X179636Y651210D01*
X179597Y651095D01*
X185115Y648499D02*
X185194Y648576D01*
X185270Y648657D01*
X185343Y648740D01*
X185413Y648825D01*
X185480Y648913D01*
X185544Y649003D01*
X185604Y649095D01*
X185661Y649190D01*
X185715Y649286D01*
X185766Y649384D01*
X185813Y649484D01*
X185857Y649586D01*
X185897Y649689D01*
X185933Y649793D01*
X185965Y649899D01*
X185994Y650005D01*
X186019Y650113D01*
X186041Y650221D01*
X186058Y650331D01*
X186072Y650440D01*
X186081Y650550D01*
X186087Y650661D01*
X186089Y650771D01*
X185114Y648499D02*
X179597Y642008D01*
X186088Y642008D01*
X193590Y642008D02*
X196187Y642008D01*
X193590Y642008D02*
X193491Y642010D01*
X193391Y642016D01*
X193292Y642025D01*
X193194Y642038D01*
X193096Y642055D01*
X192998Y642076D01*
X192902Y642101D01*
X192807Y642129D01*
X192713Y642161D01*
X192620Y642196D01*
X192528Y642235D01*
X192438Y642278D01*
X192350Y642323D01*
X192263Y642373D01*
X192179Y642425D01*
X192096Y642481D01*
X192016Y642539D01*
X191938Y642601D01*
X191863Y642666D01*
X191790Y642734D01*
X191720Y642804D01*
X191652Y642877D01*
X191587Y642952D01*
X191525Y643030D01*
X191467Y643110D01*
X191411Y643193D01*
X191359Y643277D01*
X191309Y643364D01*
X191264Y643452D01*
X191221Y643542D01*
X191182Y643634D01*
X191147Y643727D01*
X191115Y643821D01*
X191087Y643916D01*
X191062Y644012D01*
X191041Y644110D01*
X191024Y644208D01*
X191011Y644306D01*
X191002Y644405D01*
X190996Y644505D01*
X190994Y644604D01*
X190994Y651096D01*
X190996Y651195D01*
X191002Y651295D01*
X191011Y651394D01*
X191024Y651492D01*
X191041Y651590D01*
X191062Y651688D01*
X191087Y651784D01*
X191115Y651879D01*
X191147Y651973D01*
X191182Y652066D01*
X191221Y652158D01*
X191264Y652248D01*
X191309Y652336D01*
X191359Y652423D01*
X191411Y652507D01*
X191467Y652590D01*
X191525Y652670D01*
X191587Y652748D01*
X191652Y652823D01*
X191720Y652896D01*
X191790Y652966D01*
X191863Y653034D01*
X191938Y653099D01*
X192016Y653161D01*
X192096Y653219D01*
X192179Y653275D01*
X192263Y653327D01*
X192350Y653377D01*
X192438Y653422D01*
X192528Y653465D01*
X192620Y653504D01*
X192712Y653539D01*
X192807Y653571D01*
X192902Y653599D01*
X192998Y653624D01*
X193096Y653645D01*
X193194Y653662D01*
X193292Y653675D01*
X193391Y653684D01*
X193491Y653690D01*
X193590Y653692D01*
X196187Y653692D01*
D13*
X77216Y802386D02*
X77216Y810514D01*
X79925Y805998D01*
X82635Y810514D01*
X82635Y802386D01*
X87274Y802386D02*
X89984Y810514D01*
X92693Y802386D01*
X92016Y804418D02*
X87952Y804418D01*
X100336Y806902D02*
X101690Y806902D01*
X101690Y802386D01*
X98981Y802386D01*
X98898Y802388D01*
X98814Y802394D01*
X98731Y802403D01*
X98649Y802417D01*
X98568Y802434D01*
X98487Y802455D01*
X98407Y802480D01*
X98329Y802508D01*
X98252Y802540D01*
X98176Y802575D01*
X98102Y802614D01*
X98030Y802657D01*
X97960Y802702D01*
X97893Y802751D01*
X97827Y802803D01*
X97764Y802857D01*
X97704Y802915D01*
X97646Y802975D01*
X97592Y803038D01*
X97540Y803104D01*
X97491Y803171D01*
X97446Y803241D01*
X97403Y803313D01*
X97364Y803387D01*
X97329Y803463D01*
X97297Y803540D01*
X97269Y803618D01*
X97244Y803698D01*
X97223Y803779D01*
X97206Y803860D01*
X97192Y803942D01*
X97183Y804025D01*
X97177Y804109D01*
X97175Y804192D01*
X97175Y808708D01*
X97177Y808791D01*
X97183Y808875D01*
X97192Y808958D01*
X97206Y809040D01*
X97223Y809121D01*
X97244Y809202D01*
X97269Y809282D01*
X97297Y809360D01*
X97329Y809437D01*
X97364Y809513D01*
X97403Y809587D01*
X97446Y809659D01*
X97491Y809729D01*
X97540Y809796D01*
X97592Y809862D01*
X97646Y809925D01*
X97704Y809985D01*
X97764Y810043D01*
X97827Y810097D01*
X97893Y810149D01*
X97960Y810198D01*
X98030Y810243D01*
X98102Y810286D01*
X98176Y810325D01*
X98251Y810360D01*
X98329Y810392D01*
X98407Y810420D01*
X98487Y810445D01*
X98567Y810466D01*
X98649Y810483D01*
X98731Y810497D01*
X98814Y810506D01*
X98898Y810512D01*
X98981Y810514D01*
X101690Y810514D01*
X108272Y810514D02*
X108272Y802386D01*
X106014Y810514D02*
X110529Y810514D01*
D17*
X8890Y838200D02*
X8899Y838917D01*
X8925Y839633D01*
X8969Y840349D01*
X9031Y841063D01*
X9110Y841776D01*
X9206Y842486D01*
X9320Y843194D01*
X9451Y843899D01*
X9600Y844600D01*
X9765Y845297D01*
X9948Y845991D01*
X10148Y846679D01*
X10364Y847363D01*
X10597Y848041D01*
X10847Y848713D01*
X11113Y849378D01*
X11396Y850037D01*
X11694Y850689D01*
X12009Y851333D01*
X12339Y851969D01*
X12685Y852598D01*
X13046Y853217D01*
X13422Y853827D01*
X13813Y854428D01*
X14218Y855019D01*
X14638Y855600D01*
X15072Y856171D01*
X15520Y856731D01*
X15982Y857279D01*
X16457Y857816D01*
X16945Y858341D01*
X17445Y858855D01*
X17959Y859355D01*
X18484Y859843D01*
X19021Y860318D01*
X19569Y860780D01*
X20129Y861228D01*
X20700Y861662D01*
X21281Y862082D01*
X21872Y862487D01*
X22473Y862878D01*
X23083Y863254D01*
X23702Y863615D01*
X24331Y863961D01*
X24967Y864291D01*
X25611Y864606D01*
X26263Y864904D01*
X26922Y865187D01*
X27587Y865453D01*
X28259Y865703D01*
X28937Y865936D01*
X29621Y866152D01*
X30309Y866352D01*
X31003Y866535D01*
X31700Y866700D01*
X32401Y866849D01*
X33106Y866980D01*
X33814Y867094D01*
X34524Y867190D01*
X35237Y867269D01*
X35951Y867331D01*
X36667Y867375D01*
X37383Y867401D01*
X38100Y867410D01*
X38817Y867401D01*
X39533Y867375D01*
X40249Y867331D01*
X40963Y867269D01*
X41676Y867190D01*
X42386Y867094D01*
X43094Y866980D01*
X43799Y866849D01*
X44500Y866700D01*
X45197Y866535D01*
X45891Y866352D01*
X46579Y866152D01*
X47263Y865936D01*
X47941Y865703D01*
X48613Y865453D01*
X49278Y865187D01*
X49937Y864904D01*
X50589Y864606D01*
X51233Y864291D01*
X51869Y863961D01*
X52498Y863615D01*
X53117Y863254D01*
X53727Y862878D01*
X54328Y862487D01*
X54919Y862082D01*
X55500Y861662D01*
X56071Y861228D01*
X56631Y860780D01*
X57179Y860318D01*
X57716Y859843D01*
X58241Y859355D01*
X58755Y858855D01*
X59255Y858341D01*
X59743Y857816D01*
X60218Y857279D01*
X60680Y856731D01*
X61128Y856171D01*
X61562Y855600D01*
X61982Y855019D01*
X62387Y854428D01*
X62778Y853827D01*
X63154Y853217D01*
X63515Y852598D01*
X63861Y851969D01*
X64191Y851333D01*
X64506Y850689D01*
X64804Y850037D01*
X65087Y849378D01*
X65353Y848713D01*
X65603Y848041D01*
X65836Y847363D01*
X66052Y846679D01*
X66252Y845991D01*
X66435Y845297D01*
X66600Y844600D01*
X66749Y843899D01*
X66880Y843194D01*
X66994Y842486D01*
X67090Y841776D01*
X67169Y841063D01*
X67231Y840349D01*
X67275Y839633D01*
X67301Y838917D01*
X67310Y838200D01*
X67301Y837483D01*
X67275Y836767D01*
X67231Y836051D01*
X67169Y835337D01*
X67090Y834624D01*
X66994Y833914D01*
X66880Y833206D01*
X66749Y832501D01*
X66600Y831800D01*
X66435Y831103D01*
X66252Y830409D01*
X66052Y829721D01*
X65836Y829037D01*
X65603Y828359D01*
X65353Y827687D01*
X65087Y827022D01*
X64804Y826363D01*
X64506Y825711D01*
X64191Y825067D01*
X63861Y824431D01*
X63515Y823802D01*
X63154Y823183D01*
X62778Y822573D01*
X62387Y821972D01*
X61982Y821381D01*
X61562Y820800D01*
X61128Y820229D01*
X60680Y819669D01*
X60218Y819121D01*
X59743Y818584D01*
X59255Y818059D01*
X58755Y817545D01*
X58241Y817045D01*
X57716Y816557D01*
X57179Y816082D01*
X56631Y815620D01*
X56071Y815172D01*
X55500Y814738D01*
X54919Y814318D01*
X54328Y813913D01*
X53727Y813522D01*
X53117Y813146D01*
X52498Y812785D01*
X51869Y812439D01*
X51233Y812109D01*
X50589Y811794D01*
X49937Y811496D01*
X49278Y811213D01*
X48613Y810947D01*
X47941Y810697D01*
X47263Y810464D01*
X46579Y810248D01*
X45891Y810048D01*
X45197Y809865D01*
X44500Y809700D01*
X43799Y809551D01*
X43094Y809420D01*
X42386Y809306D01*
X41676Y809210D01*
X40963Y809131D01*
X40249Y809069D01*
X39533Y809025D01*
X38817Y808999D01*
X38100Y808990D01*
X37383Y808999D01*
X36667Y809025D01*
X35951Y809069D01*
X35237Y809131D01*
X34524Y809210D01*
X33814Y809306D01*
X33106Y809420D01*
X32401Y809551D01*
X31700Y809700D01*
X31003Y809865D01*
X30309Y810048D01*
X29621Y810248D01*
X28937Y810464D01*
X28259Y810697D01*
X27587Y810947D01*
X26922Y811213D01*
X26263Y811496D01*
X25611Y811794D01*
X24967Y812109D01*
X24331Y812439D01*
X23702Y812785D01*
X23083Y813146D01*
X22473Y813522D01*
X21872Y813913D01*
X21281Y814318D01*
X20700Y814738D01*
X20129Y815172D01*
X19569Y815620D01*
X19021Y816082D01*
X18484Y816557D01*
X17959Y817045D01*
X17445Y817545D01*
X16945Y818059D01*
X16457Y818584D01*
X15982Y819121D01*
X15520Y819669D01*
X15072Y820229D01*
X14638Y820800D01*
X14218Y821381D01*
X13813Y821972D01*
X13422Y822573D01*
X13046Y823183D01*
X12685Y823802D01*
X12339Y824431D01*
X12009Y825067D01*
X11694Y825711D01*
X11396Y826363D01*
X11113Y827022D01*
X10847Y827687D01*
X10597Y828359D01*
X10364Y829037D01*
X10148Y829721D01*
X9948Y830409D01*
X9765Y831103D01*
X9600Y831800D01*
X9451Y832501D01*
X9320Y833206D01*
X9206Y833914D01*
X9110Y834624D01*
X9031Y835337D01*
X8969Y836051D01*
X8925Y836767D01*
X8899Y837483D01*
X8890Y838200D01*
D13*
X23100Y838200D02*
X23105Y838568D01*
X23118Y838936D01*
X23141Y839303D01*
X23172Y839670D01*
X23213Y840036D01*
X23262Y840401D01*
X23321Y840764D01*
X23388Y841126D01*
X23464Y841487D01*
X23550Y841845D01*
X23643Y842201D01*
X23746Y842554D01*
X23857Y842905D01*
X23977Y843253D01*
X24105Y843598D01*
X24242Y843940D01*
X24387Y844279D01*
X24540Y844613D01*
X24702Y844944D01*
X24871Y845271D01*
X25049Y845593D01*
X25234Y845912D01*
X25427Y846225D01*
X25628Y846534D01*
X25836Y846837D01*
X26052Y847135D01*
X26275Y847428D01*
X26505Y847716D01*
X26742Y847998D01*
X26986Y848273D01*
X27236Y848543D01*
X27493Y848807D01*
X27757Y849064D01*
X28027Y849314D01*
X28302Y849558D01*
X28584Y849795D01*
X28872Y850025D01*
X29165Y850248D01*
X29463Y850464D01*
X29766Y850672D01*
X30075Y850873D01*
X30388Y851066D01*
X30707Y851251D01*
X31029Y851429D01*
X31356Y851598D01*
X31687Y851760D01*
X32021Y851913D01*
X32360Y852058D01*
X32702Y852195D01*
X33047Y852323D01*
X33395Y852443D01*
X33746Y852554D01*
X34099Y852657D01*
X34455Y852750D01*
X34813Y852836D01*
X35174Y852912D01*
X35536Y852979D01*
X35899Y853038D01*
X36264Y853087D01*
X36630Y853128D01*
X36997Y853159D01*
X37364Y853182D01*
X37732Y853195D01*
X38100Y853200D01*
X38468Y853195D01*
X38836Y853182D01*
X39203Y853159D01*
X39570Y853128D01*
X39936Y853087D01*
X40301Y853038D01*
X40664Y852979D01*
X41026Y852912D01*
X41387Y852836D01*
X41745Y852750D01*
X42101Y852657D01*
X42454Y852554D01*
X42805Y852443D01*
X43153Y852323D01*
X43498Y852195D01*
X43840Y852058D01*
X44179Y851913D01*
X44513Y851760D01*
X44844Y851598D01*
X45171Y851429D01*
X45493Y851251D01*
X45812Y851066D01*
X46125Y850873D01*
X46434Y850672D01*
X46737Y850464D01*
X47035Y850248D01*
X47328Y850025D01*
X47616Y849795D01*
X47898Y849558D01*
X48173Y849314D01*
X48443Y849064D01*
X48707Y848807D01*
X48964Y848543D01*
X49214Y848273D01*
X49458Y847998D01*
X49695Y847716D01*
X49925Y847428D01*
X50148Y847135D01*
X50364Y846837D01*
X50572Y846534D01*
X50773Y846225D01*
X50966Y845912D01*
X51151Y845593D01*
X51329Y845271D01*
X51498Y844944D01*
X51660Y844613D01*
X51813Y844279D01*
X51958Y843940D01*
X52095Y843598D01*
X52223Y843253D01*
X52343Y842905D01*
X52454Y842554D01*
X52557Y842201D01*
X52650Y841845D01*
X52736Y841487D01*
X52812Y841126D01*
X52879Y840764D01*
X52938Y840401D01*
X52987Y840036D01*
X53028Y839670D01*
X53059Y839303D01*
X53082Y838936D01*
X53095Y838568D01*
X53100Y838200D01*
X53095Y837832D01*
X53082Y837464D01*
X53059Y837097D01*
X53028Y836730D01*
X52987Y836364D01*
X52938Y835999D01*
X52879Y835636D01*
X52812Y835274D01*
X52736Y834913D01*
X52650Y834555D01*
X52557Y834199D01*
X52454Y833846D01*
X52343Y833495D01*
X52223Y833147D01*
X52095Y832802D01*
X51958Y832460D01*
X51813Y832121D01*
X51660Y831787D01*
X51498Y831456D01*
X51329Y831129D01*
X51151Y830807D01*
X50966Y830488D01*
X50773Y830175D01*
X50572Y829866D01*
X50364Y829563D01*
X50148Y829265D01*
X49925Y828972D01*
X49695Y828684D01*
X49458Y828402D01*
X49214Y828127D01*
X48964Y827857D01*
X48707Y827593D01*
X48443Y827336D01*
X48173Y827086D01*
X47898Y826842D01*
X47616Y826605D01*
X47328Y826375D01*
X47035Y826152D01*
X46737Y825936D01*
X46434Y825728D01*
X46125Y825527D01*
X45812Y825334D01*
X45493Y825149D01*
X45171Y824971D01*
X44844Y824802D01*
X44513Y824640D01*
X44179Y824487D01*
X43840Y824342D01*
X43498Y824205D01*
X43153Y824077D01*
X42805Y823957D01*
X42454Y823846D01*
X42101Y823743D01*
X41745Y823650D01*
X41387Y823564D01*
X41026Y823488D01*
X40664Y823421D01*
X40301Y823362D01*
X39936Y823313D01*
X39570Y823272D01*
X39203Y823241D01*
X38836Y823218D01*
X38468Y823205D01*
X38100Y823200D01*
X37732Y823205D01*
X37364Y823218D01*
X36997Y823241D01*
X36630Y823272D01*
X36264Y823313D01*
X35899Y823362D01*
X35536Y823421D01*
X35174Y823488D01*
X34813Y823564D01*
X34455Y823650D01*
X34099Y823743D01*
X33746Y823846D01*
X33395Y823957D01*
X33047Y824077D01*
X32702Y824205D01*
X32360Y824342D01*
X32021Y824487D01*
X31687Y824640D01*
X31356Y824802D01*
X31029Y824971D01*
X30707Y825149D01*
X30388Y825334D01*
X30075Y825527D01*
X29766Y825728D01*
X29463Y825936D01*
X29165Y826152D01*
X28872Y826375D01*
X28584Y826605D01*
X28302Y826842D01*
X28027Y827086D01*
X27757Y827336D01*
X27493Y827593D01*
X27236Y827857D01*
X26986Y828127D01*
X26742Y828402D01*
X26505Y828684D01*
X26275Y828972D01*
X26052Y829265D01*
X25836Y829563D01*
X25628Y829866D01*
X25427Y830175D01*
X25234Y830488D01*
X25049Y830807D01*
X24871Y831129D01*
X24702Y831456D01*
X24540Y831787D01*
X24387Y832121D01*
X24242Y832460D01*
X24105Y832802D01*
X23977Y833147D01*
X23857Y833495D01*
X23746Y833846D01*
X23643Y834199D01*
X23550Y834555D01*
X23464Y834913D01*
X23388Y835274D01*
X23321Y835636D01*
X23262Y835999D01*
X23213Y836364D01*
X23172Y836730D01*
X23141Y837097D01*
X23118Y837464D01*
X23105Y837832D01*
X23100Y838200D01*
D17*
X275590Y838200D02*
X275599Y838917D01*
X275625Y839633D01*
X275669Y840349D01*
X275731Y841063D01*
X275810Y841776D01*
X275906Y842486D01*
X276020Y843194D01*
X276151Y843899D01*
X276300Y844600D01*
X276465Y845297D01*
X276648Y845991D01*
X276848Y846679D01*
X277064Y847363D01*
X277297Y848041D01*
X277547Y848713D01*
X277813Y849378D01*
X278096Y850037D01*
X278394Y850689D01*
X278709Y851333D01*
X279039Y851969D01*
X279385Y852598D01*
X279746Y853217D01*
X280122Y853827D01*
X280513Y854428D01*
X280918Y855019D01*
X281338Y855600D01*
X281772Y856171D01*
X282220Y856731D01*
X282682Y857279D01*
X283157Y857816D01*
X283645Y858341D01*
X284145Y858855D01*
X284659Y859355D01*
X285184Y859843D01*
X285721Y860318D01*
X286269Y860780D01*
X286829Y861228D01*
X287400Y861662D01*
X287981Y862082D01*
X288572Y862487D01*
X289173Y862878D01*
X289783Y863254D01*
X290402Y863615D01*
X291031Y863961D01*
X291667Y864291D01*
X292311Y864606D01*
X292963Y864904D01*
X293622Y865187D01*
X294287Y865453D01*
X294959Y865703D01*
X295637Y865936D01*
X296321Y866152D01*
X297009Y866352D01*
X297703Y866535D01*
X298400Y866700D01*
X299101Y866849D01*
X299806Y866980D01*
X300514Y867094D01*
X301224Y867190D01*
X301937Y867269D01*
X302651Y867331D01*
X303367Y867375D01*
X304083Y867401D01*
X304800Y867410D01*
X305517Y867401D01*
X306233Y867375D01*
X306949Y867331D01*
X307663Y867269D01*
X308376Y867190D01*
X309086Y867094D01*
X309794Y866980D01*
X310499Y866849D01*
X311200Y866700D01*
X311897Y866535D01*
X312591Y866352D01*
X313279Y866152D01*
X313963Y865936D01*
X314641Y865703D01*
X315313Y865453D01*
X315978Y865187D01*
X316637Y864904D01*
X317289Y864606D01*
X317933Y864291D01*
X318569Y863961D01*
X319198Y863615D01*
X319817Y863254D01*
X320427Y862878D01*
X321028Y862487D01*
X321619Y862082D01*
X322200Y861662D01*
X322771Y861228D01*
X323331Y860780D01*
X323879Y860318D01*
X324416Y859843D01*
X324941Y859355D01*
X325455Y858855D01*
X325955Y858341D01*
X326443Y857816D01*
X326918Y857279D01*
X327380Y856731D01*
X327828Y856171D01*
X328262Y855600D01*
X328682Y855019D01*
X329087Y854428D01*
X329478Y853827D01*
X329854Y853217D01*
X330215Y852598D01*
X330561Y851969D01*
X330891Y851333D01*
X331206Y850689D01*
X331504Y850037D01*
X331787Y849378D01*
X332053Y848713D01*
X332303Y848041D01*
X332536Y847363D01*
X332752Y846679D01*
X332952Y845991D01*
X333135Y845297D01*
X333300Y844600D01*
X333449Y843899D01*
X333580Y843194D01*
X333694Y842486D01*
X333790Y841776D01*
X333869Y841063D01*
X333931Y840349D01*
X333975Y839633D01*
X334001Y838917D01*
X334010Y838200D01*
X334001Y837483D01*
X333975Y836767D01*
X333931Y836051D01*
X333869Y835337D01*
X333790Y834624D01*
X333694Y833914D01*
X333580Y833206D01*
X333449Y832501D01*
X333300Y831800D01*
X333135Y831103D01*
X332952Y830409D01*
X332752Y829721D01*
X332536Y829037D01*
X332303Y828359D01*
X332053Y827687D01*
X331787Y827022D01*
X331504Y826363D01*
X331206Y825711D01*
X330891Y825067D01*
X330561Y824431D01*
X330215Y823802D01*
X329854Y823183D01*
X329478Y822573D01*
X329087Y821972D01*
X328682Y821381D01*
X328262Y820800D01*
X327828Y820229D01*
X327380Y819669D01*
X326918Y819121D01*
X326443Y818584D01*
X325955Y818059D01*
X325455Y817545D01*
X324941Y817045D01*
X324416Y816557D01*
X323879Y816082D01*
X323331Y815620D01*
X322771Y815172D01*
X322200Y814738D01*
X321619Y814318D01*
X321028Y813913D01*
X320427Y813522D01*
X319817Y813146D01*
X319198Y812785D01*
X318569Y812439D01*
X317933Y812109D01*
X317289Y811794D01*
X316637Y811496D01*
X315978Y811213D01*
X315313Y810947D01*
X314641Y810697D01*
X313963Y810464D01*
X313279Y810248D01*
X312591Y810048D01*
X311897Y809865D01*
X311200Y809700D01*
X310499Y809551D01*
X309794Y809420D01*
X309086Y809306D01*
X308376Y809210D01*
X307663Y809131D01*
X306949Y809069D01*
X306233Y809025D01*
X305517Y808999D01*
X304800Y808990D01*
X304083Y808999D01*
X303367Y809025D01*
X302651Y809069D01*
X301937Y809131D01*
X301224Y809210D01*
X300514Y809306D01*
X299806Y809420D01*
X299101Y809551D01*
X298400Y809700D01*
X297703Y809865D01*
X297009Y810048D01*
X296321Y810248D01*
X295637Y810464D01*
X294959Y810697D01*
X294287Y810947D01*
X293622Y811213D01*
X292963Y811496D01*
X292311Y811794D01*
X291667Y812109D01*
X291031Y812439D01*
X290402Y812785D01*
X289783Y813146D01*
X289173Y813522D01*
X288572Y813913D01*
X287981Y814318D01*
X287400Y814738D01*
X286829Y815172D01*
X286269Y815620D01*
X285721Y816082D01*
X285184Y816557D01*
X284659Y817045D01*
X284145Y817545D01*
X283645Y818059D01*
X283157Y818584D01*
X282682Y819121D01*
X282220Y819669D01*
X281772Y820229D01*
X281338Y820800D01*
X280918Y821381D01*
X280513Y821972D01*
X280122Y822573D01*
X279746Y823183D01*
X279385Y823802D01*
X279039Y824431D01*
X278709Y825067D01*
X278394Y825711D01*
X278096Y826363D01*
X277813Y827022D01*
X277547Y827687D01*
X277297Y828359D01*
X277064Y829037D01*
X276848Y829721D01*
X276648Y830409D01*
X276465Y831103D01*
X276300Y831800D01*
X276151Y832501D01*
X276020Y833206D01*
X275906Y833914D01*
X275810Y834624D01*
X275731Y835337D01*
X275669Y836051D01*
X275625Y836767D01*
X275599Y837483D01*
X275590Y838200D01*
D13*
X289800Y838200D02*
X289805Y838568D01*
X289818Y838936D01*
X289841Y839303D01*
X289872Y839670D01*
X289913Y840036D01*
X289962Y840401D01*
X290021Y840764D01*
X290088Y841126D01*
X290164Y841487D01*
X290250Y841845D01*
X290343Y842201D01*
X290446Y842554D01*
X290557Y842905D01*
X290677Y843253D01*
X290805Y843598D01*
X290942Y843940D01*
X291087Y844279D01*
X291240Y844613D01*
X291402Y844944D01*
X291571Y845271D01*
X291749Y845593D01*
X291934Y845912D01*
X292127Y846225D01*
X292328Y846534D01*
X292536Y846837D01*
X292752Y847135D01*
X292975Y847428D01*
X293205Y847716D01*
X293442Y847998D01*
X293686Y848273D01*
X293936Y848543D01*
X294193Y848807D01*
X294457Y849064D01*
X294727Y849314D01*
X295002Y849558D01*
X295284Y849795D01*
X295572Y850025D01*
X295865Y850248D01*
X296163Y850464D01*
X296466Y850672D01*
X296775Y850873D01*
X297088Y851066D01*
X297407Y851251D01*
X297729Y851429D01*
X298056Y851598D01*
X298387Y851760D01*
X298721Y851913D01*
X299060Y852058D01*
X299402Y852195D01*
X299747Y852323D01*
X300095Y852443D01*
X300446Y852554D01*
X300799Y852657D01*
X301155Y852750D01*
X301513Y852836D01*
X301874Y852912D01*
X302236Y852979D01*
X302599Y853038D01*
X302964Y853087D01*
X303330Y853128D01*
X303697Y853159D01*
X304064Y853182D01*
X304432Y853195D01*
X304800Y853200D01*
X305168Y853195D01*
X305536Y853182D01*
X305903Y853159D01*
X306270Y853128D01*
X306636Y853087D01*
X307001Y853038D01*
X307364Y852979D01*
X307726Y852912D01*
X308087Y852836D01*
X308445Y852750D01*
X308801Y852657D01*
X309154Y852554D01*
X309505Y852443D01*
X309853Y852323D01*
X310198Y852195D01*
X310540Y852058D01*
X310879Y851913D01*
X311213Y851760D01*
X311544Y851598D01*
X311871Y851429D01*
X312193Y851251D01*
X312512Y851066D01*
X312825Y850873D01*
X313134Y850672D01*
X313437Y850464D01*
X313735Y850248D01*
X314028Y850025D01*
X314316Y849795D01*
X314598Y849558D01*
X314873Y849314D01*
X315143Y849064D01*
X315407Y848807D01*
X315664Y848543D01*
X315914Y848273D01*
X316158Y847998D01*
X316395Y847716D01*
X316625Y847428D01*
X316848Y847135D01*
X317064Y846837D01*
X317272Y846534D01*
X317473Y846225D01*
X317666Y845912D01*
X317851Y845593D01*
X318029Y845271D01*
X318198Y844944D01*
X318360Y844613D01*
X318513Y844279D01*
X318658Y843940D01*
X318795Y843598D01*
X318923Y843253D01*
X319043Y842905D01*
X319154Y842554D01*
X319257Y842201D01*
X319350Y841845D01*
X319436Y841487D01*
X319512Y841126D01*
X319579Y840764D01*
X319638Y840401D01*
X319687Y840036D01*
X319728Y839670D01*
X319759Y839303D01*
X319782Y838936D01*
X319795Y838568D01*
X319800Y838200D01*
X319795Y837832D01*
X319782Y837464D01*
X319759Y837097D01*
X319728Y836730D01*
X319687Y836364D01*
X319638Y835999D01*
X319579Y835636D01*
X319512Y835274D01*
X319436Y834913D01*
X319350Y834555D01*
X319257Y834199D01*
X319154Y833846D01*
X319043Y833495D01*
X318923Y833147D01*
X318795Y832802D01*
X318658Y832460D01*
X318513Y832121D01*
X318360Y831787D01*
X318198Y831456D01*
X318029Y831129D01*
X317851Y830807D01*
X317666Y830488D01*
X317473Y830175D01*
X317272Y829866D01*
X317064Y829563D01*
X316848Y829265D01*
X316625Y828972D01*
X316395Y828684D01*
X316158Y828402D01*
X315914Y828127D01*
X315664Y827857D01*
X315407Y827593D01*
X315143Y827336D01*
X314873Y827086D01*
X314598Y826842D01*
X314316Y826605D01*
X314028Y826375D01*
X313735Y826152D01*
X313437Y825936D01*
X313134Y825728D01*
X312825Y825527D01*
X312512Y825334D01*
X312193Y825149D01*
X311871Y824971D01*
X311544Y824802D01*
X311213Y824640D01*
X310879Y824487D01*
X310540Y824342D01*
X310198Y824205D01*
X309853Y824077D01*
X309505Y823957D01*
X309154Y823846D01*
X308801Y823743D01*
X308445Y823650D01*
X308087Y823564D01*
X307726Y823488D01*
X307364Y823421D01*
X307001Y823362D01*
X306636Y823313D01*
X306270Y823272D01*
X305903Y823241D01*
X305536Y823218D01*
X305168Y823205D01*
X304800Y823200D01*
X304432Y823205D01*
X304064Y823218D01*
X303697Y823241D01*
X303330Y823272D01*
X302964Y823313D01*
X302599Y823362D01*
X302236Y823421D01*
X301874Y823488D01*
X301513Y823564D01*
X301155Y823650D01*
X300799Y823743D01*
X300446Y823846D01*
X300095Y823957D01*
X299747Y824077D01*
X299402Y824205D01*
X299060Y824342D01*
X298721Y824487D01*
X298387Y824640D01*
X298056Y824802D01*
X297729Y824971D01*
X297407Y825149D01*
X297088Y825334D01*
X296775Y825527D01*
X296466Y825728D01*
X296163Y825936D01*
X295865Y826152D01*
X295572Y826375D01*
X295284Y826605D01*
X295002Y826842D01*
X294727Y827086D01*
X294457Y827336D01*
X294193Y827593D01*
X293936Y827857D01*
X293686Y828127D01*
X293442Y828402D01*
X293205Y828684D01*
X292975Y828972D01*
X292752Y829265D01*
X292536Y829563D01*
X292328Y829866D01*
X292127Y830175D01*
X291934Y830488D01*
X291749Y830807D01*
X291571Y831129D01*
X291402Y831456D01*
X291240Y831787D01*
X291087Y832121D01*
X290942Y832460D01*
X290805Y832802D01*
X290677Y833147D01*
X290557Y833495D01*
X290446Y833846D01*
X290343Y834199D01*
X290250Y834555D01*
X290164Y834913D01*
X290088Y835274D01*
X290021Y835636D01*
X289962Y835999D01*
X289913Y836364D01*
X289872Y836730D01*
X289841Y837097D01*
X289818Y837464D01*
X289805Y837832D01*
X289800Y838200D01*
D17*
X8890Y101600D02*
X8899Y102317D01*
X8925Y103033D01*
X8969Y103749D01*
X9031Y104463D01*
X9110Y105176D01*
X9206Y105886D01*
X9320Y106594D01*
X9451Y107299D01*
X9600Y108000D01*
X9765Y108697D01*
X9948Y109391D01*
X10148Y110079D01*
X10364Y110763D01*
X10597Y111441D01*
X10847Y112113D01*
X11113Y112778D01*
X11396Y113437D01*
X11694Y114089D01*
X12009Y114733D01*
X12339Y115369D01*
X12685Y115998D01*
X13046Y116617D01*
X13422Y117227D01*
X13813Y117828D01*
X14218Y118419D01*
X14638Y119000D01*
X15072Y119571D01*
X15520Y120131D01*
X15982Y120679D01*
X16457Y121216D01*
X16945Y121741D01*
X17445Y122255D01*
X17959Y122755D01*
X18484Y123243D01*
X19021Y123718D01*
X19569Y124180D01*
X20129Y124628D01*
X20700Y125062D01*
X21281Y125482D01*
X21872Y125887D01*
X22473Y126278D01*
X23083Y126654D01*
X23702Y127015D01*
X24331Y127361D01*
X24967Y127691D01*
X25611Y128006D01*
X26263Y128304D01*
X26922Y128587D01*
X27587Y128853D01*
X28259Y129103D01*
X28937Y129336D01*
X29621Y129552D01*
X30309Y129752D01*
X31003Y129935D01*
X31700Y130100D01*
X32401Y130249D01*
X33106Y130380D01*
X33814Y130494D01*
X34524Y130590D01*
X35237Y130669D01*
X35951Y130731D01*
X36667Y130775D01*
X37383Y130801D01*
X38100Y130810D01*
X38817Y130801D01*
X39533Y130775D01*
X40249Y130731D01*
X40963Y130669D01*
X41676Y130590D01*
X42386Y130494D01*
X43094Y130380D01*
X43799Y130249D01*
X44500Y130100D01*
X45197Y129935D01*
X45891Y129752D01*
X46579Y129552D01*
X47263Y129336D01*
X47941Y129103D01*
X48613Y128853D01*
X49278Y128587D01*
X49937Y128304D01*
X50589Y128006D01*
X51233Y127691D01*
X51869Y127361D01*
X52498Y127015D01*
X53117Y126654D01*
X53727Y126278D01*
X54328Y125887D01*
X54919Y125482D01*
X55500Y125062D01*
X56071Y124628D01*
X56631Y124180D01*
X57179Y123718D01*
X57716Y123243D01*
X58241Y122755D01*
X58755Y122255D01*
X59255Y121741D01*
X59743Y121216D01*
X60218Y120679D01*
X60680Y120131D01*
X61128Y119571D01*
X61562Y119000D01*
X61982Y118419D01*
X62387Y117828D01*
X62778Y117227D01*
X63154Y116617D01*
X63515Y115998D01*
X63861Y115369D01*
X64191Y114733D01*
X64506Y114089D01*
X64804Y113437D01*
X65087Y112778D01*
X65353Y112113D01*
X65603Y111441D01*
X65836Y110763D01*
X66052Y110079D01*
X66252Y109391D01*
X66435Y108697D01*
X66600Y108000D01*
X66749Y107299D01*
X66880Y106594D01*
X66994Y105886D01*
X67090Y105176D01*
X67169Y104463D01*
X67231Y103749D01*
X67275Y103033D01*
X67301Y102317D01*
X67310Y101600D01*
X67301Y100883D01*
X67275Y100167D01*
X67231Y99451D01*
X67169Y98737D01*
X67090Y98024D01*
X66994Y97314D01*
X66880Y96606D01*
X66749Y95901D01*
X66600Y95200D01*
X66435Y94503D01*
X66252Y93809D01*
X66052Y93121D01*
X65836Y92437D01*
X65603Y91759D01*
X65353Y91087D01*
X65087Y90422D01*
X64804Y89763D01*
X64506Y89111D01*
X64191Y88467D01*
X63861Y87831D01*
X63515Y87202D01*
X63154Y86583D01*
X62778Y85973D01*
X62387Y85372D01*
X61982Y84781D01*
X61562Y84200D01*
X61128Y83629D01*
X60680Y83069D01*
X60218Y82521D01*
X59743Y81984D01*
X59255Y81459D01*
X58755Y80945D01*
X58241Y80445D01*
X57716Y79957D01*
X57179Y79482D01*
X56631Y79020D01*
X56071Y78572D01*
X55500Y78138D01*
X54919Y77718D01*
X54328Y77313D01*
X53727Y76922D01*
X53117Y76546D01*
X52498Y76185D01*
X51869Y75839D01*
X51233Y75509D01*
X50589Y75194D01*
X49937Y74896D01*
X49278Y74613D01*
X48613Y74347D01*
X47941Y74097D01*
X47263Y73864D01*
X46579Y73648D01*
X45891Y73448D01*
X45197Y73265D01*
X44500Y73100D01*
X43799Y72951D01*
X43094Y72820D01*
X42386Y72706D01*
X41676Y72610D01*
X40963Y72531D01*
X40249Y72469D01*
X39533Y72425D01*
X38817Y72399D01*
X38100Y72390D01*
X37383Y72399D01*
X36667Y72425D01*
X35951Y72469D01*
X35237Y72531D01*
X34524Y72610D01*
X33814Y72706D01*
X33106Y72820D01*
X32401Y72951D01*
X31700Y73100D01*
X31003Y73265D01*
X30309Y73448D01*
X29621Y73648D01*
X28937Y73864D01*
X28259Y74097D01*
X27587Y74347D01*
X26922Y74613D01*
X26263Y74896D01*
X25611Y75194D01*
X24967Y75509D01*
X24331Y75839D01*
X23702Y76185D01*
X23083Y76546D01*
X22473Y76922D01*
X21872Y77313D01*
X21281Y77718D01*
X20700Y78138D01*
X20129Y78572D01*
X19569Y79020D01*
X19021Y79482D01*
X18484Y79957D01*
X17959Y80445D01*
X17445Y80945D01*
X16945Y81459D01*
X16457Y81984D01*
X15982Y82521D01*
X15520Y83069D01*
X15072Y83629D01*
X14638Y84200D01*
X14218Y84781D01*
X13813Y85372D01*
X13422Y85973D01*
X13046Y86583D01*
X12685Y87202D01*
X12339Y87831D01*
X12009Y88467D01*
X11694Y89111D01*
X11396Y89763D01*
X11113Y90422D01*
X10847Y91087D01*
X10597Y91759D01*
X10364Y92437D01*
X10148Y93121D01*
X9948Y93809D01*
X9765Y94503D01*
X9600Y95200D01*
X9451Y95901D01*
X9320Y96606D01*
X9206Y97314D01*
X9110Y98024D01*
X9031Y98737D01*
X8969Y99451D01*
X8925Y100167D01*
X8899Y100883D01*
X8890Y101600D01*
D13*
X23100Y101600D02*
X23105Y101968D01*
X23118Y102336D01*
X23141Y102703D01*
X23172Y103070D01*
X23213Y103436D01*
X23262Y103801D01*
X23321Y104164D01*
X23388Y104526D01*
X23464Y104887D01*
X23550Y105245D01*
X23643Y105601D01*
X23746Y105954D01*
X23857Y106305D01*
X23977Y106653D01*
X24105Y106998D01*
X24242Y107340D01*
X24387Y107679D01*
X24540Y108013D01*
X24702Y108344D01*
X24871Y108671D01*
X25049Y108993D01*
X25234Y109312D01*
X25427Y109625D01*
X25628Y109934D01*
X25836Y110237D01*
X26052Y110535D01*
X26275Y110828D01*
X26505Y111116D01*
X26742Y111398D01*
X26986Y111673D01*
X27236Y111943D01*
X27493Y112207D01*
X27757Y112464D01*
X28027Y112714D01*
X28302Y112958D01*
X28584Y113195D01*
X28872Y113425D01*
X29165Y113648D01*
X29463Y113864D01*
X29766Y114072D01*
X30075Y114273D01*
X30388Y114466D01*
X30707Y114651D01*
X31029Y114829D01*
X31356Y114998D01*
X31687Y115160D01*
X32021Y115313D01*
X32360Y115458D01*
X32702Y115595D01*
X33047Y115723D01*
X33395Y115843D01*
X33746Y115954D01*
X34099Y116057D01*
X34455Y116150D01*
X34813Y116236D01*
X35174Y116312D01*
X35536Y116379D01*
X35899Y116438D01*
X36264Y116487D01*
X36630Y116528D01*
X36997Y116559D01*
X37364Y116582D01*
X37732Y116595D01*
X38100Y116600D01*
X38468Y116595D01*
X38836Y116582D01*
X39203Y116559D01*
X39570Y116528D01*
X39936Y116487D01*
X40301Y116438D01*
X40664Y116379D01*
X41026Y116312D01*
X41387Y116236D01*
X41745Y116150D01*
X42101Y116057D01*
X42454Y115954D01*
X42805Y115843D01*
X43153Y115723D01*
X43498Y115595D01*
X43840Y115458D01*
X44179Y115313D01*
X44513Y115160D01*
X44844Y114998D01*
X45171Y114829D01*
X45493Y114651D01*
X45812Y114466D01*
X46125Y114273D01*
X46434Y114072D01*
X46737Y113864D01*
X47035Y113648D01*
X47328Y113425D01*
X47616Y113195D01*
X47898Y112958D01*
X48173Y112714D01*
X48443Y112464D01*
X48707Y112207D01*
X48964Y111943D01*
X49214Y111673D01*
X49458Y111398D01*
X49695Y111116D01*
X49925Y110828D01*
X50148Y110535D01*
X50364Y110237D01*
X50572Y109934D01*
X50773Y109625D01*
X50966Y109312D01*
X51151Y108993D01*
X51329Y108671D01*
X51498Y108344D01*
X51660Y108013D01*
X51813Y107679D01*
X51958Y107340D01*
X52095Y106998D01*
X52223Y106653D01*
X52343Y106305D01*
X52454Y105954D01*
X52557Y105601D01*
X52650Y105245D01*
X52736Y104887D01*
X52812Y104526D01*
X52879Y104164D01*
X52938Y103801D01*
X52987Y103436D01*
X53028Y103070D01*
X53059Y102703D01*
X53082Y102336D01*
X53095Y101968D01*
X53100Y101600D01*
X53095Y101232D01*
X53082Y100864D01*
X53059Y100497D01*
X53028Y100130D01*
X52987Y99764D01*
X52938Y99399D01*
X52879Y99036D01*
X52812Y98674D01*
X52736Y98313D01*
X52650Y97955D01*
X52557Y97599D01*
X52454Y97246D01*
X52343Y96895D01*
X52223Y96547D01*
X52095Y96202D01*
X51958Y95860D01*
X51813Y95521D01*
X51660Y95187D01*
X51498Y94856D01*
X51329Y94529D01*
X51151Y94207D01*
X50966Y93888D01*
X50773Y93575D01*
X50572Y93266D01*
X50364Y92963D01*
X50148Y92665D01*
X49925Y92372D01*
X49695Y92084D01*
X49458Y91802D01*
X49214Y91527D01*
X48964Y91257D01*
X48707Y90993D01*
X48443Y90736D01*
X48173Y90486D01*
X47898Y90242D01*
X47616Y90005D01*
X47328Y89775D01*
X47035Y89552D01*
X46737Y89336D01*
X46434Y89128D01*
X46125Y88927D01*
X45812Y88734D01*
X45493Y88549D01*
X45171Y88371D01*
X44844Y88202D01*
X44513Y88040D01*
X44179Y87887D01*
X43840Y87742D01*
X43498Y87605D01*
X43153Y87477D01*
X42805Y87357D01*
X42454Y87246D01*
X42101Y87143D01*
X41745Y87050D01*
X41387Y86964D01*
X41026Y86888D01*
X40664Y86821D01*
X40301Y86762D01*
X39936Y86713D01*
X39570Y86672D01*
X39203Y86641D01*
X38836Y86618D01*
X38468Y86605D01*
X38100Y86600D01*
X37732Y86605D01*
X37364Y86618D01*
X36997Y86641D01*
X36630Y86672D01*
X36264Y86713D01*
X35899Y86762D01*
X35536Y86821D01*
X35174Y86888D01*
X34813Y86964D01*
X34455Y87050D01*
X34099Y87143D01*
X33746Y87246D01*
X33395Y87357D01*
X33047Y87477D01*
X32702Y87605D01*
X32360Y87742D01*
X32021Y87887D01*
X31687Y88040D01*
X31356Y88202D01*
X31029Y88371D01*
X30707Y88549D01*
X30388Y88734D01*
X30075Y88927D01*
X29766Y89128D01*
X29463Y89336D01*
X29165Y89552D01*
X28872Y89775D01*
X28584Y90005D01*
X28302Y90242D01*
X28027Y90486D01*
X27757Y90736D01*
X27493Y90993D01*
X27236Y91257D01*
X26986Y91527D01*
X26742Y91802D01*
X26505Y92084D01*
X26275Y92372D01*
X26052Y92665D01*
X25836Y92963D01*
X25628Y93266D01*
X25427Y93575D01*
X25234Y93888D01*
X25049Y94207D01*
X24871Y94529D01*
X24702Y94856D01*
X24540Y95187D01*
X24387Y95521D01*
X24242Y95860D01*
X24105Y96202D01*
X23977Y96547D01*
X23857Y96895D01*
X23746Y97246D01*
X23643Y97599D01*
X23550Y97955D01*
X23464Y98313D01*
X23388Y98674D01*
X23321Y99036D01*
X23262Y99399D01*
X23213Y99764D01*
X23172Y100130D01*
X23141Y100497D01*
X23118Y100864D01*
X23105Y101232D01*
X23100Y101600D01*
D17*
X275590Y101600D02*
X275599Y102317D01*
X275625Y103033D01*
X275669Y103749D01*
X275731Y104463D01*
X275810Y105176D01*
X275906Y105886D01*
X276020Y106594D01*
X276151Y107299D01*
X276300Y108000D01*
X276465Y108697D01*
X276648Y109391D01*
X276848Y110079D01*
X277064Y110763D01*
X277297Y111441D01*
X277547Y112113D01*
X277813Y112778D01*
X278096Y113437D01*
X278394Y114089D01*
X278709Y114733D01*
X279039Y115369D01*
X279385Y115998D01*
X279746Y116617D01*
X280122Y117227D01*
X280513Y117828D01*
X280918Y118419D01*
X281338Y119000D01*
X281772Y119571D01*
X282220Y120131D01*
X282682Y120679D01*
X283157Y121216D01*
X283645Y121741D01*
X284145Y122255D01*
X284659Y122755D01*
X285184Y123243D01*
X285721Y123718D01*
X286269Y124180D01*
X286829Y124628D01*
X287400Y125062D01*
X287981Y125482D01*
X288572Y125887D01*
X289173Y126278D01*
X289783Y126654D01*
X290402Y127015D01*
X291031Y127361D01*
X291667Y127691D01*
X292311Y128006D01*
X292963Y128304D01*
X293622Y128587D01*
X294287Y128853D01*
X294959Y129103D01*
X295637Y129336D01*
X296321Y129552D01*
X297009Y129752D01*
X297703Y129935D01*
X298400Y130100D01*
X299101Y130249D01*
X299806Y130380D01*
X300514Y130494D01*
X301224Y130590D01*
X301937Y130669D01*
X302651Y130731D01*
X303367Y130775D01*
X304083Y130801D01*
X304800Y130810D01*
X305517Y130801D01*
X306233Y130775D01*
X306949Y130731D01*
X307663Y130669D01*
X308376Y130590D01*
X309086Y130494D01*
X309794Y130380D01*
X310499Y130249D01*
X311200Y130100D01*
X311897Y129935D01*
X312591Y129752D01*
X313279Y129552D01*
X313963Y129336D01*
X314641Y129103D01*
X315313Y128853D01*
X315978Y128587D01*
X316637Y128304D01*
X317289Y128006D01*
X317933Y127691D01*
X318569Y127361D01*
X319198Y127015D01*
X319817Y126654D01*
X320427Y126278D01*
X321028Y125887D01*
X321619Y125482D01*
X322200Y125062D01*
X322771Y124628D01*
X323331Y124180D01*
X323879Y123718D01*
X324416Y123243D01*
X324941Y122755D01*
X325455Y122255D01*
X325955Y121741D01*
X326443Y121216D01*
X326918Y120679D01*
X327380Y120131D01*
X327828Y119571D01*
X328262Y119000D01*
X328682Y118419D01*
X329087Y117828D01*
X329478Y117227D01*
X329854Y116617D01*
X330215Y115998D01*
X330561Y115369D01*
X330891Y114733D01*
X331206Y114089D01*
X331504Y113437D01*
X331787Y112778D01*
X332053Y112113D01*
X332303Y111441D01*
X332536Y110763D01*
X332752Y110079D01*
X332952Y109391D01*
X333135Y108697D01*
X333300Y108000D01*
X333449Y107299D01*
X333580Y106594D01*
X333694Y105886D01*
X333790Y105176D01*
X333869Y104463D01*
X333931Y103749D01*
X333975Y103033D01*
X334001Y102317D01*
X334010Y101600D01*
X334001Y100883D01*
X333975Y100167D01*
X333931Y99451D01*
X333869Y98737D01*
X333790Y98024D01*
X333694Y97314D01*
X333580Y96606D01*
X333449Y95901D01*
X333300Y95200D01*
X333135Y94503D01*
X332952Y93809D01*
X332752Y93121D01*
X332536Y92437D01*
X332303Y91759D01*
X332053Y91087D01*
X331787Y90422D01*
X331504Y89763D01*
X331206Y89111D01*
X330891Y88467D01*
X330561Y87831D01*
X330215Y87202D01*
X329854Y86583D01*
X329478Y85973D01*
X329087Y85372D01*
X328682Y84781D01*
X328262Y84200D01*
X327828Y83629D01*
X327380Y83069D01*
X326918Y82521D01*
X326443Y81984D01*
X325955Y81459D01*
X325455Y80945D01*
X324941Y80445D01*
X324416Y79957D01*
X323879Y79482D01*
X323331Y79020D01*
X322771Y78572D01*
X322200Y78138D01*
X321619Y77718D01*
X321028Y77313D01*
X320427Y76922D01*
X319817Y76546D01*
X319198Y76185D01*
X318569Y75839D01*
X317933Y75509D01*
X317289Y75194D01*
X316637Y74896D01*
X315978Y74613D01*
X315313Y74347D01*
X314641Y74097D01*
X313963Y73864D01*
X313279Y73648D01*
X312591Y73448D01*
X311897Y73265D01*
X311200Y73100D01*
X310499Y72951D01*
X309794Y72820D01*
X309086Y72706D01*
X308376Y72610D01*
X307663Y72531D01*
X306949Y72469D01*
X306233Y72425D01*
X305517Y72399D01*
X304800Y72390D01*
X304083Y72399D01*
X303367Y72425D01*
X302651Y72469D01*
X301937Y72531D01*
X301224Y72610D01*
X300514Y72706D01*
X299806Y72820D01*
X299101Y72951D01*
X298400Y73100D01*
X297703Y73265D01*
X297009Y73448D01*
X296321Y73648D01*
X295637Y73864D01*
X294959Y74097D01*
X294287Y74347D01*
X293622Y74613D01*
X292963Y74896D01*
X292311Y75194D01*
X291667Y75509D01*
X291031Y75839D01*
X290402Y76185D01*
X289783Y76546D01*
X289173Y76922D01*
X288572Y77313D01*
X287981Y77718D01*
X287400Y78138D01*
X286829Y78572D01*
X286269Y79020D01*
X285721Y79482D01*
X285184Y79957D01*
X284659Y80445D01*
X284145Y80945D01*
X283645Y81459D01*
X283157Y81984D01*
X282682Y82521D01*
X282220Y83069D01*
X281772Y83629D01*
X281338Y84200D01*
X280918Y84781D01*
X280513Y85372D01*
X280122Y85973D01*
X279746Y86583D01*
X279385Y87202D01*
X279039Y87831D01*
X278709Y88467D01*
X278394Y89111D01*
X278096Y89763D01*
X277813Y90422D01*
X277547Y91087D01*
X277297Y91759D01*
X277064Y92437D01*
X276848Y93121D01*
X276648Y93809D01*
X276465Y94503D01*
X276300Y95200D01*
X276151Y95901D01*
X276020Y96606D01*
X275906Y97314D01*
X275810Y98024D01*
X275731Y98737D01*
X275669Y99451D01*
X275625Y100167D01*
X275599Y100883D01*
X275590Y101600D01*
D13*
X289800Y101600D02*
X289805Y101968D01*
X289818Y102336D01*
X289841Y102703D01*
X289872Y103070D01*
X289913Y103436D01*
X289962Y103801D01*
X290021Y104164D01*
X290088Y104526D01*
X290164Y104887D01*
X290250Y105245D01*
X290343Y105601D01*
X290446Y105954D01*
X290557Y106305D01*
X290677Y106653D01*
X290805Y106998D01*
X290942Y107340D01*
X291087Y107679D01*
X291240Y108013D01*
X291402Y108344D01*
X291571Y108671D01*
X291749Y108993D01*
X291934Y109312D01*
X292127Y109625D01*
X292328Y109934D01*
X292536Y110237D01*
X292752Y110535D01*
X292975Y110828D01*
X293205Y111116D01*
X293442Y111398D01*
X293686Y111673D01*
X293936Y111943D01*
X294193Y112207D01*
X294457Y112464D01*
X294727Y112714D01*
X295002Y112958D01*
X295284Y113195D01*
X295572Y113425D01*
X295865Y113648D01*
X296163Y113864D01*
X296466Y114072D01*
X296775Y114273D01*
X297088Y114466D01*
X297407Y114651D01*
X297729Y114829D01*
X298056Y114998D01*
X298387Y115160D01*
X298721Y115313D01*
X299060Y115458D01*
X299402Y115595D01*
X299747Y115723D01*
X300095Y115843D01*
X300446Y115954D01*
X300799Y116057D01*
X301155Y116150D01*
X301513Y116236D01*
X301874Y116312D01*
X302236Y116379D01*
X302599Y116438D01*
X302964Y116487D01*
X303330Y116528D01*
X303697Y116559D01*
X304064Y116582D01*
X304432Y116595D01*
X304800Y116600D01*
X305168Y116595D01*
X305536Y116582D01*
X305903Y116559D01*
X306270Y116528D01*
X306636Y116487D01*
X307001Y116438D01*
X307364Y116379D01*
X307726Y116312D01*
X308087Y116236D01*
X308445Y116150D01*
X308801Y116057D01*
X309154Y115954D01*
X309505Y115843D01*
X309853Y115723D01*
X310198Y115595D01*
X310540Y115458D01*
X310879Y115313D01*
X311213Y115160D01*
X311544Y114998D01*
X311871Y114829D01*
X312193Y114651D01*
X312512Y114466D01*
X312825Y114273D01*
X313134Y114072D01*
X313437Y113864D01*
X313735Y113648D01*
X314028Y113425D01*
X314316Y113195D01*
X314598Y112958D01*
X314873Y112714D01*
X315143Y112464D01*
X315407Y112207D01*
X315664Y111943D01*
X315914Y111673D01*
X316158Y111398D01*
X316395Y111116D01*
X316625Y110828D01*
X316848Y110535D01*
X317064Y110237D01*
X317272Y109934D01*
X317473Y109625D01*
X317666Y109312D01*
X317851Y108993D01*
X318029Y108671D01*
X318198Y108344D01*
X318360Y108013D01*
X318513Y107679D01*
X318658Y107340D01*
X318795Y106998D01*
X318923Y106653D01*
X319043Y106305D01*
X319154Y105954D01*
X319257Y105601D01*
X319350Y105245D01*
X319436Y104887D01*
X319512Y104526D01*
X319579Y104164D01*
X319638Y103801D01*
X319687Y103436D01*
X319728Y103070D01*
X319759Y102703D01*
X319782Y102336D01*
X319795Y101968D01*
X319800Y101600D01*
X319795Y101232D01*
X319782Y100864D01*
X319759Y100497D01*
X319728Y100130D01*
X319687Y99764D01*
X319638Y99399D01*
X319579Y99036D01*
X319512Y98674D01*
X319436Y98313D01*
X319350Y97955D01*
X319257Y97599D01*
X319154Y97246D01*
X319043Y96895D01*
X318923Y96547D01*
X318795Y96202D01*
X318658Y95860D01*
X318513Y95521D01*
X318360Y95187D01*
X318198Y94856D01*
X318029Y94529D01*
X317851Y94207D01*
X317666Y93888D01*
X317473Y93575D01*
X317272Y93266D01*
X317064Y92963D01*
X316848Y92665D01*
X316625Y92372D01*
X316395Y92084D01*
X316158Y91802D01*
X315914Y91527D01*
X315664Y91257D01*
X315407Y90993D01*
X315143Y90736D01*
X314873Y90486D01*
X314598Y90242D01*
X314316Y90005D01*
X314028Y89775D01*
X313735Y89552D01*
X313437Y89336D01*
X313134Y89128D01*
X312825Y88927D01*
X312512Y88734D01*
X312193Y88549D01*
X311871Y88371D01*
X311544Y88202D01*
X311213Y88040D01*
X310879Y87887D01*
X310540Y87742D01*
X310198Y87605D01*
X309853Y87477D01*
X309505Y87357D01*
X309154Y87246D01*
X308801Y87143D01*
X308445Y87050D01*
X308087Y86964D01*
X307726Y86888D01*
X307364Y86821D01*
X307001Y86762D01*
X306636Y86713D01*
X306270Y86672D01*
X305903Y86641D01*
X305536Y86618D01*
X305168Y86605D01*
X304800Y86600D01*
X304432Y86605D01*
X304064Y86618D01*
X303697Y86641D01*
X303330Y86672D01*
X302964Y86713D01*
X302599Y86762D01*
X302236Y86821D01*
X301874Y86888D01*
X301513Y86964D01*
X301155Y87050D01*
X300799Y87143D01*
X300446Y87246D01*
X300095Y87357D01*
X299747Y87477D01*
X299402Y87605D01*
X299060Y87742D01*
X298721Y87887D01*
X298387Y88040D01*
X298056Y88202D01*
X297729Y88371D01*
X297407Y88549D01*
X297088Y88734D01*
X296775Y88927D01*
X296466Y89128D01*
X296163Y89336D01*
X295865Y89552D01*
X295572Y89775D01*
X295284Y90005D01*
X295002Y90242D01*
X294727Y90486D01*
X294457Y90736D01*
X294193Y90993D01*
X293936Y91257D01*
X293686Y91527D01*
X293442Y91802D01*
X293205Y92084D01*
X292975Y92372D01*
X292752Y92665D01*
X292536Y92963D01*
X292328Y93266D01*
X292127Y93575D01*
X291934Y93888D01*
X291749Y94207D01*
X291571Y94529D01*
X291402Y94856D01*
X291240Y95187D01*
X291087Y95521D01*
X290942Y95860D01*
X290805Y96202D01*
X290677Y96547D01*
X290557Y96895D01*
X290446Y97246D01*
X290343Y97599D01*
X290250Y97955D01*
X290164Y98313D01*
X290088Y98674D01*
X290021Y99036D01*
X289962Y99399D01*
X289913Y99764D01*
X289872Y100130D01*
X289841Y100497D01*
X289818Y100864D01*
X289805Y101232D01*
X289800Y101600D01*
M02*
