G04 EAGLE Gerber RS-274X export*
G75*
%MOMM*%
%FSLAX34Y34*%
%LPD*%
%INSoldermask Bottom*%
%IPPOS*%
%AMOC8*
5,1,8,0,0,1.08239X$1,22.5*%
G01*
%ADD10C,2.082800*%
%ADD11P,2.034460X8X22.500000*%
%ADD12C,1.625600*%
%ADD13R,1.625600X1.625600*%
%ADD14C,3.003200*%
%ADD15C,1.117600*%


D10*
X98900Y241300D03*
X98900Y215900D03*
X98900Y190500D03*
X98900Y165100D03*
X98900Y139700D03*
X98900Y114300D03*
X98900Y88900D03*
X248900Y88900D03*
X248900Y114300D03*
X248900Y139700D03*
X248900Y165100D03*
X248900Y190500D03*
X248900Y215900D03*
X248900Y241300D03*
D11*
X88900Y342900D03*
X114300Y342900D03*
D10*
X127000Y584200D03*
X203200Y584200D03*
X127000Y508000D03*
X203200Y508000D03*
X208788Y365506D03*
X273812Y365506D03*
X208788Y320294D03*
X273812Y320294D03*
D12*
X55100Y446500D03*
X55100Y466500D03*
X55100Y486500D03*
X55100Y506500D03*
X55100Y526500D03*
X55100Y546500D03*
X55100Y566500D03*
X55100Y586500D03*
X55100Y606500D03*
D13*
X55100Y626500D03*
D12*
X275100Y446500D03*
X275100Y466500D03*
X275100Y486500D03*
X275100Y506500D03*
X275100Y526500D03*
X275100Y546500D03*
X275100Y566500D03*
X275100Y586500D03*
X275100Y606500D03*
X275100Y626500D03*
D10*
X254000Y736600D03*
X228600Y736600D03*
X203200Y736600D03*
X177800Y736600D03*
X152400Y736600D03*
X127000Y736600D03*
X101600Y736600D03*
X76200Y736600D03*
X127000Y800100D03*
X152400Y800100D03*
X177800Y800100D03*
X203200Y800100D03*
D14*
X38100Y838200D03*
X304800Y838200D03*
X38100Y101600D03*
X304800Y101600D03*
D15*
X162560Y219456D03*
M02*
