M48
;GenerationSoftware,Autodesk,EAGLE,9.6.2*%
;CreationDate,2021-02-19T23:39:31Z*%
FMAT,2
ICI,OFF
METRIC,TZ,000.000
T6C0.508
T5C0.700
T4C0.813
T3C0.900
T2C1.016
T1C2.800
%
G90
M71
T1
X30480Y10160
X3810Y83820
X30480Y83820
X3810Y10160
T2
X9890Y19050
X9890Y24130
X9890Y21590
X24890Y13970
X9890Y16510
X9890Y13970
X9890Y11430
X9890Y8890
X24890Y8890
X24890Y11430
X20320Y73660
X24890Y16510
X24890Y19050
X24890Y21590
X24890Y24130
X17780Y73660
X12700Y73660
X10160Y73660
X7620Y73660
X12700Y80010
X15240Y80010
X20879Y36551
X27381Y36551
X20879Y32029
X27381Y32029
X17780Y80010
X20320Y80010
X15240Y73660
X25400Y73660
X22860Y73660
T3
X12700Y58420
X20320Y58420
X12700Y50800
X20320Y50800
T4
X8890Y34290
X11430Y34290
T5
X5510Y44650
X27510Y50650
X27510Y52650
X27510Y54650
X27510Y56650
X5510Y48650
X27510Y60650
X27510Y62650
X5510Y50650
X5510Y52650
X5510Y54650
X5510Y56650
X5510Y46650
X5510Y58650
X5510Y60650
X5510Y62650
X27510Y44650
X27510Y46650
X27510Y48650
X27510Y58650
T6
X16256Y21946
M30